<mxfile host="app.diagrams.net" modified="2022-10-19T08:06:29.896Z" agent="5.0 (Windows NT 10.0; Win64; x64) AppleWebKit/537.36 (KHTML, like Gecko) Chrome/106.0.0.0 Safari/537.36 Edg/106.0.1370.47" etag="NB6Pwyu1_FuNxjCrmbp9" version="20.4.1" type="github" pages="2">
  <diagram id="-r-0SZIfTZ7pMGF7WC4g" name="手动三维模型">
    <mxGraphModel dx="1300" dy="2100" grid="1" gridSize="10" guides="1" tooltips="1" connect="1" arrows="1" fold="1" page="1" pageScale="1" pageWidth="827" pageHeight="1169" math="0" shadow="0">
      <root>
        <mxCell id="0" />
        <mxCell id="1" parent="0" />
        <mxCell id="UfDb-DqNH3yCvx82YPJ2-5" value="" style="group;align=left;" parent="1" vertex="1" connectable="0">
          <mxGeometry x="70" y="330" width="200" height="90" as="geometry" />
        </mxCell>
        <mxCell id="UfDb-DqNH3yCvx82YPJ2-1" value="&amp;nbsp; &amp;nbsp; &amp;nbsp; &amp;nbsp; 3Ds Max&amp;nbsp;" style="rounded=1;whiteSpace=wrap;html=1;fontStyle=1;fontSize=22;align=center;" parent="UfDb-DqNH3yCvx82YPJ2-5" vertex="1">
          <mxGeometry width="200" height="90" as="geometry" />
        </mxCell>
        <mxCell id="UfDb-DqNH3yCvx82YPJ2-4" value="" style="shape=image;verticalLabelPosition=bottom;labelBackgroundColor=default;verticalAlign=top;aspect=fixed;imageAspect=0;image=data:image/png,iVBORw0KGgoAAAANSUhEUgAAAEgAAABICAYAAABV7bNHAAAK50lEQVR42u1ca3BbRxU+K1uyJT/ycB+OkzpNUzt+xnaSDnSgQJl0UpgJZIDwSJq0Q5uSMg1JhwKddigD7dDC0CS8CmniZDKkLUxJC8NvGH4w9Ad/Wpj+SKFN87RkE8uWJcuWdO/ynb2Sc6Xoda/utTRDTrqzkrx3797vfHv2nLN7K+i6FBVR7QHUulwHqIRUBNCSx76xFdWdbg9SSmn+QqTpSUomD0WOHJ2qWYAATjMG/rYQ4rb0Q0h8FoVqp9pITZM0Ny9I0uORo8deqGWAvorqWCV9WBWZ0gjgZL5exi+9kaOjkZoDqPXAPh+U+Q8oddBJdhRtkzKYY2rLH5+cOTb6fM0BBPZsQ3UaxePm4BRg+EdJMGc+ke/Pl1CGMNWu1AxAAKcO1V9QPuY2OAqgRJKIS2F5AgD9yK372wHoE6D2n8Fyj9MGOKsNk2c+IQBQqbYhVP2YapNVBwjgcPs/oHzGjcFkRC3rzJpkqqzmKE+DRc9WHSAY5xFo7E08gM+NJTzTRjEnmbLS3ziqAYA0UVWAwKCTqHa7oan0AxvLOC/nwvLs/x4A+kHVAAI4a/AA70BTfjecQDWW+DyxI1jUUSzc3wS7HbBF41UBqHX/vkPCIw44rSH1oLpuMEeXFXWD8ixY9PSiA9T6tT0rRMD/T4ygDReoFcZcp0cn8/2tVBvSdWaOUYMYJUON4oycRNUHkEKLClDLrp0jcmr6RdK0Dfjqc0w9Woo8gSaiG25wrEvIDwHQU4sKEEvzts/WyXB4vZyJfoVSqR34qcPK9bkCW0MUjZI3FiVavZpocJDI63XimXglY+96bFEBMktgeNhLmr4FYcB9oPQW/LTU0pRIpSTNzgpMK+mdjal5RY2NgoaHSXZ0SFxkTEP7Rv/HMNbfqRpAWWCtX7+SDMfxQdYcSn2x9gCHAI6R10EBQFcHge9yJbobQjeNjZUMiyP8dWBRsOoAZcQ/qAL7YWiPWfU51Kuv0TgzJxa7+hvqDIOyHEWfT2DKSersLMikTNsiLPsJAPp2zQBkFrCqGT3fje4fwFNsRmkBOEIxxyy5DMr5m7z5ZuJpR01NdobBsdkwQLpQcwCZpemTd3fA+B6WweB2GZ6SZGZBAQYtsIBdgfp6Sb29gtauleTxWHVODwKgb9Y0QK0PP7STmgIv4WkCAIj0c+dIv3gZwaiR3ynIILMwm5YvJxoZgUu/xMrt2RYNVMIiVwFq3f/oXjDmMJTZYDxnWsMIRPWxMaG/f1bWX7hQmEG54UhdnaCuLkk9PQJsKje8OYwV7bGaAiidVPsWyjNUbFVjG/TeB6QHx1BCJMEmY1RFhsVsam01bFN5DiaziG3R2ZoACOBwGpaj6idQ6oo2RgzmuxyCoZHKFZIzMwRmkTaBeDOZLAqUitrWriXq64MKinoWLD8FQLbiSEcBAjg+pjTYvZcfuNSyzI4iAFL1Qpt0fKZPTkowS9XwulWSPm/uKBBgB1NSe3sxVyCGahhT7b2qAQRw/Kh+jbKr7H5NDCokEsZc/+8EacEgyUjEcDDNzEp/l7fcYoQrDQ2FuvoVWPT1qgAEcJqgoVehqa1WQoO8DCpkePlP8bjQQ0EwKyjwmbKcSHYJGhokvHBBK1cq+ub0F0PFMZolFlUMEMBpQ/Uqyj2WLy6DQflE2SuwiVmlZ+yVehphGPEVKwwj7vfnXmqZRRUB1HpgXzu0wkn8D9nJ31hiUL7++D/YJ7O9Yvulfvd6BfX3k1yzxnxdVOr6ppnR4++6DhCnYFH9EWXQNsI2GZRPVA+wVxrslW6yV5JdAXYwW1oy9zwWGT2+x1WAwJxuaONPUEpXJTnpihlUzF4hKNbHQ6SHQlJPJAScSwknU6DBrIjHhyIvv/IfVwACczaSsTe2qmK1O8igQmLYq2nDXsFWSUw7hCujkeMnHnIcIDDnLijoNdz0Jid2NVxjUJ426iPbq3BYas1NMdnY2DP9+9OXHAOInUBUf0O5wzH1LgKDzMK7J3JqirTGxpju9/dMnz590TGA0iBx9vA1lA9bvbZaAKkpFoshhAmSNjtLsq+HqK3tJKbYA+Vcb8cGteKmv0k7hVSTU4wXtbl5oY2PcyAs9disoK7bJfX1CunxxMXc3Ejk1MtnXAEoDRJ7YL9EuZ8qOSPkMIN4p0S/ckUFvPpkWPUvly4l2ohlftmyzD1HscyXZaBtA5QGqR4K+z4UxrsHdVVzFHkHZHpaamNBoU9MSHjVBoM4d9SL6dTdZc5ERlFtQtDqvqOYBomv34/yHIr1bQi7oQYX2BPOIWmhEC3kujOhxo1wDjeYnMOrsrihhgmoL0EzJ0Segw1OBqvMDmaJdnlMsKd8Tf7aWy8R0Qtac2u+YDWaDlbfX3SA0iBtRvUKyo1lX1ROuoPtSjisViG2L8Q7smrk2SkP2ZEOUAP+Ql39AuDss/pcTifMNkBTb0BTnbYZZMwgIWdmJEDhlUjS/Pw1+2OZ/qihQdDwekmrVhVsg48RVEOwPeeqClAapNVkBLFDJRubU678fW4ONmVcrULsuxgjzD9E1b6zE3dBrOwreZ7iBbDncTvP41bSvh3V71DuKnoP3kQ9f4lgV0hjUMJTCrSSSfumgDGdVrSXMxys9yppf75mAGJB3NaM6gTK56+ZYvxxMmxs+5z5t5DJZBlGOp1bXXubpIF+wYn6MlwB/vg8ptaTdp/D1X2xlt33NYiW5oPC59uLrx6VX74Ixpz9gOS0ka/xRsvcOOStHnb42tqsDIEPmPdXcqDK/a3ne7d4xZLWUzIY+qJ+4aKkVGrBmKqt52iJrWePR9K6bkE965TzZzGa5yN5361k/G4dXuDjdKvII7aTpu/CeAcokahnI5wlxRjErGlbbjh81rabM8KsGar0OJ6jAAGYRoBxL5S3G/Vm1C1ZGk8kJMXj2YcX8jAI9kVQf5+EveEMoN18EB8LfqbSZ3LiABXvnvaRsR9W9GieWpp5ByITGuQySB15uclgjb0jLxnho8DdAGi6agAFhoaWSV3/AjTFEf0mmXP6vqjGsWqpI3gmBqldiPXwaW5dbTiK9o/g8e9PYeV6rlJwLAPU9OlP+eXU9EfwcPfDX+FXoprt3lgdxYMz6J2JEq0E6UaGi+2KWhE+6sK2J7xoADXv+HK7HJ/YI6PRnVDt7biqznDmhOHUiXRX6ieRXXJ/X7iz4HdPqY6dPt7oc0aYffyq5kGnOiz3IPmICPj/jrs3iFz619ZB8vPCeKllZnEBeuRhAfq/jptvc+rGZlGvIsTnjYMIFXSDsh/g/NzJsVnZ1fgoNPRXgFRnY8ktfXpMYizwk6Sm22XQ2XTEHq0WQJx75lcxP+7kAMzCOCkmabrV9ZXZ8wjYc8TpMVndONwKTb2BB/E4zaAsR5Hfbk5pVvp7F9VGAOQoeywDBBbxyxRvomx0eiBmUUyaSxCxK1D6xTpmz4MA54QbY7GzL8ax1Uk3GbRgl4q8mmlqewbVCGzPnNVncQsgTvq+hdLtxoDMotY0fl++8Mu93GQ32HPKrTHY3Th8FNXP7F5vRRZASuQ99fo2yp0AKF5TAMFYLwG13wG1O9ycYll5IUw1gJSbLdyBqfVbNxVUyc4qJ6Icf8u4sMBV4qk2v/B/YXgLEN0ROTZa1sv11QBoBTT4LyhT5UBdZZC55leq5hI887Zjar3utloq3Xrm/M+A24OUBnLpL5Lfq4+gHIoceWm+kn5dB+j/Qa4DVEKuA1RC/gceFgTunViwSQAAAABJRU5ErkJggg==;" parent="UfDb-DqNH3yCvx82YPJ2-5" vertex="1">
          <mxGeometry y="9" width="72" height="72" as="geometry" />
        </mxCell>
        <mxCell id="UfDb-DqNH3yCvx82YPJ2-20" style="edgeStyle=orthogonalEdgeStyle;rounded=0;orthogonalLoop=1;jettySize=auto;html=1;exitX=1;exitY=0.5;exitDx=0;exitDy=0;entryX=0;entryY=0.5;entryDx=0;entryDy=0;fontSize=31;strokeWidth=2;" parent="1" source="UfDb-DqNH3yCvx82YPJ2-13" target="UfDb-DqNH3yCvx82YPJ2-12" edge="1">
          <mxGeometry relative="1" as="geometry" />
        </mxCell>
        <mxCell id="UfDb-DqNH3yCvx82YPJ2-23" style="edgeStyle=orthogonalEdgeStyle;rounded=0;orthogonalLoop=1;jettySize=auto;html=1;exitX=1;exitY=0.25;exitDx=0;exitDy=0;entryX=0;entryY=0.5;entryDx=0;entryDy=0;strokeWidth=2;fontSize=31;fontColor=#FFB570;strokeColor=#CC6600;" parent="1" source="UfDb-DqNH3yCvx82YPJ2-13" target="UfDb-DqNH3yCvx82YPJ2-22" edge="1">
          <mxGeometry relative="1" as="geometry" />
        </mxCell>
        <mxCell id="E8EXf81J99poO2dU3TDC-5" style="edgeStyle=orthogonalEdgeStyle;rounded=0;orthogonalLoop=1;jettySize=auto;html=1;exitX=1;exitY=0.75;exitDx=0;exitDy=0;entryX=0;entryY=0.5;entryDx=0;entryDy=0;strokeWidth=2;fontSize=25;strokeColor=#0000FF;" parent="1" source="UfDb-DqNH3yCvx82YPJ2-13" target="E8EXf81J99poO2dU3TDC-2" edge="1">
          <mxGeometry relative="1" as="geometry" />
        </mxCell>
        <mxCell id="UfDb-DqNH3yCvx82YPJ2-13" value="OBJ" style="shape=document;whiteSpace=wrap;html=1;boundedLbl=1;fontSize=25;" parent="1" vertex="1">
          <mxGeometry x="340" y="200" width="120" height="80" as="geometry" />
        </mxCell>
        <mxCell id="UfDb-DqNH3yCvx82YPJ2-21" style="edgeStyle=orthogonalEdgeStyle;rounded=0;orthogonalLoop=1;jettySize=auto;html=1;exitX=1;exitY=0.5;exitDx=0;exitDy=0;entryX=0;entryY=0.5;entryDx=0;entryDy=0;fontSize=31;strokeWidth=2;" parent="1" source="UfDb-DqNH3yCvx82YPJ2-14" target="UfDb-DqNH3yCvx82YPJ2-12" edge="1">
          <mxGeometry relative="1" as="geometry" />
        </mxCell>
        <mxCell id="UfDb-DqNH3yCvx82YPJ2-24" style="edgeStyle=orthogonalEdgeStyle;rounded=0;orthogonalLoop=1;jettySize=auto;html=1;exitX=1;exitY=0.25;exitDx=0;exitDy=0;strokeWidth=2;fontSize=31;entryX=0;entryY=0.5;entryDx=0;entryDy=0;strokeColor=#CC6600;" parent="1" source="UfDb-DqNH3yCvx82YPJ2-14" target="UfDb-DqNH3yCvx82YPJ2-22" edge="1">
          <mxGeometry relative="1" as="geometry" />
        </mxCell>
        <mxCell id="E8EXf81J99poO2dU3TDC-6" style="edgeStyle=orthogonalEdgeStyle;rounded=0;orthogonalLoop=1;jettySize=auto;html=1;exitX=1;exitY=0.75;exitDx=0;exitDy=0;entryX=0;entryY=0.5;entryDx=0;entryDy=0;strokeWidth=2;fontSize=25;strokeColor=#0000FF;" parent="1" source="UfDb-DqNH3yCvx82YPJ2-14" target="E8EXf81J99poO2dU3TDC-2" edge="1">
          <mxGeometry relative="1" as="geometry" />
        </mxCell>
        <mxCell id="UfDb-DqNH3yCvx82YPJ2-14" value="WRL" style="shape=document;whiteSpace=wrap;html=1;boundedLbl=1;fontSize=25;" parent="1" vertex="1">
          <mxGeometry x="340" y="335" width="120" height="80" as="geometry" />
        </mxCell>
        <mxCell id="UfDb-DqNH3yCvx82YPJ2-19" value="" style="edgeStyle=orthogonalEdgeStyle;rounded=0;orthogonalLoop=1;jettySize=auto;html=1;fontSize=31;strokeWidth=2;" parent="1" source="UfDb-DqNH3yCvx82YPJ2-15" target="UfDb-DqNH3yCvx82YPJ2-12" edge="1">
          <mxGeometry relative="1" as="geometry" />
        </mxCell>
        <mxCell id="E8EXf81J99poO2dU3TDC-7" style="edgeStyle=orthogonalEdgeStyle;rounded=0;orthogonalLoop=1;jettySize=auto;html=1;exitX=1;exitY=0.75;exitDx=0;exitDy=0;strokeWidth=2;fontSize=25;entryX=0;entryY=0.5;entryDx=0;entryDy=0;strokeColor=#0000FF;" parent="1" source="UfDb-DqNH3yCvx82YPJ2-15" target="E8EXf81J99poO2dU3TDC-2" edge="1">
          <mxGeometry relative="1" as="geometry">
            <mxPoint x="580" y="620" as="targetPoint" />
          </mxGeometry>
        </mxCell>
        <mxCell id="UfDb-DqNH3yCvx82YPJ2-15" value="FBX" style="shape=document;whiteSpace=wrap;html=1;boundedLbl=1;fontSize=25;" parent="1" vertex="1">
          <mxGeometry x="340" y="470" width="120" height="80" as="geometry" />
        </mxCell>
        <mxCell id="UfDb-DqNH3yCvx82YPJ2-16" style="edgeStyle=orthogonalEdgeStyle;rounded=0;orthogonalLoop=1;jettySize=auto;html=1;exitX=1;exitY=0.5;exitDx=0;exitDy=0;entryX=0;entryY=0.5;entryDx=0;entryDy=0;fontSize=31;" parent="1" source="UfDb-DqNH3yCvx82YPJ2-1" target="UfDb-DqNH3yCvx82YPJ2-13" edge="1">
          <mxGeometry relative="1" as="geometry" />
        </mxCell>
        <mxCell id="UfDb-DqNH3yCvx82YPJ2-17" style="edgeStyle=orthogonalEdgeStyle;rounded=0;orthogonalLoop=1;jettySize=auto;html=1;exitX=1;exitY=0.5;exitDx=0;exitDy=0;entryX=0;entryY=0.5;entryDx=0;entryDy=0;fontSize=31;" parent="1" source="UfDb-DqNH3yCvx82YPJ2-1" target="UfDb-DqNH3yCvx82YPJ2-14" edge="1">
          <mxGeometry relative="1" as="geometry" />
        </mxCell>
        <mxCell id="UfDb-DqNH3yCvx82YPJ2-18" style="edgeStyle=orthogonalEdgeStyle;rounded=0;orthogonalLoop=1;jettySize=auto;html=1;exitX=1;exitY=0.5;exitDx=0;exitDy=0;entryX=0;entryY=0.5;entryDx=0;entryDy=0;fontSize=31;" parent="1" source="UfDb-DqNH3yCvx82YPJ2-1" target="UfDb-DqNH3yCvx82YPJ2-15" edge="1">
          <mxGeometry relative="1" as="geometry" />
        </mxCell>
        <mxCell id="UfDb-DqNH3yCvx82YPJ2-27" value="" style="group;" parent="1" vertex="1" connectable="0">
          <mxGeometry x="660" y="-113.5" width="290" height="90" as="geometry" />
        </mxCell>
        <mxCell id="UfDb-DqNH3yCvx82YPJ2-22" value="桌面软件Pro" style="rounded=1;whiteSpace=wrap;html=1;fontSize=22;fillColor=#ffe6cc;strokeColor=#d79b00;" parent="UfDb-DqNH3yCvx82YPJ2-27" vertex="1">
          <mxGeometry width="290" height="90" as="geometry" />
        </mxCell>
        <mxCell id="UfDb-DqNH3yCvx82YPJ2-25" value="" style="shape=image;verticalLabelPosition=bottom;labelBackgroundColor=default;verticalAlign=top;aspect=fixed;imageAspect=0;image=data:image/png,iVBORw0KGgoAAAANSUhEUgAAAFsAAABcCAYAAAABM8khAAAAAXNSR0IArs4c6QAAAARnQU1BAACxjwv8YQUAAAAJcEhZcwAADsMAAA7DAcdvqGQAACodSURBVHhe5Z15cFXXnedVM0k6nfSkOpXu6dSkZ6a6Ol0zNVXzT/xHT9XUxPESL4mxzWYEmH3fMYvYEdjGmN1iF5JAEtqFQIDYxCr2HcRuY4wh3nAskPSenp7ecs98v79zzr33PZ4AL0ns7lv1rbP97rnnfM7v/s65kozTvi1X5hb1ozcOO/+cecR5MvOo02PmYWfijINOLrR/Rp1zfnqdcwP5O8gHoRjyAZZZP/2AUy922j4j85DTg/1If+jXPOLf97Vgl/PjqXXOr2bWOQMAcClA7UL62YyDSs08pDWDQnm6SWfUIQ9J3si2yT2HtQ36+mzGAfR3wFnK/qcedX41/rzzY/Pofx/X4NPq+5j4L6bUxQZMO+gUT6+Ln4J3BjOPGlAANp0AKYK1qU/TDjiJbX4bcy/7YX+ZR2gfD+IZp/i8aXgun5+p1PfMkP7tXevrnX/MO+f0yz7nVC875bw/53A88sYxDWQa4BCglj+vyxbwNKY2n0rS5rOx9pCAx4JO3R+PoO06VDmtzumZuV/93Azxu3/ln3N+se6iM6DwoqouvOBES68qVQYVXVJq9VlHLTrmqNmAPWU/4OwnDIIzKcqsnyplXSdlqdPtItfea6O9WzZ1snCQvD0QwIfRVgaP74UY/5/NkL97V/lR568LLqin8y/EqwC5ufiyUsUAXHLJUWWXtcqv6DTvnFLzAR3xVU3Zp0VYLL952FFvHXHU20cdNQf51w9pOwIk+MmwpexiPLr0AtLrUW7A3lE8ba/z64pL6gdmCt/+K1up76+rd57Kr3c2FVyIN5RdA+ArGjJVamBXXI6rSsDecNVRG685qhIp7lHzAHUBwCPkqAq0V6Gt+l1HbXkvrjYjpWhfctFROXwzjvPN0F49ySwUF0Fk86nqfOWpAD4DYWbqvtjnUw/ES7GY/w/h5dsd03OvOv8FoMfmX3A+KQZgenLRxbgLuuxSXJUTNCAKaIEZF3jVSAlyE9ItSGvec9T29+Nqx/uO2mlU+4Gjdt+Iqz03HbUX+X0mrcJCETw9n16esRfg98bVZJNO8pUnIyVg+0YIfAptEq4AHvW3pu6JDZ2yx/kHM7Vv17W23vnf8MxChI5GxuMieB5VAthlAhphwwebHk1IhFvtg7313biA3nYdsK97sHfdAGxIYBvQBz7UqrulU96/Bm/EYnj73CNxE4Li5m2JqwVI3zoc128B4OpFgQBbFoMLgPIUQJ+0L/7F5N3x3Ol7nf9hpviXvwrPqx/nno92zj8fv8JwIaAvwJvp0QJaq9yGDQN649W42gQR9Gbx5riA3gbA1A5oJzx7F+BqyI5A3gvIBL3fwK6DDgL2IejoH7RY9tschI7c1qId++Hzl5+Kq5kH4gI9g2/AHkovwGTGdHh5xp74+Ym7nRf+4h9H2afV360958zNr49/wbBRdAHeDNDFgFxqIUMSn6ENVxAyMMmNgKs9GpChrYjHNUbamw1ohg6CBhzrzfsBznq0QAbAw9BRCqCPfeSoE9Cpjx11+hNHnfnUUWehc585qt7owh1HXYSY3463KOuE9myAFeBMdd54+Z74pxm1Tibi+N+aqf95r3U31Q8L653ZOGkEILWekA1ov0dXQAIaqjKgJWQY0PRoQt5mQVuPhujN1qP3QdZTXdAQQdNjjwH0ccrAPknY0BkAPwudA/DzBjZBX4Iuf+6oq3/U97x1KK4m7vZAJwqevyfehHAzNbPiz3xaWXPe+ae88/F3Ci/Eo7IJ+iCXGtCETI+mN1cZMWxQBM2QIfEZSoZMb671xWY3JEB1H8YN5LhAFm8W0HHXoymBTI/+NK4uGMBWhHwFYkob7gOv18XVhFoNXCuGcswtT9qrmEYm7nHmZux3/tGg+NNea886/1Jw3tlcWB93ii4a0BAhM3RI2IAIudJAduMzQUNbATs5bHAjrJWwoSHvQbrvZtx4c1xAH0SqPTkuYeOYeLSGfPKjOCDHjTfHjSfrtE4WSXv8pTtxdRWQ3/1Ch5yFR2Jqyh6CBexdGrBAN/LqYvBuxdTJqI2XTTqk/ptB8qe51u1XP1x3Lv4OQkaU8Xl9PbwZoCVsQHLagGx8FtAQw4aNz+5GSNDQTtejNWxClmPdBwStYdObuckduuXBtmHjBGAzZBA0RY8+B9jnAbkeXszFexsnkDcPYkM8ydCkYb/XQPjao8ft1F7th201Xur87ZKPYCHm8uc8Bs03e61/T/0kvz42ff0FJ1IMjy42oCVsGNCETFnImwxoG59t2CBoCRuQhqwhiDcDMnUAoKmDkBc24NEmZBwHKMLS3kzIccRm69E6NnNh5xyMqdd2ao3dEVPT98akf8J+H8o7q4E+ULjXX56wW6nxtfE25Cdi0/wbg+ibucpvO38tm2F9rKWEoH2hw5447CZIScggaIYNA9nvzR5oxGeIkC3o/caj6whZ4jO8GTpKb4YImiHDhg0LWYOOq3rA5ubHfmYALAGPAyyKoMagvBIezsW41ch9AN59AHbGJll+yP56AkfaPH5HbErWduevDKqvf609G30JsD9h6BDIkHgzJBshRMiuNxvI1qPFm6FUoOnRew3oAxAh67ChIUvIMJBlE4ROAbR4M2QhW2/mZkjYR2HHeDwBYAS40djtMZW5Lyab6+0mnEYQUpYdj0u9tRGgJn3N1qXSToc2H46rdZ41qL7exQ2x8Hy8vuyyQtiIAXTMBzoGj44Z0DHXmyVkiGLwZgqQoQRvhixkHZvb8WYL2efNp33eLLEZsieOS5/HccqIq2s40p1BLOc4GEoIc+yOqIDnAnD83CQ/uIcvVIwrA55LG8L1FE0q6zr2o/MIQfBw1J0cXxP67wbZV7vyzjb/fVF9PI+g6c0EXX4xJpCpKkIWxeDRMTlpbL4a06cNgK55NwbIFEBDFrIFLSGDHm1Au96cDBq6z5uhehM2LiLlKeMyxCPdVQObcfkGxHP2suNReCNAEfr2KOBG1ax9UXEUPoOxfLRdELS7AlR/2QUutlrjdgnwlcNqGn9q0H25q2uF+o+F52KDi+pjDfKzDXo0VAHYlQwbAltDZujQISMmIuhtAL0doYOQd8FzaqHdSaAZNnisI2R69GGIoCVsQHLSoDcb0BbyeQOa3nwBxzuGjSsArCFr0O8ivQ7P5SZ4867eVOcdQszeFlVjAGo0wI1CfnJtVK06ieMfztW6TbcnpwSt817Z1o1FOEHdp2Nr2nplZqr/YBA++rWu3vk/8OrrFfBqQhaPhixkerMOHfBoiCFDwoYB7YaNJMh2E7TeLJCtNxM0oBCMHzK9mZBlAwRc6qJAtt4MwBABv/eFB/kDQL6JMPEhxJRv1oSdUTW6BpAIFmJ+lL9sUlcEmlxnRFtrP3anUmNqopfG7mj7lUH4aBfP00Xn4qUEXe56swENETI9mqC3IGxQ9ObtCBmyCdKbkdfeHNNnZzdsxFQdUh7pDlMWMsNGO96sY7MWPdmC9nuzBf1+Q1xCx827gI6U/fCYeKtRvwH0ZMK1oEbXRFy5EH11XAzX9kH2zO+Ah2+L5n6pT/qcc87/RXy+U4FPcXp0Amh4NCFb0PRmAW3is8Rmhg14kfZonGsJ+oaG7MZm49EWtBs2oNM+0PoDxYYNDdrvzQT9ns+jGTLo0QwxHPdsxOUVJ2KyADx5TAHskVs1cIHu0ygDMbletz3cfsx2h9A/GlYTecygfPC1ZP+9vy2pjxZUXVPwaJyfLWRoE2TDBjdCic0EDe0AbInPAL77OrzZB/qAeHNMf6AIaBy9DGiBDBHyKQNaNkFIYjMF0Bay35PFm6Hr4tHam7mIRec05FGAOrQ6oubWReW+S+gjA2FkxFYCggg9lQSkLdPO2rdzj7WHxu5QrFs9ftenD/+ziaKzsR5l9bEvqvhzZws5yZtrjHh2FsiQhA3ApTfvFcgx8eYDNzXoQ0gZNo5AyWFDQoaBLLHZePMFQoYI6QpAM+XicDEZv68D9PsA/QFCx617OjRNrY2o4ZsjasSWCDw4ooYh/86RqNhxkcdtN20QQTEVwTalbPvD7E3dqG1x5j8evTXc0SBNfU2uUT8tOB1dS9DWm6sNaBub3U3Q9WYNWnuz1l5C5iYo3gzQmCQ9Wk4a1psBWUAbb6YnnzPeLGEDYCU2G9D0ai7+G/DYjJ0RlXU0Kl5Mb6YYkysR8ujJw83ECZXg152JSnihg4yBh7LeipAkNfYeTB1u/DbJ9q6t1Pnsa2LOyK1tq0Ztd35i0N5/LT4S/X3B2ejdTZcdF7SEDGirDzTDhvVmQhbQkHg0xE1QQgdB05staED2hw2JzUmgJTbTowHZhg0CZ2gYjQkO2RRRQyF6bOaeiPRzG159G7C5mbN9hPFsgn4NcA9iLDfg/WtOaRhcDKaujL2bt/Lb+PUQe8DGM9o+H7ol+rxBm3Rlqu+9tT+SW4kTCMMGtflKFJCjOmQYyO15sxs2IA0ZYQOQj8Kr6c3HbsXMSSPmnTQsZHqygXwJumy8maAZk7kgb+zD7g/YE7a1qfHQsOo28eJ3jkRko/yoiT+Pialhm9CGibOdMXbNyaiA5kLyrRDPR/vwzW06hd1w1NHerZc6Xa/rvrz9yBoHaTQn5W/pnypo+tnsPdFL1VeU2mxAb2H4gKrwenIiOwBbYrMFDdGTKYHshg2zCSL1wgYgQxKbk7zZH5vFmyH33AwR+hH0x/6P38aZ/wI2oy2ADS8evbUN4wBsePaOd/EqY/JDAXwINPdAVN6iP6CNDjJpB98KA8UCS0i9+uQ2L+9va99+xJY4Fj5yacTGpp8ZxN41YEO0w+y9bUH5mbPxaHpz0dmoeNNUxEnm/WHDQqb4qmpvJuSY69EnAOekCzqmzgK0GzIsaEJOAZqnDIqe+SHiMsVwcemzmJqOjXDIRoaVNjUL4YRjoBOMhFcN3timFh6MYMON4YNGL0QuQgg9jrDF+wFF5wHI1rn55BRqz56gkSa3watRFw4O2xTtYBDra3C2+v6QqrbsuQf1JiJhA2LYWHZYdzQIE8jc3SZhxIYM/YFivBkiYA1ZeyBB3+fNANyeN9ODrTfz9EDIdgPkicPmCX0JxsWJEjbHN3E7x6dDTS5CBxePJ5QPYMvFnlHbpgYb20Tp+bkiVMw1oc7WS/5R7eHdWx22ZSf8kmHA5tZfwhsOLjisXNDcAEvORdXkHRgkOhsCjd4Slk2zzniznDbo0fRmA9uC5gTFo603Q4TsgrbeDKUEDQlgA5nQJA8Rds5JbkocW1iAc4wDNrSpxYei8sYQNJ9VjY3+9b3a2ziHIZu0PYEwFZn5EZq0mbLf3rXztSfYu+2wN+XhWxXHdXD4ZueXBnVa2qAN4c6DqsKfLTmMuMe4DNAMGQTNGwdXmQ6gYtQTsHt2Jugkbz4JMWR4J42YOo+UkC98GnO9mZughAzIfpxYyA8SYS8/pl9Z7QhhnWKcuzF2LiQdZQrGPxKeN7hKj90T54N7UM/FkgVDPedp86ntdXsqez8je8/Q6pgavCH82cCqcBcBzd1yyMbonKGbYirrcFTVYpOpxAY0EXF6IDyFnQzioCQNq5WY5CGAPgzQfm+2IYOSkEGPltgcc2OznDQge9Kwn9ryBUjQSVCTyxS9nIszCyFt4AY9JkLjGEfB07dhr1l0ULdx/Lo9WZyPFhxN6mw/Wn5bf/2j2fvbhoDrwMrWt+RUMrxG/XzQhkjlkM2OxGduMllIB3GgBrY8BClWSC05FNGgCRk6bsMGYQPwGXcThDcDcj1gu7EZSvZmGzKsRz8IOPO3AJtv1liENIYNOzHCpkfNr2tTY9CmF0KPnzZ+WXsR4Rlpe93n17GnjbUfUh0nx0pyThtUHflXFK4N3hRVq+G1PPLN2NWm+lfyJushOs+6t/dHxJsJ2YYMCRvwaB2bGTJi6gK9GaDtudnGZgva781WFmiqMvP0at63/GhEg3bHpsU8X19O2I7ZP/5U9l67tdF2Nv8o9rqc2n7wxijyrdfIOQ2FTgMrwxGuUO4JhpAIQkhY9a+AMeBSA0zaD3Wv4/UlaPFkACbkMwQNwPRmerIbMgxgCRmE3E7IEKCoS4YrHu9ru3qHmzaOdoBpx+Qfn837y6n0p7Bvtw8uQEU4Ss5p/asiwwdWxcQb1mGHLzsfVeO2atj+jpn2rWhVM2vDOj673gzI9GYJF/RovXFuvxZV+3EOJ/D3GDLozSZsJHu0wE1RZ2ETNO8pPhOR8GEdYUBlazvyxmzzX83ef09i/pHt6eFVUUXOaQPLWxYOqNQxuvA0P1wialQ1vLgchoDbHxqAyXGCfcvDavrONgEtG6AbMrRX78LmuuwIzrw1iJubw+o1fOVlIzTRyxMAM/8AuC5khA2GDi7i2pM4Sm3U47FjSiWOUxxFZG0f3d6Tv96Ttrf9Pdx+QAWPpBHVH5zT+pe3bu2HCq4MQeeeiCDfKrD7AS7T/khhp/qUtqqpOE5xEyRk682Ev/wwzpt4O/rSrgxpmbZnv1xEerYbGlKIbbadKc/T3Fgr6yMIXbpfPRZvbMxrcZx6sn4b2/5w+8T7UtsjTWnv1Vl7tw722jmw34FzGuLwyX7lhN2q1uM1zTrUBlj+h+qOmPYGvCnbwxKfGZsvAfTJW9xYGZdafUC0PcW+ZuHrjZtnKtgMHzyD78CRjUfE9xFqeEavwUa98AAXUPdh+9Ni/94zHk1f1/7B9/vnrOUryyKFT6b1LW291heeOAiwco63iRfRI+mZYsgUog1hT8bmSa/mzycYs+nRgzdoL6a93GfsWWb9a4izDDEMCTZmW3EB6MFz9iJE4a2ZjYWZjAUdhZBhx2Fl+/eX9bN0KvLZ2HbXxmefYGPtfHndjjm4+Qfba7v27PFmgnNan9LQx3ztB8Gzs/AxMKbaTLI0lHATjFWvklY1CbDPAvK1z2OqFGGnX1lIFiGVPVP2NRzeWYFwwC8/erMF7ffwyvM4zmFgPYpD8pzebn8mlWfoPh8s3zge2d73DH9byvu/rL0WOHyc1ruk5R6BDKoIqbf26LiDBTCyeZ2+Wtyqxm9pxTk7KsewubAnmPbsmfYuCakhWMgSLIyFbYHbPL375G2c73ewv+R+UvXvLz/I5lHtbTm5zV+Xysaff7A9ONxLg1e2EQi9aiJed+YpYwDptA/UC143Eq/3Thzr+GEyFV7+KupoY+37+Ozt/VzI9afbBLb1ahHiswXO/gpPtcmCyv0cpOnr/v7Zpvt3n5dkr9NEe63kNp1PVGr79uV/hjcOnXft2tJ6F4cENldhANzdNPhk6xBGAJbhYvlhxGAAH4nw8GqR3ybRnik9dWB5SBUApMAGYDlT+4Az5elj//Wo2PKeVH15eStbl6z27K38tqn0TdqbMjin9SpquUeIqaUB+0W4w7AhTkA44aoltqewh/ojxq070aZuASg9+AS+QM/zdGKhmwU4/mFMjcab0xPPSO5H6/7+H6yvYv9l7vkS9uCc9mpR60cEYisJ89WiFkl7FTO1ed3WS9pNPuGe1PYE1w+LkouTDoFWYaOcsaNVvYEv0Q3I88OIwD/EQtS9H1VDEHJ6rMe9kO0fXiGS1xTP6OPmWd/itvuf2ZPjkHLiePzyz4V2+nmefap7PD3c3q3DgqD8EWCHrupBpZLuKFmciEzmvjbWJdaLl0Kr8WXJT3d6bnphCCK0FvVaNdvCcrJ5GxvuIISRERtCasymkMrYio+oba1qJjbO2bvCskBvQnNwPH0TYpn1bJ+2TdvzPt4/GP30Q8jjYvTEwvVcr1NvXKnn5o0/eR4Psff1TSXaA/b60NW0HkWhk+IJMhgrllPV+cvJut+eHtoD+e4Am1UXFtgEwTq20a5vSYsaURlSEzZrsG/ublXz97aqedCCfTo/H2fwBUYL9yFFvdfmiXW8j/ZckGnb2S82dYS9/gDPefLZiWO1+eQ6q1RtqeqsbJ2vjc8tDJ1M61kY2krybOgBKK5B0o0WnB6sqXPtqfvtByFW9wPMV/JbxGuv4kPo7T2I9fC2oQgXBDEdHvkWABPSPEBi+9vIU/OYh9gmZaa2TurDRrotWVwApnPRP5/DBR1aibBjnIvjBwQzD//49fytQ9i0Z4Ldg+xNPftHnfAF57Tu+cGFPdbjYwIPpQfah3sD0WW26XZPrj0fZPMQ61/Fw1bg6zIbIaIbYI/b1KrO/CGqjt2MCoQ3dnngCCNZXAC37LNhvW1LTh8k+6w3axmWWlXGFpz/y/mqcx527nYO/vndP2+/TSr7RGEBisJoCy5MSy8MjOixngU8sAA3fANKh7iqOcf4tRlVU7eG1GuIpXvfi6ib2AzLzrapNwF7DiYuAgybsp4L8cbOpHZr45e/DvcQZMo2fx1kF+x13DMe42J8p3OkwylSzedrSWC3YY8KjEjrUdDSCXAiybDTC4IJ5YfJ2hM0B00tQ5zmn4btuNIm3rX9ckROJBvOt6nZO0MCh3CtZkNZB8KqApvlOiwUARG8br/fnu3JdQmy7dYmyd72TU+nM/RHeAMPPX53Xv45evn2dJ89ueYHo+Sclp7X8q/p+cFr3QvDeEhQC0bdJI8bTMpQ4LabwfjLnj1OGXg1x1aF1OL9reoK4jSPdRvr21Tt1Yi6hnL+ibDK3BECcHgXxJRaiY+lc3gTPuLfe2BRtlzEGwA41oapVsjUMdV5K13nt6WsvZe3or28SYSODZrQ+wI656vnnCwzZ2Hkr/MzsvWEjdMX+JJzWp8K9fNuBaHK7uvbVLd1uEEUNGIHSKUjW+dXon132A0sDaopCBucxEwALcKX47t3+FuamLr+OT5m/hBTi3BqmImTwix41CzYZCKfd6wVISeiPmmKC+yPG/nL3ZgqOdMmgGhDe0kljzqR7sMTbHx5f5u11ynq3DFou9lIuSAMewNL6Z12ju3NOSkvjGxZq/v6CNJQJTnLnzJgleakF7SqV1yjpE6Qss3q/jpsNIjRI7DTEzSBUDO3a08qOhXGF2NMfdocV8c+iKrXManpNSE1A6JdzlHdfhuf838AaMoCp6cvrWtVM3CayKRM31oavpf663UdF5XjYJpoT09GW1K/1m7KVsxnA08VQdUV8+McNY9Uap8RuXbLC+g/ZeCFjjp3WRv4tFs+gK+FsV+4oStSK9bZVDpG2rcoqCbi9SM8QpHUiFCnYwGWIKScvhUFvBhiOY5kiOFrj4fV7msR9f4XMQFrQfuh8xO/5lKbmoY+3P7NM2TBkp7n2vjzyWWkdrFTytojnViNbwHMz52zT34OLh/DhHnNM/BplzXN+o90eHUpbP1ll9zgoW6FEfemrnleB25ZFHDFTgfhHJ2Br0AOfpoVwHhqEU3Z0qKWIHych6fe+CN/ARyTvwGhbgL2BwgzPKncRuggZML/GCljfAVOL1NwVJO+pH/dp/TvPq+dugfZ16Soc1Od57w4P4YVgNMMXCYo21Tkq4fSwZNcu69q+heDWv9hJSqzXyloSwDbBXkqoQ6dUOxsQElQZeDDhDFuKmC4Sii3oKxhc/Brccq49ElMfQKYlz6Jqi0X2lT5mbDacK5NbcImSi/mRrrn3YiqhdcXIwTNwUnE9jUNqQBx+4fkeRqQVw7JM/1lVyyLrdeu+zPlZKE9Y3OLGlDscXFZkJFh40nzIc9XwDUbfA1qfXXKaenQOTcQ7Lq2BasRUMirzuwMKTuT1OS7YYUHA/QkvGKTMQhqkkknS13IrWfettGe+byjreLJ5z+KqtWHWtWETS1qwsYWhCKkCEcilMdDE3iP6XMS+/U90/ZPEVTmNpQBJwM2GeiLHinPTLhH20uebW7eV58gr34S+uS8Of/OuRqyx8jjIwJH8nwFXA1i7+pV0PSzTrnBS13yQqpzTkB1gtihSPK67hV0OhQnDsYyTkYm5kq/col1fiEGYsCc5I7LbdgEY+ranZgqOIENCZMhYA3JE0H5y/7+bRtT9sswlYMv1rdrcZzj6QKb3SzE3enwYvZLm8T+U431wePn/Zw/OXiMNB+/uqwNKfJ8GVwNYu96LPv09zvntuR0WRt2b5DOIN2pTvtjsxCPw0Mp7Y2p0/bE+xfjk/3Sx1GJ0Zc/japSHBHn4OTCNunfPIP2qfvVC2c1DvZZB1rV0RtRdej9iNqFD6nNCFFV58KqEOf6d/aFcQrSG57tO3mciXW6/2Qbwub4yIE8XDZ+ZkjJEXU55GoQJ16ds4PPd1wT/LxTbovquEbfSEke6l0YUK9V4WFVQTUO6Tg3NcIgLKzE9vvt2U/24VZ1EaGEHn67gX9ZFVUliNFvADo9ifZjcfyirU3t/Yn9BaWNMbsc5/JN+ELlpsqTzsHrEODvxx6wDftBLkIYPV3udcfpU6o6eY5nPx4aC/Up1F5NPn4Jv+zA5+Rp0N5/9Vz/xU9eXtO0umNOi2NvfHlNswZdEFCjKzCpDRQmzhQP9FILxdeenPrsx+BMznQpjoT1H0XEw28DOk8m9HR65zqcv9+ubVGzEQpmYpOaATFk6D5Nf1Yoj0WfEwGEovfOxEliFfYEfonWXtMb7054fNnpsJqPUCPQTF+S+vryxLJfXj15kEsnMOroCtzAr9PqwGryNGhTXy+uae74cnbzxx1zQgAN2NnNKh0bwvDyoBqDBxCSJ9S5qWm3NhiQW3brbR/afjTs6LErD7aqkx9G1XuI3+Ll0IfwdH5xXgH4s7cj6ujNqKq9ElErYDva/zx5lk5ZP7pCQ7Dt9MQ5O1vU+pOtaiNCSg3A1yC8VMLz38IbpMfPPkx/0pe93+vHq2fq5UeU4bMc8fslcKJjkltH8gNHg7T964Ut6kcvY1U65oYVUlmtwTjycAKjAHwkNIp5TIplnferRY20+VT2/nskjwEj5Qa5DDF3M45/R25E1JnbUXg8P4KishC18Mi8I/jqw9nY61Pfb1PWW7nPQxv750JMxTO4ea48GFLrjrWK+NYQ3Kjy9ueTUPbbsF+084TSMacZwMEL3F5c3bT6t4WP8J9T83o5p+Wxl1Y1YXVaVC+8JiPKMGCj4b68CA9MKD9M7diz32EY9CikGfDGKQgXUyEuAo9cBMJTAO1coezvYyxsJmzUr7m/3or2wyAuBm2494jtl5kDbVPY98qX8KHIjfwMyodf/ytT/eDl1U256fi+HwKv5iDtQCl/3paT26kRvvyD6v33EbjVEGioLaONsMUWZcLnpjWsJKBGYrI8TjIclWKDZToWnmf79GtYaUD3AQ2BbJ+6LTGv70EI9dV59Yni25+OszW5dQU/g/LRrh75LY/1Xx+4Mry8FZPG2donlpPrrDj5VPlkJffB/IPsqSHF2m76lqBaf5xgW9XbuxB+9odUJb5CtyIWb6kP4zQSVot24zwM28G8xyfpx8jft19fZQ7DwKl/YdNVcjMIH/3iP7+Dle87qDh4Z3AJ4lIRY3dADYIGF+lJ2DpJTd0Qkx+U3GbqpN62GQ1imy23Y08bTmpWTVBtwka381JYbcNmtxlwqWrUcQPcAOgEX8SfmW9FyChrhufROwEEGlKi+/I/332uL++OU8Q6LW88nv2Q0hDG33JnYGlr36/0zxbxGlajfjqwKLB6cElIIVUD8ICB66mATlkWoezLczJuPewGfRP2KE/dHFTFJ8NqOyBvuWAgw4sJf8OZVlUBlSGMlMDji/FVmncEm2FdCMfLFvXO3hY1D8fIKdV60WQOKcdwvzgeGZO/zjfmwaWtSIOre4CXQffVroFr7v1T/8Lm0wNLwqo/JjygsBmvixEGoFMjfPQkt9HeyrWXvK/su3eA5LX6GfWFJm8KqvLTODMbwOLFZ7UXl+PcXIqjXTG0Hh5diFNGPk8b+IAh8NzDIbUGcXw1TiErDoTU3B3YGCv8zzbPlfHYMSJNmoOu9wntwoV8wMkg+3pX34Lg7/oVBG73wwD6FmDyCWryydTlt5OKYJdv7BPqPfWBGCvHV/E1bUaMDsjGx1BR5QcMDy4B4CJ4cSFieD60DsfDtQZwNuCugmdTywF5KWJ71r6Q9nLE+jEAzmcljD1ZHKOVW6/twYS63bc4+DuD6utfffarH/bOb57ee11zoE8BvprwYNG6JjffR8opUtqYMvM69coJ91Oo64eJzEZsZijIAbwShI6N5xAm4Nn07jJAFk8G3MLjIVVgvZgefEhDXg3AKw60qOUAvFQAh9TiPS2ycc5HOCHsGdho6aHe+H1jpZC3dXYutq1vAT7XhUfztD7r1A8Nqm/mejH3j//p1XXBjN7rAm291+FciYe/upZqctULg+nFVOqbJXUFe11v7Vnnt/fuG4GNLB/wEjzZeDEXgCeR/GP4MMFC8EMnB5/k2YBMwCsFME4oAEwvXpIE+G18Tb61vUW9Cb2OD6QRpXZMSDlGjClxjHrcVjLOfDgcOMA+oz+4GETf7MV/XSA9r3l+j7WBSM+8ZtUDYtoTg2C+R16TqKfI1us6rdT2/vYeuU1qCj5M6M0ELB5swkQBvDj/aEithQfnAC69mHF4FULECgBeuk9vhO/sgRcD8AIAni+Ag/g0D6o3t2nAs3BKyYRXz9gcUOMqERrhqfePxZuDnivqMLaeawOK8+++NjDvT/ZPOturCzaC9LxARXpOk4OHqu4YQHcMxKbpTHObE8pWfjum6W57s05NeVo1ztEIDdaL3TDBWEzIJkzwpLFCwkSLygLkJdAiAF4AwPTiuYQMD35je1C9vi2oZm9tUTPxRTodkKdsCmDTBewKhoXEccnYTCp1Zlzd82S+Tg/MnxwMkj/t1W1t6L92zw3M65bTFOmehy+nNU2qG5WDQdm8KTN9JanOLaewZ9sohBHGX4EMwP5YTC9mHNZhgl6sw8RC14ttmABgxH168Ux48XQcG7mIUzYG1CRsvBM3BNQEaATO3XwT3fEYuWOCOKb03CDamyOcd1/M36D481xdK9QPXlnTOL1rdqCpKwbTNduqUdIuSLv4yl6q2+6v12mX1Y0SF9+EJ9KLs+G9q+ta5MhGyPRgAl5cG3TDxDwA5nGO92jAAR0mAHdadUBNhQdPqmoWuOMRNnjsG1vugU4chzc+nZr2Nc1Nr6xpns55GwR/3uv3Kxt/2nFV06zOq5o+67ompJBCjarzaqSAlpCa+i5unVfv1emU5SE49y6H5640kJcCcpZABmDAfYMey5AAoLMQHmajPAuAM+HBrCNgxn7rxQwXr5UF1BiIb85wHC17AbQeg17kLjJ+OxY9nq45LarTqsbPOmY3zeJ8zdT/MtcL2R//qNOKpg4dVzbWd17TggEGFPKqIyAy7YTBdzIpFka3+drdOp89U06WXsgYvARhYh7i73R46WiA6g3PT89pTHjVXwW4kWibAriTESoy6MUEDC8eg0/20dBInDxG4Nw+EOfknojBXGh5tk8cq35+s+J8ALr+ldVNHThPM+W//NUpO/w/X1rRmPfi8nsNL68KqJdXNCqUXSWUl99DamXal/vajTjpfjiK0ct5RGSZ9XiGEfNa1p7eOng94z5EwCVNanhxkxqGOg2ZC5o0Hr8IG+N/cQXmsbIpl/MyU/x2XenvBP6hw/KGYR2WNd5+aWUQg29WHZbdUx0ARsS8kQcsUbbN2r+w1MhfbyT3JNejTOjpawhe61UATmcMXoXFNff577dj4nhfWhVEvvG2zCMn8O38H7nZ6/FM9b0Xl9/9dYdlTWW/X3rv8w4rWzD4Jg8ahHqRzt/18lm+Nkze2r6Aeu/eZHuv7NnoeoFoUn/971HWea0XljepDitaaPM52speXH3315yHmdK3/3ou672/ei7r7uO/z2oqeT7rXsPvljap55c2KuTV8+9Qd7WkfFc9xzQrsfw7k/dsU9i7bUn2pl3q7H3WXspow3hkXFl3G57HODlejttM4bt3dUBoeXZxU69n32kqe2bx3fBzS5vVc5jgc1mN6llM/FmAT0iX6PQ5lLXYZrTEZ+fa6zbass6zRzmVPW0whueXBtQzS+6FUS57fskXvTlOM+Tv/vW75cGfP5N1t+czixorf7v47vXfLmqIPLcspJ7N4qQbFRZCod7VM4vvmdSvewllvx0X6RnAFbk2pg/0/2xWUPF5qI9gEa5DlfDknhyXGeK/vevx/ep7Ty5q+cVvF90b8NvFDcVPLbx76slFDcGnlwTU00ua1dOLG9VTi+55WnhXPY306UV3UaZYjxT198neA8hyD/tbElRPLmwIPrWw4dRTC+8V87l8/ncqJn8T1+OZd/7miYV/fAwwBj65oGHpkwvu7vrN/IY7Ty64B0BN6omFjRDyLC+4q55A+oSkWqxnnaSwoz3v0/UNn6HPXcgvZf9PZDU+1nX5nW/2f031Xb340fD4W3d++ZuFf3zqiUWNPQBx4uPz7+b+Zv7d/b9ZcO/84/MbbqB85/F5DUEo9pt5dwPQHdTdeHxBQz3aD2j7hgy5f/G9J5+Y3/jP356PkbS0/w+68Oj1KynoiwAAAABJRU5ErkJggg==;" parent="UfDb-DqNH3yCvx82YPJ2-27" vertex="1">
          <mxGeometry x="10" y="10" width="69.25" height="70" as="geometry" />
        </mxCell>
        <mxCell id="UfDb-DqNH3yCvx82YPJ2-26" value="" style="shape=image;verticalLabelPosition=bottom;labelBackgroundColor=default;verticalAlign=top;aspect=fixed;imageAspect=0;image=data:image/png,iVBORw0KGgoAAAANSUhEUgAAANwAAADcCAYAAAAbWs+BAAAK32lUWHRYTUw6Y29tLmFkb2JlLnhtcAAAAAAAPD94cGFja2V0IGJlZ2luPSLvu78iIGlkPSJXNU0wTXBDZWhpSHpyZVN6TlRjemtjOWQiPz4KPHg6eG1wbWV0YSB4bWxuczp4PSJhZG9iZTpuczptZXRhLyIgeDp4bXB0az0iQWRvYmUgWE1QIENvcmUgNS42LWMxNDggNzkuMTYzODU4LCAyMDE5LzAzLzA2LTAzOjE4OjM2ICAgICAgICAiPgogPHJkZjpSREYgeG1sbnM6cmRmPSJodHRwOi8vd3d3LnczLm9yZy8xOTk5LzAyLzIyLXJkZi1zeW50YXgtbnMjIj4KICA8cmRmOkRlc2NyaXB0aW9uIHJkZjphYm91dD0iIgogICAgeG1sbnM6ZGFtPSJodHRwOi8vd3d3LmRheS5jb20vZGFtLzEuMCIKICAgIHhtbG5zOnRpZmY9Imh0dHA6Ly9ucy5hZG9iZS5jb20vdGlmZi8xLjAvIgogICAgeG1sbnM6eG1wPSJodHRwOi8vbnMuYWRvYmUuY29tL3hhcC8xLjAvIgogICAgeG1sbnM6ZGM9Imh0dHA6Ly9wdXJsLm9yZy9kYy9lbGVtZW50cy8xLjEvIgogICAgeG1sbnM6eG1wTU09Imh0dHA6Ly9ucy5hZG9iZS5jb20veGFwLzEuMC9tbS8iCiAgICB4bWxuczpzdFJlZj0iaHR0cDovL25zLmFkb2JlLmNvbS94YXAvMS4wL3NUeXBlL1Jlc291cmNlUmVmIyIKICAgIHhtbG5zOmNxPSJodHRwOi8vd3d3LmRheS5jb20vamNyL2NxLzEuMCIKICAgZGFtOlBoeXNpY2FsaGVpZ2h0aW5pbmNoZXM9Ii0xLjAiCiAgIGRhbTpQaHlzaWNhbHdpZHRoaW5pbmNoZXM9Ii0xLjAiCiAgIGRhbTpGaWxlZm9ybWF0PSJQTkciCiAgIGRhbTpQcm9ncmVzc2l2ZT0ibm8iCiAgIGRhbTpleHRyYWN0ZWQ9IjIwMTktMDItMTFUMTk6NTg6NDEuNDM0WiIKICAgZGFtOkJpdHNwZXJwaXhlbD0iMzIiCiAgIGRhbTpNSU1FdHlwZT0iaW1hZ2UvcG5nIgogICBkYW06Q29tbWVudHM9IlNvZnR3YXJlOiBBZG9iZSBJbWFnZVJlYWR5JiN4QTtYTUw6Y29tLmFkb2JlLnhtcDogJmx0Oz94cGFja2V0IGJlZ2luPSZxdW90O++7vyZxdW90OyBpZD0mcXVvdDtXNU0wTXBDZWhpSHpyZVN6TlRjemtjOWQmcXVvdDs/Jmd0OyAmbHQ7eDp4bXBtZXRhIHhtbG5zOng9JnF1b3Q7YWRvYmU6bnM6bWV0YS8mcXVvdDsgeDp4bXB0az0mcXVvdDtBZG9iZSBYTVAgQ29yZSA1LjYtYzEzOCA3OS4xNTk4MjQsIDIwMTYvMDkvMTQtMDE6MDk6MDEgICAgICAgICZxdW90OyZndDsgJmx0O3JkZjpSREYgeG1sbnM6cmRmPSZxdW90O2h0dHA6Ly93d3cudzMub3JnLzE5OTkvMDIvMjItcmRmLXN5bnRheC1ucyMmcXVvdDsmZ3Q7ICZsdDtyZGY6RGVzY3JpcHRpb24gcmRmOmFib3V0PSZxdW90OyZxdW90OyB4bWxuczp4bXA9JnF1b3Q7aHR0cDovL25zLmFkb2JlLmNvbS94YXAvMS4wLyZxdW90OyB4bWxuczp4bXBNTT0mcXVvdDtodHRwOi8vbnMuYWRvYmUuY29tL3hhcC8xLjAvbW0vJnF1b3Q7IHhtbG5zOnN0UmVmPSZxdW90O2h0dHA6Ly9ucy5hZG9iZS5jb20veGFwLzEuMC9zVHlwZS9SZXNvdXJjZVJlZiMmcXVvdDsgeG1wOkNyZWF0b3JUb29sPSZxdW90O0Fkb2JlIFBob3Rvc2hvcCBDQyAyMDE3IChNYWNpbnRvc2gpJnF1b3Q7IHhtcE1NOkluc3RhbmNlSUQ9JnF1b3Q7eG1wLmlpZDowM0RFQTUzRkQzRDUxMUU4QjcxQzlGNDQ2RUNGRDZCOSZxdW90OyB4bXBNTTpEb2N1bWVudElEPSZxdW90O3htcC5kaWQ6MDNERUE1NDBEM0Q1MTFFOEI3MUM5RjQ0NkVDRkQ2QjkmcXVvdDsmZ3Q7ICZsdDt4bXBNTTpEZXJpdmVkRnJvbSBzdFJlZjppbnN0YW5jZUlEPSZxdW90O3htcC5paWQ6MDNERUE1M0REM0Q1MTFFOEI3MUM5RjQ0NkVDRkQ2QjkmcXVvdDsgc3RSZWY6ZG9jdW1lbnRJRD0mcXVvdDt4bXAuZGlkOjAzREVBNTNFRDNENTExRThCNzFDOUY0NDZFQ0ZENkI5JnF1b3Q7LyZndDsgJmx0Oy9yZGY6RGVzY3JpcHRpb24mZ3Q7ICZsdDsvcmRmOlJERiZndDsgJmx0Oy94OnhtcG1ldGEmZ3Q7ICZsdDs/eHBhY2tldCBlbmQ9JnF1b3Q7ciZxdW90Oz8mZ3Q7JiN4QTsiCiAgIGRhbTpQaHlzaWNhbHdpZHRoaW5kcGk9Ii0xIgogICBkYW06UGh5c2ljYWxoZWlnaHRpbmRwaT0iLTEiCiAgIGRhbTpOdW1iZXJvZmltYWdlcz0iMSIKICAgZGFtOk51bWJlcm9mdGV4dHVhbGNvbW1lbnRzPSIyIgogICBkYW06c2hhMT0iYzU2MzMxMTEwZTAwOGY3ZTE2YjgwN2E3NDUwYjY4ZGFlMTFlMDhjZiIKICAgZGFtOnNpemU9IjE2NTIxIgogICBkYW06c2NlbmU3UHVibGlzaFBlbmRpbmc9InRydWUiCiAgIHRpZmY6SW1hZ2VMZW5ndGg9IjIyMCIKICAgdGlmZjpJbWFnZVdpZHRoPSIyMjAiCiAgIHhtcDpDcmVhdG9yVG9vbD0iQWRvYmUgUGhvdG9zaG9wIENDIDIwMTcgKE1hY2ludG9zaCkiCiAgIGRjOmZvcm1hdD0iaW1hZ2UvcG5nIgogICBkYzptb2RpZmllZD0iMjAyMC0wNC0xM1QxNDowOTo1Ny40NzBaIgogICB4bXBNTTpEb2N1bWVudElEPSJ4bXAuZGlkOjAzREVBNTQwRDNENTExRThCNzFDOUY0NDZFQ0ZENkI5IgogICB4bXBNTTpJbnN0YW5jZUlEPSJ4bXAuaWlkOjAzREVBNTNGRDNENTExRThCNzFDOUY0NDZFQ0ZENkI5Ij4KICAgPHhtcE1NOkRlcml2ZWRGcm9tCiAgICBzdFJlZjppbnN0YW5jZUlEPSJ4bXAuaWlkOjAzREVBNTNERDNENTExRThCNzFDOUY0NDZFQ0ZENkI5IgogICAgc3RSZWY6ZG9jdW1lbnRJRD0ieG1wLmRpZDowM0RFQTUzRUQzRDUxMUU4QjcxQzlGNDQ2RUNGRDZCOSIvPgogICA8Y3E6dGFncz4KICAgIDxyZGY6QmFnPgogICAgIDxyZGY6bGk+YXNzZXQtdHlwZTplbWJsZW1zLWFuZC1sb2dvcy9wcm9kdWN0LWxvZ288L3JkZjpsaT4KICAgIDwvcmRmOkJhZz4KICAgPC9jcTp0YWdzPgogIDwvcmRmOkRlc2NyaXB0aW9uPgogPC9yZGY6UkRGPgo8L3g6eG1wbWV0YT4KPD94cGFja2V0IGVuZD0iciI/PpriGWkAAAAZdEVYdFNvZnR3YXJlAEFkb2JlIEltYWdlUmVhZHlxyWU8AAA890lEQVR42uydC5xdVX3v//8z7yRkJgEkkJAMELyfAgn0YWgrj7H1iQJR8RYrkCit/dxCCMhDLWCI0H56pSgB7a0iNQGxKIoBraKiDClYo7ZCQkUlJJM3eZDMTB4zk8zMumvts/c+6/Ffa+99zj5nzmMvODlz3ufsvb/793+t/0LGGBQzEBGyUcHxd3sXA2OX8r8WgthnQweDR1bzyxOw4tSV2Uaq3Ciamwy46h25W1/v4nvner53F/Gb3QI08Z/4XwIuGH38sopf7uXw9WdbLwMuG3FBu23fOfxqKd+tiz2+vH3kg+ZfMxM4eQi1W8HBeyHbmhlw2bCMptv3LxSgcRXr8eDSQGPSfWzoUJy37PXBW51t3Qy4bPDRvKy/y1eypcJs9PaH9z8L9qykbD508YGTzc0VnvJl5mYGXCOO1jsGutn42DLA3EK+B7oUsCQ1Yxp0LDQpDxXzsf1+kGU5B68v2wsZcHU/2pYP9HBolgLDhaF5GAqYbEL6tw21y/89Xhxw8ljtm5u92V7JgKu70b58cDHfTcvyZmMAEb+M+zswUC6Q/DQ5SBLup/ztFICTzc3lWVohA67mx6Q7BwVcAjThn3WFoPmsFUAL4AIFNMYKaqfeZhy4w2l/3X7Jz8vMzQy42hmT7xzkZiMs4ntlMd9QwMZZAa5AwCTwGFC+Gm1m5uHkwA0fLudPEGq3KjM3M+Cqeky568BijgMHDXrC8Ie0fQPwQAOPSeDpIMq+XGhelkfhqNHrg5eZmxlw1QLZYBeIahChaF41SIgTKNYjkyBjBZtyXFKuUMFk05IxdQf7j1cIONnPy6pYMuAmELQ7+7v5FljGt55nNiqmIug+WuGuAjjq85UAiQyeDqJ/e6yywOnmZsOnFTLgKjSO+fT+hYBekpr7aQgoG4lY4ENRNEmxZCZ1xSswp6UGiNtjQ0MTvSl6oYGrWDLgygrZPmE2LgbIV4NAgBkGKAXgsbyJiEgolGlq6jk2pgVMCimB4P6CjTo2PFQtm6cPGrCKJQOuHKAtf73bh0yYjV3EVgihC8ALlc0jAxXfS7UQWUEZ5cAKFakMQSv4d2NDw9W2ufqhUDTdlwGXARcftDv29uRBw4XEDwcXeLJJyRTrUVY8VCCSwZPVjWnX8v1VpHDU8KtYTuvNgMuAc4C2R5iNy/iv6zaAigQPZaxU303282wmJmNSjpvI12ngjVY3cLK5uZyDtzIDLgPOG1M+tbs775+hVw2iWomo8RQNng6auI2gAQVqtFLBUgOPEQDWgMJR5qbv553WlwHXgMBNuX0XNxtxEadhsaFkyhUSQoc0dEoQhP+PunmoJcJBMymD20r1SeFR2R8cHR6usS0ebjOhdjVfxZIBFxe023YJwARoPVTgQycuqdqpCWrMs4JSraRcQUJUlZjRTKa+zgewhoELRi/UcBVLBpxjTL7ttbAaBImwftrgKYEPEiLtccVfY2TwJdzJ/gOjI8NQmwMpP6/mqlgy4GjQROMdEQRZbLKClmOgNPBMk1EFL/TYWCh+BfNRVzIidcBqFrhYx8tKqJEqlgw4aUy6dedCFEEQYTYqvy+uj2YDL282ogVGXZkUxrRAiTMJDrYIZUHx6hQ42dys6iqWhgdu0t/tzFeDYFANEugYo3e+wRnSx0VCtQsS3mq0Uc3HgVbipZZyqaamnpsLnlrnwMnmZlVWsTQscB2f3NGN6FeDgF8NgrpDZclXR4LHEpuZhkmpmIP+yxgNmWI+Siqo7CL/taMjI40AXDCqroql4YDjoPVAvuxqoXrgawRJvw+d4LBU/DvG7DvFBMsESi350h8vJL9HR47US9Ak6aiKXiwNA1z7J7YvFtNi+H7rJnegAR4zdjjaTEUFOpt/Z4lwEoArIBFmIQDtn5n3mzMIxo7UFnAMUj9e+mACe7HUNXDtH9/WXfDPCkXEqP5DCxEDq1rZzUwWw7+zqJ2ABoPoo0qb6dNp8DFm+naEH+dVmtQIcCxddbOZmxXvxVKXwLV9fJswG0XubDGYlEnfxbJDvQOfOZTJZmZSL4lnZqqbU4tKEuAZQRPZ51P/UWspj0yUD4cpgFc2k1OoXUWqWOoKuLZbtgrAFvEP6bHuBg08pMw+aVdHQeNFM9FJXDR4YFOycH5AWO9F5t0c8Kk9TrjCTXjQBJODhmUHLhi9UOYqlpoHrvXmraJwWKoGISUsOXhy0IQCEp1vR6oYOg8WrUjZcvTRARR7raU+WXVigybJ9z3D8r13hJ9XliqWmgWu9eYtAq5lkA/ru6w/O3iUmVk4/h3soHUfx/l5lH+nb041DCKpHTNVUHk9UdQsm5gTB1wRsFVe4WzmZmpVLDUHXMtNW7yVYkQ1CNo2OCaAzqZ2Nu+BSiMYH4+xjgv9efSMgeAR7SwQFUBRXUGplrLGgJsYhbOZmyVXsdQEcC03bRYRxoVATfJEcJZMFQ0eY5p/hvHA03FCU6dI/y4ABU31MnJuBk3mfWYQJQDuaE34cFWkcJS5WXQVS9UD13zjZhEI+Rx/WZdDKsBiHBYJngBgPEZgxVWUTIHHwCnDzKJ2BnxoOHayAjLthbLfN/HAFRE4qS7gglFUFUvVAsdBE6t5foVfznH7SBGmZNHgMbALIKpPc/p3BWWLKhNjrJDmVcu5QINLNxkdagdq8fPokdoBLhl0E1rBFLuKpSqBa/pY32L+tM/JyWp3cMKRwC4WuqCvY9w0AgN7mRhElYnpiDOpYaXw55juvpkBEr0XCjODL9UBXM2blFHmprOKpeqA47AJVVuscoAxoEsZPKb2zooFXoyaZcvbqUomtVgw8m9ANIV1qB1o6YLRilWaFA8Ac+/EagZONjfJKpaqAk6GzeTAkcUqh5npA0cLqQU8q4sWL3/HtOoWE55A9JgeM9H8NYri/O2jFVW4NKCrSeDkIdQurGKpGuByN/R9BdGErXzgRQVd5F3OIuTJAhck8O+svhjotBETTiXPjUzOFZ5y9GhtABf+othBtqrvJCCAW8XuPWVlMS/OpflNOGx3CGWTWm9Y7N9gNzDr48xaoiEtowba+1AHuNa73/aYadYxx+eqy0qpZV1KPRcZ5mdyUwVGfB5zBX3s260aYavD0eMHAWFCgcvdsKknv6Qus56Yaajc4FkPNAZgosJMFixckuBJEz8Zc4NnfqY665tZvgAyGiiM4QWZU3tqYyBA7X3pMo3mlGATUchvmwcKhgenzaIoPM7Iw858vSEf+ekw+meTxXuy+qCawg5vMFBqVMIAp/r9WBjNZJKZqIZEmGRBmt9DSiMQyobW/F2lB4N0ZggU/z4ZcOYQpmSXa2fFA49Z/TsaPFQPSgM81ApD0IxK+OAp34upaYQQPGR2ftWG5sZ3N+MxhFopUU1wJtRrRdlYxly6wOH1m8TC8UvtPrEWsYsBXuHAjgJPe54BHlPNPrRLrPGJqrwZ4KjPZurnMmorMLDOQnf4q8E4+6RW6GwveABjo6Ph3/1D4/DC9pEy4FIs6WiBTt8PmAFXxFgWByQKvHhmph08tNU3soJFifavEONbmuDpAX9a8WwfxMgT/ZxpTTBnejNccGo7dHXkYD6HSzzpgtPai9ohz27IrzsgIBQwPvvKYejbN8ovRxNAVhqoLIu90FunlLSAUDf+5ybzsWSRr6jnl5JGQBgnWuURYX1GvyFGfXfiScyXQrQEj87nIF1wapunWgKyzo5cRXa2B9+GwxzEIx6EAZhJyGAJoIu+m+paXRtksntPKeqLlqpwS90KlZ6Zmb5/F0RbmG4dKvLJoszMMJ5i9+/mTGuGi8+cxBWrzbueqCHU89J5U/iF33jndO++J9Yf5PAN8etDkQpYEmyZD5eKwgl1645+bgKbH+O+V7wyMZRmC4ArsIKOD2SuE7TSlTIMVgaQXflHk/MmYg2MF7kJumrtoA/faHmgw8ZWuKKBy92wSVT//yrJKSt98KLNzDxwGlFIeBssokyMDLuZX1YAdsUfTfFMxVoewtxctfYArPr5YBGhE0zAIGYmZczREzsSQQY63DZHamYmZcZKBcKmmUnyJz1mflZnO8KS86fCtedNrZg/Vu5x4dwO7/LZ9x0H9z3bDyt693s+IIsFGBWmtdVSxj9+GtukvH6TSHQvRCwuFFWpwEqgcJGvpxwNa8kkhr7ZrW/v4qo2pSEOFqF2y7+/T/P1EtZIRihdpnD20W0qUTK1SxpYcUFjz9/51YuMiihSgRU0ZE5/V6Fod196bMOAFoxFC6Z6F+Hn3fD4Hk/xEvPB4nGZKZypcCxateJtPUw4bSOJ2iEbg+j+v/psBDqNIKJ8157f6ZmP9WI6FjsEbCt6uanJzU0PvFICKfKJFbOgSWzgyg9eEWYmG7csWWUDj0ngFcYlZ072VE0kqLNRGCKaKdRORDZLBS7ZNJ7GMykTmIvxEjDlyN8VZnyj/d3Ch8YNM1MA9uXL31B01Ue9j26+fb79Vyd6Uc0PP7JL8u+iAinU4/UfOCmrXeScXhPxOrfwahNzWBy3Ic40IAS5/nLJBVPh5x+blcEWY4iI5n/fMhuWXtiVbYxKK1y02sUPrESnEXxzxKV2yqwcFvk9ha/2AFe1S86aPCE7Zc2rQ6Gf9KJWlHzhaR3e9WyuLN3TW6rqYBLb7XPvOx56Tp/kqV0834406LOgSRIfLpmfVl7/zguaMLPbvy2NcPbMNvjR357kHTyVCDys2zHiASZMss3cH9qslVcxi4yPjY2H37drUhP0zJ3k/X32rLaqAFH8tj+7f7tjFgPSflwWNEkXOBqg8uXvckaU0r64x5ILOuGehceVdUcJoJ586RB8h18EaEq/IWZ6M4xujBICZ1OaS+dP4WbeJH59TEVOHrZxw+N7vUhmBtwEA1eK2iUBTyica3Jo8F5f/uAJcNWbjinbDnr4F4Peha7Qj2E1azfHx8Ziv8WiczvhKn4RAE7EEAnzDz+yO8YJMgOurMBVwsyUTUrKfxNn/6evmemZY+Uwqz6/ph/uX7M/gT/DYgI3nvj7CPDued8JE6J4wrQUJqa5HTLgKg5cOc1M04crPL9csA3wg+p+AdqzEmjoFFk7YaCamaUAl/f52uHH182uIugaC7iqKpdgVEesxK+jDlUzjXD2SW3wyu3dqcN21w/2wRvv7IM7f/C6f2DZ2ojp3y3697Jkm4UcL24fhhsf3zUh+/ccvq03Luv2rht1VGV9UrnzdwKyp6+dmepZfg33zTzQnhKgjWn9zjExXMWoYGyfau3AhO1bsc1/smRmw0JXtQWBdDNYVgSwuknVBj9OETahYh94cAe87QtbYfO+IypQ3o8QKjdO3M+k5pfafa6LEgAq5QJVAt3Ef58MuEjwEryOqTv6x9fOSg02oWoL7t4MT64/GB43KGlaqHDS90Dd54xRJcMc5nExoxrydAF00yblvO1hXMC8ZMDVgH8XPD1t2O7ipuPbPr/VTFTH6RbNkliIlpRGCeJ2yfxjqmKfetDZrA2COBeYGXBV5t8J2NIIkAgT8rIvb4dPf38vRK+NQJyfWYwTC2ir6ch3pmCBLe2ZXjX7U+wTAV2g/AjRFwrMWoGwJid1JfXv/vVDJ6QCm1Czt31+Czz50kHJUnTLCXP4XYwx4/VertD/gcxJVnHyJnJxc6qsBlPsm3/9yzeYNjlGKJ0NRAuE1TBqenJXnGlA113YBVctmFryZ4ki4rdyE9KLQMr2obSTjVVTw+8p12+qSxczZbY5o8o+Ux1XnVud1fxXLTgGXthxBO5bcyDaPwj+otboA6CbV6O9DWmmcCmZmefMbIXPvve4dGC7fwv0Hx4L1QeZdmY1VgMKLuOa2lkUirFEBwEWcTlnVjtcePqkqt2Pn114rLfPAlWif0jhQfU/rYO6rHK6Ck6g8tVNnwDdzOzqQPjJNTNSee8n1x+QqiPUVg/GDjVWOEb747oFFWFRlXparpZgiWs8/bczwiCK8wRiQJm/g4RQBnCC4au7xhwBeF/54PGpRSRvf+dxfmsFYuIrc7lYzOzIXKq5aKxbF/8yUcXLSYbYZw9efpwRjbRFTSgQ9RsygDb1qxR8ddkJ5/oLp8Kl89I9uB780ImK7cj8y7h/of+zrdYa/0IFVoqldWBovCb23yVnTfIaNVnBssFoea58Q4EPTOUDHb4MOPcQPTaWvXNa6u8r1OGqBZ3WY52qbpFNwagicephxnT/sLgRfI/7el+vmf14+9u7vH1pwOXyZ3UInQDSymdVvQw4enzlL48vWyX8p951nDe7uuBwaSajVm1S8PWY5mea9IQRS6beRxPOEoEWjDWvHIKH1vbXxH4U+/DLf3EcuZ2oC/nbowCMgq8M4NUVcAu5Gdkzt3wNf0T+6rowaYwSYExaerhgbsrrhpt+plojyZjl9aQp6jZP9e+T/5L5y02Pv+bNGKiFIZo3XcrNyzhlXlEQGoEW/aQk/WFTPRm8hgfOa2Dz3mPL/jlLLpxWSA2A+4zH7BEP43FMIa7iqsQI/hwYGoO339dXM9Ddfcl0blXk6OR3Agij4LOrXqZwlkBJp2fzlx/sJu7LdUn4uP8b9y9qTQojX20PSbqDJnFAkwHu96F7uAbMS7F+w5LzptIqFwFhqfDp5mamcJK6Lb1wasU+TzTm0VUu57zkTbxceLHll5h2ceXkgs/XTEn0L6AqcPAdg+f3D4/BX39tO9z11J6q379iVaK876zajFEQ2gCMgo8GD1TFa2TghClZyZYBc45tCfdYvGlsaJ/aVuRFnuajV7zkL0grIPqLafo37/r+bvjoI9urev+KdRzuvngakXPDSAideTcLfG7wSsOu5oETZuTiBZVdxUb0BSFm3jh9Ln03lRxmdi4ciXRuCXwQNWgf/kU//P1Tu6t6P1/xh1PyxQeukD8BIVVZEgVfLPAaFbhy5NyiRn4OnCVRTUQLUaqpRNJ3Y7HeL4w2giNgg0BHKcPZCOOh2SnPNL+LA7dmw6Gq3te3vrXTnnOz5t1iwFcEeA0JnDAjK61uYry4bdiqVRgZQ8SI2KUZpbT38VKnkruiaOibkq5vWAsqJ/a5AQjEzbtZ4EN6+0WB13DAicjkRIwn1g2qqmFBqYBDvLIs/VGkIGb0Kdp1DCBaIJXfhd/1H1zh1lV5uuCa86bGmnQalXej4NNPXOgAryGBq2RkUjYnH167X4PMHTUp/KkmuKnnohZVQcI8xTA6WrgtPx+pSbDGrN2Cieq5df5RVO1m5TVvPibepFPthOVOejtUz6F4DQWcMCUnopnpp7+3i4Am7nnP34vMPhWHOo1GNqamzCHpknMcLRhWyuTHwNBYVe/3zvYcfIiblpG5NwJAG3w6eHqAhDI1Gw64RQsqP7frIa5sD/1sf14fjKZG4xGoqfm1uBFIJIMiRkDS6TXKgRTDTJLMzWpqReAa7zmjI3HuzQWfWW2ighfHR65r4EQqoJw1k9S475m9cPXD2yx+FxI+kh6ltAU8bFFI2u9DkAGJWUspqXCYAGdEKIeJdedaawC4STB7WjM5qTRO7g1cqqfcZ/HxGg24hfMqN5FSRCTfumIj3PStnc7qEFJZyJhjxHDMWZUnD6AlvIkOqUMdXu3182e1wcXzjqmJY0BAF87q1ku8LAC6Jpy6IpNGcKUE4mqyiVAlzElRb3gjh+xh34SMhIbZm9tEvT4qIY6gk+b28+bP7ODwdMAcrlbCJ1u3Pb9Elrj2JqFqRJ8/dwoHbSpcsWAadHY01cQx8KE/mAz/76cHwGzdxMKJHNLNwhZE6WQDxDrvvjEQ3Gby6wMzs4TJiTUHnDAnRaOZco4n1w165qMZQCAWxWX6Ic9irqrMDDUMKrKCTnn5Eizq81D5HHGrc1ITXHnudLim53gPtHof805s9SpPtuwf1c55uu9VKAtXpi6iaTUwyWSUO8IxHdwSoiY1B1y5zUmhavc/s9etTiymucj0IAizKhuTdn5oJjFGgit8N/nMe+1bjodb3zWjZtQprfHu3+vwVc6MHjLpROiCz6Z6hsIR4DUEcBfO7Sjbe1/91W1hFNJq/jGWyFwMzRo0lc10s9AQTVlTc6BG1ITZ+KUrZnsmZCOO805ph3/5zwOGYRENHysoHKV6TDM1mXRCxNLaXWQKJwVHHlL8NTQDDDazUjcpHS6eMpvYiD4y5WzLUBVJJn2Pa7np+Jn3z4JGHkLhQDs5ySc5ZoWPUD3FZJR60cjvrfl3xYyailKWMxXw7CsHrYqlhppZyY0jmSXUr3S/Q/rjhNn4pSvmNDxsYcCHq1zcvFsAnxqJ9KeXUsXJKbdXqDmF6ymjOZkPkOg+VkzzkcUwK6GQRgh9A609upIXIhw9AdsPrjvdMyWzkR9vPqUNnusbVk9eDEjT3GZ2KqrnK57u41H+Xd0Dd3YZo5MXnj6Fb9ddBCJEhy0tShjXrEQdY7+9OSIzPpFpzrmIQmawmWPejFazaDwiAmkzOWXwmL9PQtAI/64BFK58JmUnWZfJaGhY1Ko2Lg9PSwdYWrzJrOdhe2MGm0Xh0JJ3iwWfBbzgpMqw8J662tW1Dyfyb+UsVj7bO5jt7ejCihJnb4RxiJpIqtc0UuuSy4s2iivhr2WwWU6U7TmY3dVMd1qGGBNOncXJqn/XUDO+K9GRS24/IPcGQaOkkVhkMcha6+9huGJSaFpeE06rhQz+Fjm2K889NiPLMU726irNHi5oW8QjBnhUYKWhZnyXM2DiNgeZU7NiJ8EtfhzaPECWD5LcdtFJGVER47zu9rDYGLUwpAFfTPBMtQMjmlnXPlxnmee+bX79iBM6A5w4CXDijKjP6A59CzQja3dfdnLNVo987b/6Yev+o+EPmz2txbuI33PWiW3pHhvthcUtle2N/omNMcU3NqpNohLeRlClAWopy10/eV9YzkVFJgv3xU2Ao6OmEqlqE20eq2g4e0UNm5KDQ+Pwf3+0V56QF5plne1N8OZTJ8FFZ0yBD/5B6bP2z5rRaqiRAh9KFTyMKQluHTwq4a3UVcaebFzjJmW5hjcr4Js74P5n9kSamsjimI7qdB1EGkd0NEoX9175x8fV9HYVQJEeL980g8Pj8P2XD8KSb+2CP/inPnhp50jJnxen0zI1uRQpS4TqaUL6dnXtw6WfEnho7T540z/+Du7v3a11LKYv8oo5+Q3PyAvZT0TrTwJhE3S1XR76yxmff/oxNQ3cvJPa826A5OiiP6tcvr21/ygsfHB7SdD9aXebczHFWOBRkUhMb+JpQyvci9uG4G0rXoW/enir77sRDhTZIUQ/mxKRSrD3DlFzRAhyhUmhFXn+zbrqoPJfQOda0y0YA1zxFn3ttZIVLmol0zjgOUFr5CZCxY4bv7XDUzW5dhKNqhF9KjXVfFV6juGrqcltemUctTkD1uG2nucFRwpqFjhIiJrpxv/ZOnAUvv6rAyXblNY1vOOAB3ofGLqRUN2blGkETDbvO5I3HxVfjUmwudZfA0uPEUciHBnICTw5cc7A3bekXoaISBbWQCh4r+rfEP79fN9Q8YGTE1rs3bjigkepHaRrVtZElLLUCpO8CbkR+odGy/clqeAItYywrZRLe4P+w6N1gp1mgKOkEqgqxtb+0RLgzpGfQxYiB+dKCTw9qsmCaCYW3qOhSrtKiULmYRurLGy0p2fch5ZnBH1I6oY3tJt/4DC9438MRi5BFb+yhFa7bDGPGOMm7rP1V7y5KTrVLY7ftm7b4Zrf9gPDY9Fgob7kb+mhk3zFiX1dgPiVJeA2MTPgzPHEuoOVsphIUxItsIFD/8TL1/xusOa3fRjqR1NVEM0ARZDALnY/qJHJAD4LeBAv12aDLgPOalKOT4C3En0mRAdsYgyK9nY1rHJC3X668ZB7HW7tJCQqUFLZ9iR4aCpZRFBEATMl6OoeODXC6UoKubciI+HQ83CoSZk/xxuDFkFyqyA7bMFLv9C7q2a3+5ee22eqG6UmhClXksKBKzKJhnohlXezmZiIjWFSlqJSt190Qlm+k562s6mbvSls9G777ov7Ycu+kZqD7aWdw/CZH+8xfDdrMMX/+0+7i68mOjA8bl/rzWJq6udbl4mpQ1fXwL2w/UjRr71k/lRY8pZK1CXGW0AsrrqJa9Fn5W8e3lRzpuRVD22hYhkF9UDTlxL/TG0v/nD8n91HzaBMBHiymWl8H0KV04CuISpN7nn/Sd4lbXXDJOrmSJpSsAXjP145AJd/aUPVLyMVjEUPbfXqI/Ve/zZpk83sM2e0lXS6oyacAthvy2am7ttFQZcBFzGEyv3iE6f7rRSKCYFEORCEP6jZUyxqXSmkUGTwnRf3we/d/iLc8s0tVR1IWfLYdnh+0yFNyQtgFXwgVNIB4u5SYNMDMOTkUouvhhR0UD7oamY+XO+G4ZJnDAjYfvGJN3qzBO783i7Y/Hpy/4gR52kqMMBiVZ5goTuUBfOgAmJgaBS+0PuadxHPmXNsm3eRx7yZk6BzUjOcP/cYmD9rUkUnry55bBs8+l/9/iozmp+EjnOTf10KcD/bMmJtRx5rzhvLB8CCmQxBx7RwnQfleQ3UJi+tcdW5072LAO+u770mzfYu0XdL+DAJLx2WUUWT/yOCKWpABWHNKweU93nP/Gnwtz0nlH2qzxefe53DNkDakM4kv6TqZ84otV42PyHYCR7RfcucaIrK2g026OrepCwlcOIC73fLz4DHPnoKXHJ2J0RNy2GE3wFECJlpD9h8PTIdITUkYoHpRSSJgVJC7TP+ff1+ePf9v4FH1u4t2355fuMhuPW7Ow1fybaEMlpUrhTgfr37qB/u16Y86YXMhJmpRyZ1v85lXtY1cANlTGBfMr/Tg+53nz4Dbn/3DMNUi7Gob+K9wCIUgKxMsXwG859syx/9n0c2cTU8UoZ9ko9IuqYhUb/RKOXi138yp/gmUYMj6gz7KPDATJUmhq7ugevdUP5i3jnHtsJtF83wwHvso6f6qpcslGLz3bCUmIzrZUQkhvIxvrt+f1lMSVERgw64XIWUwZ/v/F+TS/oea4UPR659roLnAi0xdPXuw/Xtq+x0FQGbuAj/7uG1r8P9P9ltFEEzcBSpyAsn6g+4iphRTxOgNulVhU3vGkz7Sgizp7elvo0e/a/99MlAq500TgJak8g/6S6tBeL2wVEVGmPVG/TmIMrLTSkr5VgCIy6fru4VTgBXybpIVfVOhN/eeRYsecsbnGrDIkyptOMxJGyW14jIZZpj6/4j3gUJiKw1k5o/Gph77yhB4QZHxmHb4JjR6NVMeEtqh3afMq7S1T1webNyeMI+W/QY+afLZsEPr39jcf1GkHb5MA5EivzlL4zlAMLcllbGoZV2fGjBcamnCLbsP+orBNNyHsFMzkLDIOMglQ7qM09ohVldxRtaa7ccof00S1AEHSZmIugaAbgXyxCpTDouOH2Kp3ZhAt1iTqIU10xtMLv0oaOM5d3zusqzMSwdsqgpS2p8t2Aqf+Ds0vpSvrznqCqksbpvFQtd6aPGFK46ZkELtfjGR0+Dzkk52kcDLUaP1OGXUN2YuoSBd0DkILKTVGdHM7xnfvrADQ6PKT9OURJ5EUmkUi2FA/wdpQZMto6YMwAA3FNvioFOU7nMpJwA3+6BK7udrhdlSpXsvkVNEdH4L1fS+3v/M2iAJgd6yNaCWpMfAVsp5qQYP982QqqrK++WFDoVPmycJYfFWL2+emoJL+bKIUqooqmjHlYPU+afphWfLJxfJ8+pI2ZMO0idN7M8i6B8nwOnNgVSaULEQrDC/8IFFUJf3aaU9B2e9k7Alqp/R94tKXRm/q2BZgs8u6G6mutcYphrSIeyIieGRcscaUL6dia1tgiWSeFEOqBgUoK1N53Voubj5K4WuOzs0r7b2m0jatM9tHQIKxY6Cr5Ga7FQTQonhr5QIhL6pS+fY/TzipmXs5mP1vUlMF/QnPa4+0e7pLAfapUjSJ5T9Pjp1Qs6S/4ePxYKZ1SKOOa4JYQuUvEaATiRj3uhCqKVwSALn+VOOUBdogMo5lvamsdqHZy1RSzSTgd86bm9/nw3uh2SPmOaMnvFRNPLUohObh8cc04uBSoIFRc6lw/eaD1NVv38QPUAF6cFArWCKgLZ6NBQN1szREndME4D/xSGSHR/5undJlzEbTLW40Nx9R93lTS7W4xv/89he9s7Se2SQqckx1NWt5oFrlrMSlG8+/DP9hkROpdmIUA6/dYIqNAImKRrToo5b4rvFvUr0MzLCdA+sqD0NMWPXx1Wt6clGpkUOnQ0oEyjnrImgRNmZTWkCD7/zG6/9UFUvXyU7DHHwSuZi1LU0mvHLdVKIYJhuna2p1cqe/fTu+D5jQelXxlMVtIqTfwkHCIzQvTicsMFx5asbgK2HQfG3Lm3UqADcJuWjQZcNZiVYnEQ9yKORMQjYdcGSwgitsKs356OJSDmvH3mR7uUol0EoqMr1XRVep9ZnS3wkXPTUzdd1UuBTicMKdMSGrgv5cqfH5yQYuZg/P33dhampijdqKQ4PdPmafmr6gTr55AHJmozbvgNoWwoqZqcswv+y+fsVDdxYLj0xkNCwRet6gNdQBkx1UaeioREOOWeS2eU/H0OjIzD6pcPR3RKTg4dnXNL0Ju+3oETY8WzE9MOXKhb4LuxqH7LGLWsh10QyVfYuvGhZS5eibAt/OKr3olFPusbHYqV4Ii2WIAfpr/snKnwx3NKT8I//MJh+/dICF1kzg3cjzcccPc+OzBh6hZro1tXjsGYJ031iGAxXqObPOtLWIXntu/sgJd2DFtz+OpPRM3cxFD1hc+27O3Hp7LtH3rhkAQ/WjslRwdGYsymT2sFj3oBTpiUwrSs5NAjk0kjicxYLsY+tSZ+Laa8CKT61GI7Ny/5xlZ49Jf7/a+lLaLI1KbtSmdXNJsICVOy1ECJGE+8PAQHR8a1OW/29hJ26NCYGKs8HqVyjQqcGMuf2l/RzyvAJh3kxs5AslqdXJeJms6iL4ga+RyU2tPpgZPkCvfF5/Z4sDljPkSIUF5xObj7I+dOg7eXWDMZjH8WgTJyFgBKfnJ0YASdtrkjRNmoiW95iBRBJVXu8727Dd9Nn0ZDOhgA6krEQANSYNJWUaIuc8w0U1Nn87kNyaK5j/5yH9z25A5TQIkDTkl8Y2FpZvS//xkz2mDZO9IxJYW67QhmdlvnuCGZl7T5XliMD9foCifGDd9+vSIRy3XbhvKlXEgFKYi4OGkqQlRYhHg/34ALgA0+P8Z8uPU7DieC7dqvbw27gIWnBX4zR/WVU7w3VACY2t4ED/zFzFS2u4hMfua5QfcCHNZ1AFxQxVsPAlIMRtUFcAK2SkQsRTOh2LDE2SuuiQJYiFoyw7aMcfH9qYHhcfj3l/pjwwYg120WUhmyGS0nvNGUOu/PbyyaDbO6WlLZ7l998bAHHYB96g1lXjq3N6pRSxJItBeaNzRwQcSy3J29vrNuEKKaxRp71KijlO1K3VmLqFexiSUzF46XX/Iva/ZEw/boVtLcCo48i6dK+kf3XHqiZ06mMURFySPrDsXOtZFFyHHrImPMlGr4oImscsK0LNcQuTdXS3SqDyMmlTXqKRJMRqdn/l8OLA10pNc/98oBDt1u42O27D8CV67cBNc8uiVMxSNVLM2I1pJBAl4iTSTo71l4InzgnM7Utvvd3JQ8ODJOx2qcPlr8hBnGmL+XVn1XXa0tIIqa01j0gxprXjlIUMHc6wFQOy4MmDAzHkHNKCb2MQOtNyK6fI389/zk6m3ctByA8+Ye490j0gX/9sv9hgnrNJTl6eaBvSu95p73pgvbL3ccgWc2jeQjsAyUkwJjym5Q1wEg+kui1I/SfB7RP1R+D/3RbDGPwvjw1/bAr26eCV0d6Yq3CJjQFDHHbYtNwVRgWZTYoQNpdDGqysFzrx6E5189KHGtlzphoQ5ZkhBE2imSyyg/u/CkVGE7MMJg2U8GtIat+a2lgASFhTrMXRNjf0TtUuKhhg+ayEP4ceXIzQmTMnJCAEaFtOjkHJpN5JSdbu1dgmqym9ZCFvk+iBSxaFlApJCcCx777Ps4bL/fmer2/uIvD8LOA2NEe3K0VoxEhvUdFSYYJ9WWLchoC6AMpj5n7oErZsOV5063HszOYx0dYRFbxsDRZ7Lg08mTZWwBFlTWbDMXwUYFIkZ+L1Rzff70m6kdTfDgB09OVdnE6O3j5u76Qxpo7ppUO0xojWmhYXpbnoPpUVe3K6AK0zLN3JxoVfAlDt2tF82gnRvU5jyjloMLzDMp8W2fASdZnajei/4bYExuyUNK7iYMcms7ix/HmBH+P7mrFR77yBx4x++l26TowBEGdzwzYAZINACiwv8lJa2xLOJW38AJ2N7y+Z2pv+9t75oBP7hurtdgNfHewhgmqPXdpAQ4Us0N0Ap6aHXKyXr//oKq+SCHBzGz/oY/6Z4MP7zmVDhzRvrBqb95ch8cPDJOTr2xCRcmoMrVrhyxKBYz4IIhmg197PE9qb+v1+58+RneNSlPznCfXIMpJ5IJwXQasP7Mu4iYADIi34dyQpuRvVVACZ4U9PDGP3sDfPPqbq+SJO3xT88NwCuvH9V8S9f5CaPPaxFzaiLd7pRHXQMnxopn98NDa/tTf19hYv7gutPhM++fpS7uoc/Uxngun3qapWYOoNFslRQ521ElVVTIhc+otSqnC7ARzjyxHX507WkcuOPLsp+e+PUheGTdQeuqpIlnXsdp/INWo7tsgZO6B05soau/ug1e3FaeHijX9hwPL99xBlw8vxOoPiVmRANjfmtz1oA8q1qJFMY4qJgFQqYt5cTCLtD5J4m+KDf9+Rvg6WvnetCVY/xmzxG4/YevQw5z4Vw6ZyqSWkM8hlmJpR1GmcLFGcz/iW+9b1PZoBNq9+hfnQJPccU7X5iZ6Dg9uvpVonXZGbKazBmEk8P9iGoURlfJAGBUpxVd/ofT4Oklc+HGP39D2faPgO0j39zlfWAuh84W4xhDclI3BzHd96x/4Pz+4GL1UgGdvoppmuP8uVPgqSWnwxc/NAdmT2+1OAoJe0gmqGJ321W2RJP5Jm8+dTI8/tenworLZsLJ01rKtr1EQbKA7eBIPuoqgFNmkJep3Wbpy08V/wbcpy5u/VS8fhOrFeiaxo/wH5p3xs+e1Q5PX3dKcYsqJhzfXTcAX3h2N/zHhoMWL4EpPOrz2vInDNnE9OOJSHeUYmDpr+gfvDkwozNyvOTyP5rGVW06/Ompk8u+bQRsH37sNfjtnqPemgnNLc3Q0tpcaIQUlHIFy3QFEVXpOpzDEGwX23OksjD6MZA+Ryq5Mx4rvHbzJ2ZiBpz1R45x6ArmZCWhE2Pd9iH459498N31A/lOWsrMgfghar2jlHVpX+1OpJYC9nNZs7mCXf6m6Z75ePK01opsDwHb4m9w2PYeCdcCaGtvhVxTzgocddBnwFXxaB47DPKyuGfP7ICnl1YOulD1OHTfXd/vqd9A2A0rGjgq1I3ETGzbQhqyWSt+80VndsJFZ02Fd53ZWdHfL2Bb9PWdnrIJyc3xHyou7ZPaVN2Pq3AWmMjnKJBGAMfAAC8DLomzyk3K3PgRxZzram/i0J3qKd5EDGFqCvie49eF3iNozw2hS/HcET0xS+C806Z4/tmbT5syIb/3N7tH4KpHd8LBI9xny/nlZhy61tYWaGlpIpSFKYDYQWHxnpMBV9l4ZfPYkKJy4n9xtp9I6OQhwBPmp5inJgDcsu+Id0kCnAjWzOGm4VlcwWfza7Eg40QBJo+XBWz/tjNfRRK2Z895gRKhbihV6TNp/yhQkKCwSIisahkHOOm5hfsYB25WBlwxKhfsrQevnAVXnTutar/7cxsOOgNk51UBVLbx+PoD8Mnv7fbs5Jy0GqoAr7WtxQuYoAwaARlYQWGREAXAud/HDpz5PdgLHLjfL8q1gQYa49jCd/IoP8uMgx7fu/rhfHL8nvefWJXf/by5U2pym9/19F5Y9csBvwmRHknNQXNzE4Dc+l2btaDrAQmUGfiNuiv5c9Qn9BV90ocGG+PYBkR3Hm/c98xeeNM/vlLWXF2jjMHhcbj4wa2w8hf9ljmdXN3aW0J1Ci8W2GhDjNnZkKB0QcQc7+f4yGcz4OJ6cvysOp5rBVsMUKjcGz/1W3hy3WBGTZHjR789CBd+YRP8eteI9cBt4aZkDonFFIg1y53mov54PLLUmyyxIvZmwCVSuWYNOnUTi3D9Bx7og5u+tSNTu4SqducP98DffHOn97d6MvNX92HIfbYWz5RkUjCCUjgrbFG2o+sh15xhFk0cf6hvyydPfiEDLil0OW7O5AgXVpozdn/vXljwjxtgzSuHMpoixs82H4Z3P7AZ/nXtfsNXk0WmuaXJqyjRVvMyDnz5cQM2Kl1AMccSdzSxSp3056pS3jLXyAfJWK6Nw9UErr6SopfJ2+/bCP+bH0yb9x3JyNLGtv6j8Ndf3wGXr9rm/S1n7OWooziJNTU1QWtbq6Fg+kWxLlk0bG51s5iThmnK7GKpPrSylO3V3OgHzFhTGzSNDUuRS3r5iifXDcCaDQfh2p7jYAm/dFa4QqUazccHf7YfHly7z+uwJXe0yl+rsxFE2VZrR6vKACZUFwtspMoxQvVimJMRirhyyydn9ZWy3RoqD+fau15SPOzdwYi6w8LuEMnyu993ElxZxXm7co7HXhiAO57a7UEXzujxK/0RUVpOys+35XIwaXK7lwaI286fGSLFTF/L5eNZqkv018jJ7MgADYNTNvvAFc1NBlywIcY9pQsa9di72xV+dvexrXDbu06AKxY0Bnjf+NUAfI77tVu56RiuzYYaZNIiiegvi9zBYfMKk0GaM4GxzoMA2vLMLthUUOwVI5Q5GVXUzMe9mz8x64bCZ2fApQTdkKdwinMr1R1Ry4WJprPC1Lz2wvozNQeHx+CB/9wHX/7P/d7fQYcvDHtEyosbBtOAfOhyPmxc4TCyExYSnh9t9kXDpkIUBZ5rhoB/LXp0nMKB68+AS3nk2Cjkxoe1he4LBwMaZmZwM//YFdzMfM+8Trh43tSa3g5P/foAPPWbA1zV+kFZMRSkWdk5AjgAvzAZoK2jDZpbm63rssUy9i0BjyjYrHm6CHWzmJxv4bD1qt8rA66M0MmtBxhhZqrQiTFneiu8Z/5Uz9ycP7OjJn73SzuH4ev/3Q9PvXwAtu0/arQ4D9eI8+U/VDKpD0ngx7VNaoOWluZIyKj7XekCF3ixYUumbss5bHeY36XywC3mV4v4pafuTEtxTI2P8MuoZEYyFTDCr0Op2av8nG4BH1e88+dO9q6raXyfK9lPNx3i14OwVUAWBjxykpKj1ohVVTWUe13yv1taWjx1A0s35CRl9lR5VlLY7OC51Y3/s7LvE7M+TMNfaeCCrbx0Y48P3uK6Ac7/p4lDh1zt5MwSDZy/i+S+98yigggeeOIy76QO77pSfp+Ybf7TjYfhpR3D8PzGQ/zvQ0pDIrmPSLi4h25KSuSFbc+lGx5s/mRS+7aC6FClrdyKmbcjYaODIFGRSStsEwtcMJZu7PahWyriCPUAnLjOjQ9xE3Nc3mLUQprG2Vvx9Zj+HHWBjdnHtnom6Hmn5eELTFBxu5jx/Kt5kNbvGILBoXEO10FPvbaIxLS2SIexL8PeJ6j+pqD/CQFc8FiuuQk6JncYDYBirsLl5o7R9yWCzWFKauCt7Pu4HbbqAE6FT4C3TFhTtWxWBqakmhin2h8w4zEyuMKY0hff/n6mKsyb2e7BSAEuaj/X7xhWFIl8f1R9L9lklD8bc+oXCAMjcjNZWQH9KpL2Se1ewETSxNj9JWMrnA6aoVrRsIF9blw/v76Bw7YyOphTTcAVwOvxFW9hLQJXAI9DNzok+WoWQBjTDkgKKmb074pq6Y02swwtDYNs70Us9aRAp3TVI4CTnxMktf3ntk+ZlO8rCebiksUqnL1Ky50ELxI2UZD84U0fnxWrMLk6gVPNzaW+yVkT5qa+WkuOb6ec36IBtapc4wBjYFSnWM/2GB1UsMMb3ckLFbk2PxeJN0QN3LxqqYqV821PD7ZJHV5i2/U9je+WkDgXaEXBVng7T9U23RKtarUDXAG8LsnP664l4PKRujHICaUjcnDUGd3w9ZBZ/RpXgEHf1i543bfzf+WQUFjUzEpbSgDVyGU799mE74YxTWQrgFbWGKFwYAfPCpvht/Xxf5fzv1dz2BIvPlEbwKnwLfTB66kNszL/h0gVoPDpyINKLdtFqwklmZV6uoFUPSTgjQFc8F4aTIX3R1UZkWgki0AnvUU/ko72Qq4thjLb4XOTF1V1YgQ/HLDx0cv/XLHxllmrSzk2ag841dxcBlWYVkDUD1Lfbxn3mxGx/EqgUepDqpv0RCzSnLTDh7HhQ8LppBROPul4sLW1QUtri/qdLeH/uOuuxeo9UkS6wH+NMBmXv3pzadX+tQ+cam5eD/mcXlWYm+Sqm2G6YISDN2pGKa3ARZugcRPF0VFNNF+L5n1KgER7zxwadnPeb+OjmYMm1M0a0Clx0cMoyOKB5t3o468VE0bv5aClumZZ7QOnwrcYqqSKBfVVaiTzziv/EiamPBlMO+jDRaBihP4jgyiIJQOpryegRjfRMKXl+8Slqbm5ABtiLB8yqRUZK45CzV8rwNbL/1q14aZkgZDGBa4AXg9McBWLuSCgXNbEIDc67AVTzAAcmtFAqQ4zESRENNEdZLFHKsnEvLZUlrzKlQyciES2TepQzVLdNLZBViR8zBm1NEATgHHQZvaW+7ioT+BUPy+IblY0reAyK4OqkTx0WmJcXkiRqMNMlD9LEIkkQ/HaB6PFtNTTBzJMBmxIQY7JFC5B4tsGnz91ZoWAjYPWV6njor6BM83NilaxuMzKPFzj0DQ6bFewUOWYxRTE6ACJQxXjJcPRAFSJoiKhytJ0m9aODm9emx4kob8TOhUursq5WlGyfDPW5RyylRNxGDYOcKq5WZEqFipaqdQSenePQ+6oD50TDpaCb+Yum3KWdwUJa7CszYioBHIEbG0cNmzKFZGsd6xOWgRx/k0Rzl9RCbMxA85ubpa1iiXarPSDKGwMUCidETxhBrSJTUfDDDQVy10wjM7vYEYq858gAiS55mZrNDLO1Bt0JN8wnrL1+/7ZikqajRlwbvDKWsViJMGV4In0mJcYH7EGOtSUQEzAyHXfMF7ghTrg0Ux0y+ZyMFra26C5uYWEOmkqw/49nfNz+gr+Wbph/Qy4dOFLvYrFZVbqFRo4diQPnnFQRhQ/23y5OJHNiGglqhPfpBOANKQ1tr3uyG2thddGFVPbcm+YPDIJ+VbiK169ubRqkAy4iTE3U6liQUpxiOr74DrHoYMAOiMRzhyrlqKjOJm6jXbgDJOSAZmu0PxJkWtrbmszAjuYQJnjRCaJx4XZmFo1SAbcxJqbJVexxFE5+Tk4OuKtL24ERqx9L+2f5fTNIkxKY+6bRQ3FY7mmJmjmfptTKeOCF0/hBFxeNcjGW6rLbMyASwe+xVBkFYszeAJUkpz50I2TimY/WOn3jRNoiVXXiOZ0m/zE0xz329qVAAodIMEYJ4LICae9/OaqjbeUrxokA666wOuBIqpYqMoTQ920BkPoJcYds8I1kA3lIo5etADmAhnRdMTkLskt7R3hjG1rO0BnYt0On3RTALZq08fVtnMZcPUOnOrnLYaYVSzJVU6McciNjoDcfV9/njWAQkGHAMRNzWylDnY02i0EKYFmoWy5XLyACOV3WuxG/y6xKqMXbez7ePX7ZxlwlTU3I6tY3PWVFn+Pm5Vejs4StEhsHpIVH2jxu9Qvr8Pb0taRhy1GJDI6/K+8v4BL9HVcWW+HSgZc+uamtYrFGTxxQSeiluNHDRBsJVxUH35rItxZXaJ/RsFcbWpt9aKSVAFy/F4qxn2r+a0VWz5Z22ZjBtzEmJtkFYvLl3PClxg6e0WJS/HI/iaaOdnMYcs1NWufj8U2MfKqQfj7cNBO7qv3QyMDrrzgGVUsRasc5BPjEKYLiAQ09d6QEABE5wRQAZpQt8iq/+gEd5/wz/jtlVv/7uT+RjkkMuAqB19YxZJY5WTAhMqNjxEBFpePZg/eELyq0EnPCWGzKCxqL7IkvIW5uGL7rSevbsTDIANuAsxNvgm8Kpa41SdG3stTunHTb0MLWJaqEgM6BLo7tL84YlNrG50Aj6d2IgCyfMdt9W82ZsBV4cDr81UsKHJ6CN1JTEsgoIvOudFBlGjo0Mux5QRs6Ihm0nk3Dhd61SA7b28cszEDrspH7oaNiz3wAHuQqiyxQTc6YlVCM4himogYWUeZf1JTa3thUmm8FIAwG1e99qnZK7O9mwFXtaPphk09/GhdhH4VC5XkNqpRxo6CvDqPayZAnOfopVg57rOJJaii1M2/EoCt2rVsdm+2NzPgamY0f2xTt/Dx+BG8FP20gk3l8tAdcQJlNP4Bd3QzuMq1tPJ/ctYIpv85Xm8Q/vfK3ctm92V7LwOupkfLjd4Cll4Vi9W0FI2IhNJRJmQUdLbJpy0tnLUm4vUhdAKu5XuXZ2ZjBlx9gif8u7CKxYhwilSBaDCr5+ciyr/ISpOm5nxim04xrOYvWvH68sxszIBrgNF6k2duCsVbyDdlVwE+zHd05uBZgyhA11GqK95wE1K0R1Bf348eaLB836fnZGZjBlxDgteFvp/nmZsBdMK0FAXPtpIuA0ApGCI6bDW1KEXEKHqDcP9s/51zsrB+Blw2xGi7edNCDHqxBNDJkUsXdLJZ2tQagComea7o//s5q7OtmwGXDctov3nTOSDAQ1zslYCxmNCJxHaTMCNRBEBWDP7DnBeyrZkBl4244N3Sx307dj2OjS7i193OBDdiHzY1r+LX9x74h+7MbMyAy0Ypo+PG3y3mV5fyzb5QU7fV/OqJg3e/cWW2laofuP8vwABOCiQcPedxcAAAAABJRU5ErkJggg==;" parent="UfDb-DqNH3yCvx82YPJ2-27" vertex="1">
          <mxGeometry x="210" y="10" width="70" height="70" as="geometry" />
        </mxCell>
        <mxCell id="UfDb-DqNH3yCvx82YPJ2-29" value="" style="group" parent="1" vertex="1" connectable="0">
          <mxGeometry x="610" y="390" width="340" height="90" as="geometry" />
        </mxCell>
        <mxCell id="UfDb-DqNH3yCvx82YPJ2-12" value="&amp;nbsp; &amp;nbsp; &amp;nbsp; &amp;nbsp; &amp;nbsp; 数据互操作模块/FME" style="rounded=1;whiteSpace=wrap;html=1;fontSize=22;align=center;" parent="UfDb-DqNH3yCvx82YPJ2-29" vertex="1">
          <mxGeometry width="340" height="90" as="geometry" />
        </mxCell>
        <mxCell id="UfDb-DqNH3yCvx82YPJ2-28" value="" style="shape=image;verticalLabelPosition=bottom;labelBackgroundColor=default;verticalAlign=top;aspect=fixed;imageAspect=0;image=data:image/png,iVBORw0KGgoAAAANSUhEUgAAAIAAAACACAYAAADDPmHLAAAACXBIWXMAAA7EAAAOxAGVKw4bAAAgAElEQVR42uydd5wV5dXHv88zc+f27WxjWXZh6Sp2QLBgV+xi78YEsQQ1FiDVFNeYmGRj3phVo4lRLChgAyyABrErVaV3FraX2+fOzPP+MRdYBRR0LVEOn3Wv996ZfWbO7znnd87zzDmwV/bKXtkre2Wv7JW9slf2yl7ZK3tlr+yVvbJXvhcivk8XO2HcmN8BlwIvAz+orqlVnT47CJgEJIFTq2tq138f7on+HVTyeOAQ4JfVNbVLOr1fDkzIgP6KDAge63TovUDfzOu/Aad1OlYDfgXsA1xbXVNbtxcA307lDwGqM/97FJDf6eM6oCXzXhqY86nDV2SAA/DRpz67A7g187ocOGgvAL55ZQeqa2rjn3p7WKfXns4fVNfUWhPGjTkUuAV4tLqmdsunjr0CWAU0ZSxAZ+n8d7J3MhYDMKpraqN7OcBXr3gDWAAMAF6trqkd2ekzAfwFGAH8tbqm9t9d9Dd9GX5QBIytrqld1OmzS4B/AF5gXHVN7f/tBcBXC4BhwBud3sqrrqlt/axjlJ0WoAxQABpKCQQSVKfrFwqFgxAKsN1bI0yhedTnjGcKcGbmf9+rrqk9ZK8L+GolCrQCuRm/3b6jwk0DHA/K1lGWFyeqoRwDlALlQeEBZWYmgAQcQIHQEdgg0iAEQpoq3a4QegKhWSDTQjPMT/25J4AzMud6Z68L6NrZflFGwdOra2qdTu/nAcMzM27zNqUrxwumH8fyoGwDZXnA8oEjUcrjWgDHAGyU0jMWQLn3QSiEsAANpOm+JdIgHdCTCN1CaCmkngYjgZCprWCYMG7MkUBLdU3t4k+Nvw9wEvBOdU3tW3sBsOfh3FZG/3B1Te1lOzfvKR8qHUKZBo7tR5k+sAIoS0NZugsEWwOlo5REORooDZTjKht7+28hQdgIaSOEA8JCaDZCsxB6GqFboMcQRgqpxxGeNMITFZo3uZPx5wGbAF+GWHavrqk197qA3ZehnV732YniAyjThx0N4JhZYBooy4djGijLj2MbYBnKsTxKOZrrEhzA0UBJF/xKZMy/BKEybsACqRBSgbSEkJaQugV6CqmZCD2ANFIoPQGGiTQCyopEEUZSaN7O0UL3jPIBCoA8YMteAOy+PAocChjAA5+c8WYIOxrESYXADOCYPhzTj2N5lTINpSwfyvKgLNcNKMeDcgTYumvxlXBnvcqYfxQIkbECyn1LsxDSUUJaytHTCN3E0dNC6EkhDBOpm0gjDkYAxwgjvfEMECIZi7AEmJXJLby8k7BzrwvYE1F2WqDSWTjJbJxUAFI+nFSWq3gz4DjbLIAPZflQaQ9YuksEbQNsDeW4zF85nS3A9igAFEI6Lh+QNmgOQkshNBt0G+ExEXoSaSQRelxKw0QaSaSRQHpj4E0gvVGkrx3h6fi8CGKvBdjuL28BRgLTqmtq79upn3fiWTipMCoZchWf8uGkQo5j+nFSXpQZwEl7XVdg+3FMD8rScGwPZHiAciQ4ElQmIkTbxgHBdn8JQDouHdDSoJlIzULoFtJIIXQLx5NAekKOY8SQhimlN4lM+5DpGKR9KNuLNLzKTnV8mh9MGDemeyZXEQR+/U2TQ/1boPw+wO8zd37khHFj/lNdU5vYrvxEGCeWhZ3MQaWCOIkQdirkOMkgTiqAMv04KQNlZl6nDRzLQJkZN2DrLiG0JaitVkBuZ/9bXcC2aMDJWAHbJYC6jaO5LkAYaaSeQnr8KCOBMLwor+k4ZgJpeqRM+9DSUaStobwesD3KTnQIzR/pdMm/BkZnXgcyKevvtQXQO7kiPcPIXeVbsWzsWDZOIgcnGcZJhpWdCCknFcRJ+nFSIVRqqwXwYZsBlOnBsQ2U6XXdwDYA6KAkSmnb9Q0uGISz3SMKEMJ2gaBZCN0GLWP+jQwRNNJoRgxhBFBmEuH1odKGo6y4UGlDaLYXaXnBlihHU1ZMCj24NV+h9rqATlJdU/txZpl2JDCluqY2qmxTQ6VyseNZqHgWdiIXOxlynEQIJxHGTvkhGcJJBXCSXmwzgJPyuaGg6QXLcF9vtQBpFwCu8hU4Ogq1AwcQCJD2NhAIzUZ4bISWRmYsgKOnkEYax/AhvUk00zX/pD0oy6tU2quUrUtpa2i2Bxw/SunKihgIb8vEm67/Rcb8B4Hf7SWBO5I9HZXMwk4U4MSzceJZ2ImQYyezcOIhnGQQlQxiZ1yAnfShUr4MALwo05txAR4cS0elvShLoGxdKeVygO0ksNNsFGI7CZSOEMLJuAAH4TGRuuX+9rhAEEYS6U0hvDE0XwrpjSN9CaQvhvRFkIGo1HxRNH87WiCCCLSj+ZsQvg6heay9FmCnyje1jPJzcWJ5OPGgsuI5yklkYSdCqEQAJ5GFnQpgJ9xZ7yQDqKQvwwU82KbfVX5aV8oy3NlvaeDorvJtMq5AbLfIYisGlGsJNEchHZAuBxAeWwjdRHrSCMNCM5JIr9c1/2kPyoojTQ+arYPlAduDcqSDbQjlSIHSkcpNNmmgbLNdaIb9KS4kMxbR+U5bgAnjxvwVGIO79Dq0uqa2Y7vPjxRgJ/Jc5cfCyoqHlZ3IxUkEMtYghJ0KucpPBN2Zn3A5gJ3yolIGjulTjulBpV1luNGARDk6OCJDBnEJoXK2kUCRyQIiQGhOJhm0lf3boKcRHltII+VyAa+F5k0gvSmkP4HwJpG+GFogjuaNIgNRZCCG9EeE5m8TeqAdGYwgg81o/jahhxs73ZNfAROBNuDs6praud9lC3BZJrkzABhFZleOS/jiWRlFB13lx3OxExkeEA9ix7Ndn58IoBJhnJQXJxHAThk4Sa9yyaAnwwU8KEvHMTP+35Yoy40AlNMJ/KrzPFAIiUsAdQehuURQGg5CTyONtFKGB2EYQpkmKq2jpV2eIdMelC1cK2N50JTIgAyVcTVCFwIhbGxhKytmdiKGl+HuX+gGnAd8pwGwGtg/k4O3toV6diwbFc/CiWcpK56j7ETOduXHQtjxLOxEECcRxIn7cZJ+7KQfJ+FXTsrASfoyFsDASXlwTN0lgabm3n/1GdZObbeILjiku2lIKITwIgwbqaeRhoX0GkjDVCptotK6UGkP0tbQLB1pS5dgOoltGUcts/SEECCUQFhowsERlrITTiZEXAZUZAby5HedA1yUyfO/XV1T+6Gb5Ill4SRyXLafCCknkYWTCHxS+fFQxhUEsOOh9g+25AtpGuH+Oq7iky4IXABoOJb22UrfLVYi3BXkpI4jNGTKQZoW0vAg0zrK0pVjmamGuDeywpTdjimvh62rjJ1CTQ2JI1BC2MLOcAtkCiFtZafSE2/68SnAkcCm6prapd+bKEDZaYET74Yd64YTy8GK5Tl2LAc7moMTy8aOZWHHsl3lx0M48SB2PJDa3Jqz6KZFfYRE7HtXUbORbXmwEz535qe7QPGfecsU0mMjvWk0f8pJG+aSnzbkJDenPYPuGLQiNKCwGRmIowViyEAELRBDC7ahBSPIYBtaqF1qwTb0YAsy2IoWbEIGGr+ptPE3GwWodCa9mwriJMNunB/PsP14CDuenTH7AVf5saCTiIaW3fFxpdVh6QAr/lifP/CnXkvIhLGd2X+lgxY45tbcgrb6XisYX5fyACy7c2nlfn8y0p58tTWjlAkvBQghEFLhSMsR0pKOZroLTJ40wpNiJxtbvhMAmDBuTCCT/uyJuxe/Y1t+345lu7n9REjZmSSPkwxmQr0QTtKb8fkB7HgAKx5cdc+K8tjqxNZlViLLLW3tw5ZWednXbMyUEpunxz1N87aDzmxKe5bdubRy0G/3WSW8QmUyijZCprH10NZdRQjNVraWFi7JTONo2cpOpbauG0wYN+aGDEH+V3VN7aP/6xbgIeDczGsbON+9gWYmk5fKwk656V075XeTPJk4304EcOJ+7HgIKx6se2Z9YdNrrVmf/gP1syBYAYVHfn367/gY1j+2o8WJfBQLrLl/VVmvq/usz1gAB6SVWWDyg54Gj6WExxS2x0R4guAxkZ4EkJwwbkwR8MdMSvzoCePGvFRdU9v4vwyAzrtgyjOzP4AdDWaWdH3uwk7SD5kM37Y4PxHOsH1f+8KmnPX/3ly4qz+y5t+KQJkg1Purv6BUEyz/m8oEDDtK/Yym3GBlIFl0YvlmhOZHaA6O5mBnFpWknsTRA47Qk9LxBJGeJI4RUnYqNvGmH+e6UcjXw9O+DgDcBJRlLuTSzOz34aS2LuuGM5YghJMKZl5vTe96sZN+s6E9tOKPq7sre9c+Xlmw/K+KfX8t8GR/dRfjmLD8Lwor8tnfW3v/huJgRSARGqDZbj5BT+F4/DipNI4nDR43tewY7vIyRgJp+KprapdOGDfmB5l79Xx1TW3DdyoKcH1/tAAnUoIVyXOsaB52JB87kosdySYdzcGOZuNEsrGjYSfeEV5y65Kq2Jqkd3fOH+4DAycIxFcE7ZX3Kpre3L3vGnm6td+f913uKchtRwtFkKEIWrgVT6gDLdyGDLWhh5ulHm5GDzchw41ooYad7TH87kQBKh3CMbMy27gy+fyU4c52M4BK+VBJ39b07sqalWW7q3yAyApY+x9F5RVdj+3NM9ht5QOYLZa+rHpZxaDq/ZcKb2bGK8OP7XEXk4ThwzG92+4FZhCZDuE+oPrdA4CyTQMnaoBp4Jh+dxuXGcj8+DJgcBd27JS37um1xc2vt+2xQa+fkyGFI7tu7O0fwrrH9zxUjyyNB9b8Y0XPXtcNWoUw/IiUiTBMlOlHmUmU6XMc0ycdM4A0DVTao2zT2MnzB98BC6Acr7t12/LhWF73d9rrKtwMoEx3I4eT8rR9UJ+3/pG64i/6p9Y8rPD3EISruob0rfib+sJbOepfbMwP9l4fKTqlyrUAykxgmz6k6cVJB5FW3F3Ctrw4VgDhRD9Fnr/dHGDCuDE3AT/F3fr8pSUY0K3xE34jtXCu/DLnsdoaef/Y07A6Yl/4HFrIz8Gzn0PPKfxS12S3tzh333273daR8nSh/tZV19RWfKMAmDBuzLm4j0d1iXgMDxN/flvKGy7zdsX5ml+exdJrb/zCx1fcciPdf3hF10QQ6Y70n+74rWhp7ehKy/uj6pra+78RAEwYN2Y/4E3czY1dItff8MNoScVBoa40c+v/8jc2/P2+PT6u4OQT6PfnuzKbhbpG4u3r4nf++i6/ZdtdddI0cMwX3UMgvoTy84H3MyneLpGzzj4xcvDhZ4S7Pnh3+OjqH9P66n93+5BA3z7sN/kRNL+/y4ezceXbbX//20M5XXjKBuDQ6pradV8LACaMG6MDL+Fu5OwS2f+AQbFzL7su0KXTrTMf6IiwaPQFJNZ+fukfPTubwVMfx1fW/SsjX2/Meqr1+edeye3CUy4Ahu+kaEbXAWD06NPHCSGKqkqLgsCPu2rkhUXdzHG3/kwIzevhK5T4ylUsGn0RdnzHe2T6fLR2KyCanU3wjFNIh8OYZhpHOei6znmnn4LH04XDU44z6Z9/iS1ZsrwrLd5TwLmdi191GQBGnXzsqAMPPuz54uJiPnh7LoU5WZ9pdHGf56uurqldu6svPVgzId/n1YvOvmTcW0YgP8zXIJ1J4Yaq3tSXdactO0RC18jJzycvJ5es7CyysrII+gwAmlrbaGxt5+orLu1az2QlU3+qvp2W5tbPIrw/AdYB73/WvfxK8wAnn3TMKZW9Bz57+mmnU1pagtfrZd5rr1Ccu0sQ3FBdU3vP9gRQyosdKcKOFGF1FDrp9m7Y7d2wO/JEzlFnC+/Xo3yA/OOOYe0Vl/JxSws5ZaXsN2gA/fr0oaioEJ/P94nvLvnwQ6a/NAtfIMBRh4/o8rFI3ee97sab2u745e2GZVu7mox3Az8EYl/F/RC7MfNPreg98JkrL79MlPcfhJm2yfHAczNe5KUXptEt7EN+0m3PAEZ/li96d/aDZR4t3XvA4CNuN7L7f22LuFsaGrn/oYcpKy3hxGNHUlJS4sboaRvHcXBw8Hq91Dc0MP2lWWzYuJFRJ5/IQfvt+5WOq27dx5v/9ueaks/52rnAs9U1tamvDQCnjDr29PJeA6f+4PLLRWHvASTMFCLzOEXvbtnMmPkizzwzhRBpfF5jj/7wAQcd0HTOJWPy+ZoWpDbXN3DXn/7CWaeczOGHjyCeTOE4rqu0HQevx4PX0Hlhxkxee/0NDhs+nDNHnfh1YZM3X52+8blpz5Z14SmXAUOqa2rbvxAARo8+4xe9+u93+3lnnYG/R29M0/zETLdtRVFRASvemsukxx9HNzvICgZ3k/QVRcfd9gtdSM33ddxcBdw84eecOepEhgwbSns05j4GsNUP6pL1a9bxwksvEwqFueS80WRnfW1eaZujnPTgP1qWLFrYrQtP+gJw2mc9bKJ/BkvVs/IL8Ofl0dIRQ9PkJ3YpOMDaTZvJ7T+Yq34Y5qGH/k0i1Ybf+9kJPMPrtcfeeEtCSO1LXWjj8zMQUlBw8ufP0n8+/CiD99uXYcOGUd/SipASd3OSK7lZubw4aw4HHXgAxx15+B6PJbJwMR3vvPclM4ZCO//yHwb+dMevYi1NTcEuAsAo4De4afo9A8BTTz/7C48me9iOc/noq39I3YZGdG3HMCjR1oG/sAennnsOTz38Lz4vbXLNjTev9vpCfb7MVcU+XsrKib8AIfD37kWwX99dKycaZfGixfzhjl+zrqEZKd3EUGeJJlOkUkkK8/P3eCxmYxNLr70Bs7EJf1Uv8kZ+cUojpR687uYJdXf+YrzfNNOyi0AwccK4MfOra2qf2iMXMGHcmArg3c0t7QX7HXc6R5x9PhtXrUTXd/T1tnLILyrmg5dn8Mazj015/LHJZ3/6O3f8/GZ5xugLzhmw34GPf6mETlsbC848n9Qmt1yvr6w7g6c+jp6981XjF16axcdLl/HDq65kS1PLTr8T9HuZOfNFwqEg5515+u4b7XSaJZdcRccH8wHQwiEGP/0Y/oovlxzdvGn90nv+cEf/z/naDcAL1TW1K7ucBGZ28r4BDAaoa49z0MnnMGDESFrrN6HpO1oC27IpqezOE7/7DRuXvn/0tOdenvNJD5fqhjS28Mn9bnvoJR0+vOJHtL/1yXJ8OcOHMfCBexHajqf+a+0DFBYVc8CBB5I0d77CangMFi2YT3NjA9dctftmfNWvfsuWSZ98kMffuxeDn3oULfjlrPibc2cvee7pJ/f5nK9VV9fUTuzSPECm3OpDW5UPUJodYP7MqWgeg7IBg4i1tyI1sUPqp27VOoaceibRtqZngKztdMLeByHnfRnlA6y96087KB+gbd6brLv7L1TcetMOnzU1NjFw8H60J+KftvzbJGU7ZOfmsXLFst0eS/3kKTsoHyCxajUrbvkp/f/vz18qqz3s8KMHrlq+bNVHixd+1jbXCRPGjVkN/OeLhoc74wDj2b6Ne5t0C+q898JkDF+ArG4FJCJtCKl9gmorHApLyxl02NHh82Md/3180pNHKKWCwOOdAfGFSN9z06l76OFdfr7pgX8R2mfgDqQwEu0gEMohkfzs/RWh7Cza2zt2m/St+tWuazs0vzKbDX/7Bz2uH/ul8kQXXXl1wd2/+0VrS1PjZ60Z3A/cP2HcmN0975+qa2p/slMATBg3ZhTw250dpUlJjsfijacf5pBRZ9G930CaN61D6lqn8K6ELRtWUzRwXyo2rT189NmJXwIDgUFfmvT99Jef+70VE37xCVLYEYkQjUTRDIP2liguA9xZTtYhLy+PaCSCmU5jfEbO32xsZOk1N6DS6c8cy/p77iU4cAB5xxz1xf2zENnX3/LT1dU/vy3LNFNaF5HCmyaMG7Oguqb2P5/gABPGjekHvM1OyqF/wsSlUpNbks6+fQ85rP9BJ5xKR3MDqUSCQfsfwIxnpjD96SnsP3QY1184mlnPPUtRcSGjR5/3hUebbmll4Vnnk6rbvFvf70wKl69cxW/vupsrb7iRlpZmN3bdhRR0K2RS7f/xi/G3UlpctEvSt/iiK4gsWLRbY9GCQQY/PQl/r8ovl8Gs27Tgnj/8dn+luuzxwSQworqm9n2RUX4WbqHjfp9z4Ou4mw/M88498x+5JeVjhp50OsNPGMndv/w1j95XS05+Ny69Ziyjzj6boniE6c8+S3ZeNpdccvkXIH02H17+I9rffnePjss5bCgD//kP5rw+j78/8CAXX3s98WQC27J3eYzXMFjz0Uc0rF/N2Kt+QNVOlLbyZ7dT/+TTO7qfvFwcn48eOwGpv7KCwU9PQgt9uT0ub897bcEzkx/bvwuTROuBg0WmNMmzmaTB5x1wSOcHFc449bgjcwvL7i8ftH+fF2bM5IPXX2PUBRdw/KmnYqXT9Bq0LwdmBXlp5gzSdpoxY67ZoxGu+d3vqfv3F3s0rvSKS3mxqIDJU59h9FVjCGdnk4jtej3Ftm2ysrPZsnY1S956g+OPOZrzR5+1fRY+8RSrfv7rHY6b278PqysrSEQjXD135yX/8o4+kgH3/vXLbnVwHvv3/WsWz3+/K599ek1kKnR9XigRx91ssGBnH5591qkPBPKLf5DXsxf1WzaRlZ1NSVkZOfn59BowiOElRbw0cwZt7W2Mvea63RpZw7TnWHHrT7/U1U069kjmfvABx549mkNGjKR+04Zd8wA3WsHr9eKRGkveeYssXfKribcRX7SExRddgbK213b6uKSIdyp7ktWnL8VlZWx4dTbnztt1tfge14+l/MuRQpRSkZo7b7ca6rd02UYSMWHcGNkVhYnOHX3ajRWD9v9TqLgHb86dQ2VVFSWlZeR1y6dH374MLy3l6aeeovmRR9NHNEcthPtPsPUVIlOtRfgKvFafCQNa/aEPisD5QtMmZfq48J4KFn28lH0PPoTRV/6ILRs/fzeQ6sQJlr73Dq3LP+bSQ5oZOngjUksTS+nUvlrF4i2FDDxkCH33P4ip9/6V35y1iB457u7ubTTek8wAy2+nUoOaVt+zOhRd1eFDoTKVibbWj1Hb/ymlMnVl2NHp2/bAvmNnludN7YpVwQnjxni7dCXu7DNHXd+j3z5/zSuv4J03X6dnZS9Ky7qTk5NLj/792D8nn+kvPE/bo48yon7ni1TSI52Bvxu0PFSFjhMJYUWCWJGAW/hh9+XhN6q4//kILW0tSKlxzg/GUFBURHtLC0J+/mU7tkM4O5v2pnpWL17E0X3rCHmTPD+/hOzulfQ98GAcy2bp+29Tqi3ntpM/3snF6DZ6OI6eFUOGo2aLkVp0w6I+VjRtfMFbfNuIFYvv6kqddemDIU9PfeGes89Q4Nh/PXTocN5563UENsq2cT6y0AcOZNQppzAdmPvoJA6vb9vhHD2vGvhheEB+EjsSVMow3Zo8poVjyd2t/BEzDR6fnaalpRmpa3S0tvDOq69w+sWXYSZj7O4KdFN9HN2jM3DIUN5YsphUIkHVQYPR/F62rF+LBNo2recvV3+8M+OqkD4L6TMRhimkYXqLwtGqWw5YuOz2dw9SjtrTpNiTwB/oYunyJ4Oenjb9nrPOJInivkMPHca7b72BYzsox2bVkiUwcAAnn3IK04Vg7iOPfgIEBSMrlxaf0W8DdiSMY+gIw4tbkduDNDUcc7fG+7PHSklaaVKpBHbcxvB5WfLBe/QaMJDeAwZSv3E9Utu9S7etNIl4jO59+qF5dKLt7TixCAUlJSx89VUuPWLTzuEkPbY7do+FMLaWlzVzh+a3l56XfH/TY4v2pLfQYuDKESsWq289AACmTJ1+/5lnYIP655Bhh/HWvLkoy0IKWPvRR4iBDiePOoUZQjD3P49yeH0r/or89VXjj3kLEctCej1I0yeUmVIq7RZkkulMWZbPtgJPvtmNdW1h/vjoP7j/D9VMfvABguEwtmUx57ln6NW3L9m5+UTbP5XJ/IzVEolGKpmEpGs78goKWLtoEaWBJo4Z2LCzDI5Cek139vtSQnotpNdEeJMIwyy/auiS6LK2QPsH63cnQdYCnDZixeJvZkvYl5Gzzjj5ih5V/R4s69OHN96YS1FREeUVFeTk5NBrYD8G5fdgxvQXaHryieQNd59zr7dA82FHst2faBgrGlZ2JOhWCosGsKIB7LhnV+NesC7MHc9UcPaVPySYnUN+YTEP/Pn3TP3PwwRCIcxUkoEHHMSV425k07r1JJNxpNwDauEoDK+BmYix4oN3eeTaxTvnkVrARA8l0UJRZDAh9HAEPRRBC3WghdrRwh226e1YcMkDF5oN7T0+6y8Cx49YsXjWV6Wjr3w71llnnnx5aXnvh8r79+Xtt+bRrbCQisoKsnNy6D2gLwO7VTB9+gzqN7w/b+I1Q98hHQ27VcIiWdtAYEVDOFE/diyAFfPjpLRPj31ZnZ/fTO3DkaefSW5hCS1NjQSCIaoGDeLeO+9g2iMP4/X7sNMWI447nguvHsuaFStIJRI7LmztNEQETZOEwyHeePElfnraKvbtsZMqEdKw0EMJtGASGYoJPdSBHop/qj5ABC3cEvmoWX107T9udsz0rrKvN49Ysfjur1I/X8t+vNNPPfHUotIe06r2GyTffvtNioqLKO9ZTk5uLr0GVDGosIoZM2awetlbH/3mhqFzsKJhnGhOBgBB7GhI2dEgTjSAHfe7INgeFXy8yc/vnqnisBNOIbd7KR0trQhNomwHn99H1cB9+Xv1b3nusUl4PB4cx+Hw44/jorHX0FC3idbmZjRN+7y8PN0KC5k7YyanDlrNOUMbd+73tUASPaN8LRRDC8XQgxG0cAQZbEcPR9FDLchQO1qoZdO/5hSv/8fUX7ldzD4hj41YsfjCr1o3X1uFkDNPOfH40l69X+yz7wBenT2LnhU96d6jjJycXPoMrOLAXgcwY/p0li56ZeHPxx74NnYsBycaxo6FsGJBZcdCOLEAdsyf+fHhWLIponP9v/oy/MRR9OzTF6FpJBMJmhsacDJFfLxePwP3H8zvJ4znxSlT8AX8WOk0g4cM4aDilLAAAB4pSURBVOKxY8gvKKRhyxai0SjKtrd3ktA0dF0nGArg1b28Ov0FBuYs59YzmncW8jlogQRaMIUWiiODEaEFU+jBdrRgDBnsQAt1oIc60MPtbo3AcJPUQ62LLrv96MiiZbd1OtsHwIgRKxYnvjMAALjolBN+VNCnb22PqgrenDePHj3L6dGjjPz8PHr360O/0v4899yzNGx45/1br9xnEXYshBPNwo6FsWIh5cR9bsm4mB877m9qTXlv/FdPbZ9hIxk68ijenjeP/770MhV9qjhu1Ck0NzUSjyeQgD8YoGev3vzxlz9nzvTp+PwB0maK3IICDh0xgkEHHEh+twKUUlhmGjOZIJlIkIjGiEejtDfWM7xqM2NPaNrFzPcn0YJJtGACGYgLGUigB6Nowahr+oNbeUCmNEyoVWqh5ow1aH1ryOk/teOJC3FbzB08YsXidV+HTr72GkFjTzj2VmPQgN/36FXOm2/Mo0d5OeXlZeTk5dCrqpI+JYOY+eJMGje8tfCWKwYtwI5luS1jYgHXEsT9qIS/vike/MkD4Zx9DztKHDnqZJ57cjJPPPgQwawwyXiCnr16MfbWW1wQRKOgIJSVRY9elfzj979n9vTpCCHQdQ+hQIBuhUUUFBQQDnkI+gVhvyJgWGT7UxRlJzl2vxhl+ekdCZ80bDR/Ci3gKl/4E0ILpFyzH4wjg+3IYBQ9FEEPdGSqhbYKLdQq9FALWqgZGWrd+OBT7evuvmc68LMRKxbP+br08Y2Uih19+kmXde9V9a+efcpdS9CjjLLyMrKzs+jdr5K+pYOZ+eKLbF4z76PxPxi0IDPrwzixIFY8UNcYC91ca1XuP+wIMey4Y3l2sqv8I044gTE33cTaVSv5/cSfUdqjB5eNHUNzYxNKKdKpFAccOoRVK5dz909/Rk5OLr17BBlcabNfRYq+3VNUFqZ3b81GCIX0p9F8KTSfiQwmkP64kH4TPRBFBmNogQgy6JaL1YNtLhEMtqCFOqQeakYLtSBDbWjBeqEHOl7vs68+YsXir7WZxDdWK/iMM06+uGdlr/9U9C7njTded0FQ1j0Dgt4MqDiYmTNfZOPK1z4af9XABZnSsaH5Hzd0++NjkUH7DR0uh408imenTOXJh/7FcaedynlXXMG6tevoWdET27a58fIfMOyIERx78kls3ryZqv59eefVucx96WWGD3K48vgUfUr2tB7TtlrBJpo/nekXkHTNvi+JHkh0qhXsgkALdqAF2zI8oF1qwXb0YAMy2I4WbEEG6r93tYKnTZv+yBlnnOyg1KOHHTacN+e9jp1OU1HRk7XLVqJhcdJJJzBzJgPvevA1br1y4Py5HzTl/uXx9n2GHHmEOGD4EKZNnszTj0zi2FEnc+o557Dy44+QUicei1FSUgQo2ttbUY5FRVVP/jt9Jhs+fpt7xkYZXJn+AorXHaTXcjN8PhPpSyK8aaH540h/Cs0XRwskkf4IMpBA80dcAGSaR2j+Dqn5Imi+NqQvjvRFkd62b7K/4DdaLHratOmTzjjjZOU4atKIEcN5c94boBxErwpWLVuNQHHiiSfwyity4HW/fSZc365KjzrpZFHZpxfTJ09l6hOTOeakEznhjFNZu3oFmtDoVlJIQUEet13zYzyGzpHHHEMoK8zs56aTbFjAk7c17dEKrNs/0GMjPVv7BaTd1jE+E+E1heaLIf0mmi+G9CWRgTjSH0XzJzKzP4IIRJD+mHDfb0PzR5H+VqS/VWi+5Depg28MABPGjSnDfWrFWbZh/fmplPnY4UeMEPPeeB1QVFb2ZOWy1eA4jB59DlLKHrPmvYoRCvDqK7N45snJHHXcMRx9wnFsWLUGzaOR2y2f7Nxsxo+9js0bNzH2lnH07d+XZx+fjN36kaq9rs0G7VP9gj7lDYVQbl1f3UFoKtMxZGvrmHQmr28K6TXdrmE+MzObkwh/AumPZSxBFC0QRQQiaP52ofk7hB5oQwaiiEAr0t8+8Sc3HDlh3JjLgbnVNbU134QexDcIgKeBrVtu/vPh6vVPFpWUTjvggL7a63PnUlTUjcrKcnJysunTrydDDz2LZR8vYdytN/Ph0lUcc9yxDD/qCBoaGtA199n+8opyfn3bz2huauLam2+kqqo3zz7xNMnm5faDNzsRsDNtYzMtY1wgSMBxFY9y+0hLBzS3fazQbaSRdnsHGikhDSvTMyid6RmURPrj7nv+eKZnUMTtFxSIIv2xTj2D2jI9g9on/uTmDqAZCGWQOKC6pnbZ98kFdC4sFXz2uRnPjz77tNMWLuD5YYcNFW++8Sa6LhECVq9cj6E/w4EHns7YK37An+/9P8qretHU3IyybQLZWZSUlnLX7XfQ1FDPNTdcT8/y7kx/eiptW1Zak36etSHTykWC7TaOdNvIdFqSFY5L/wWusqWdsQQ2wmMJoae3tYzTjDTCm0IaCYTXRPpjSCPh5gJ8MaQ/hvB3oPk7hPRHMzPfbRglfe0Ib2vm3ns7TUT/98oFZMx/Fu4O1WqAp55+dvr555955orlxmNHHzncP+fV1xFKoaFY9pFCqmmcftY5DN5vP2791c/p0W8AvXv3Jr9bLjV33sXGteu4+sfXkJtr8PS/HkHYLYnHfl2+dGvn0E/1DVSfbCEr3A5ibt9AJbY1jtQthMdCamm3dazHRBgWwnBnv/AmXDdgRJF+t4m09LcjA/FM38C2TAexFqSvHenryLSMsyeMGzMeuBx4a1fb7b6zLuCz5KSTT7qud0X3e447ahBTnnmZ4pIiepaXkZebS7++Zex/6Nks/OA9/vT3v9L3wIN5dcYs1q1Zw5hrr0STKdbWBWlY86Ead17+wkP6WR1u27htnUM7NYba2ttHkOke7mS6hik+AQDdynQNs0A33Zmf6RyueV3/L71x8CXclnH+mHS5gEv4RKAVzdeB8LZ+ul/gNy3fOgBccelFF9Y1td/bEW3LGj1qGL0ripnyzMuUlLogyMnJpqpXdw4Zfh7r1m3ggosvoL65jetuvBqVaub9jwyOPX0s+flreG/G3OivLonNRln69ubRaisHkDshgY7LAcTW5tEOQjddPqBnegfrW91AImMF0ghvHGnEkf6IkN640PwRpK/D7SLqb3MJ300FwBBgZnVNbcu35X5/qzqHXvejK/68ZnPzDcGwD2+4hH8/+QonHjGYs045mmdemJNp7axYsdJC4zEOHH4Bf6j+A/f/6++0blnGik3dOf7M69D9a5n60DOMGl74IVpW6/Yu4o7by++TW8vEJ8MBAUJYbtfQjOLRLKRuu+1idRPpcZtHuj9xpDeB9Eal9CVcYuhvQ3hjbpzvb534kxtCwIcZn78Jt3/CXgvQWS64+JJzo5GOSb6gV/OHAmzetJmNm7ZQUJDH6UcfQHlpLjNffoPCwgLKy0vJyc6iqncZhxxxKcnNrzFq7GSGj/4z3QdJZv3fL9U5x/SYdvbIwEoc2wu25oLAtfKuFSATAWzrHu64cb/YagXIdA5PI7WU6wI8FkJPgGEhPbGMG0hI6U0hvR1u/2BvFOGPI42Im+TxJSeMG3ME8BrbY8/Qntbz+05bgIsvu/zCpqbGR3Pzs8nKCbNh3UbqNm5k0KCBdO9ZwWvzV3BoooSTjhvG9BfdjGFlr56sXbuRg8preeK9gyk78m8sa3N44V9N9NEkc+ZHDznr2OL3hGZrKNvoFAJmGkkid9I8OhMJSDsTCrpNnYRmgeaGf0JPIt3fUhpp1/QbMZcDuJYA6WtDeCKdMnxv4JbUPQB48tui/G+FBbjsyivPaWpqfLKgyE3ibFi3nmVLl9OnbxU9enQnmTQxAgEaNm9h+OCe9CnPZ8qzc8gvyGHUITk8/kElb0UvwB/OY/2aTQwYkEVZ9xzsza+gmhd2/Pu3QyZOf71lwLTZK660HaHOGNnziVMPz1qWcQOfqnoj1PZGT5pCSNPNBWgmwpNG6KYQelIIw20nLw03/MNwSaA0oosXfZh47N8P5VXX1K7nf0C+UQD88Oqxw5qaGl/P75YjC7oVsGnjJj54/wN69OhBRa+epJIppKYRCgfxh7N56fnpHH/YPow4pC8fvTeTBY19mN06AX+4kPb168jr6aeyT5iwIfEFgoiGF1EtHzZ6PVZOnyNGeTbWSZoXT3HGnHfw7448OHfDJ7lAJgpwPYOTCQctIaQlpGaBx0JqCYSeif/1FBimawE8MYQ3PvGmHxvAEqA78E51Te2QvQDYhVx7/Y+H19dvmVNQmOMpLS9jxdJlfPDBAkpLiulRXk46baJpOoGgn6ysLF6bM5dEKk3PnmVcfHQ2b68u5G/Pn0ggrwq7aTl6dgGBkhD+PEn3Ej/Zfh0ldCrymykoLGT52jThHD9Z2nw2vv1y+vyTDxo/6sjua9zdfkJu4wBI4c56YYOwtjWQFnoKoaXBk8yQwbhrFTxxoXnjmezmibh1EreKv7qmNvltBsA3wgGu/fGPj25uappZ3L2bp0d5KcuXreSD9+ZTXNyN0tJiEvEYUtfwGzoBn5c5r8zBNG1OP/NEBlU6/HNqA7PfGYpuZGNteQsQOBFFUtNRtpcNVoxEvsEBA7MJhMpYuCxKMORh/fIWPnwzwrDDh3ueevHNOyMJee35p/T7eFsiSGyzAFYmGjBBKtCTbi5ASyJ1C4zE3FfnOEcce9Knt2rXAY24XcDf+bYr/xuxAFeN+dFPYvHYXWXlJbKouBt1mzYz+6XZ5ORl072sFDNlokmNYChIMBhg3utvIzTJueedSe9Si//MNHnh5YEIFcZrtGLZcaT0o2kBNE8uMpiHr8jHgANz6VUaYEuDq4OyHkFem9PEh09Nx5djc9F1+2JvftUqK626+Tc/OeFF3BYtWiYHkAYhENJ0IwI9vrXrp9AMc8K4MTXA9bid0I/pXKZ9wrgxIdwS+h93xTOX3xkA3DZxwojNdZv/aDvpIQMG9sEX8JGVncVrs19j/vsL2XfwINJmGk0K/IEAgUCAt996D6/Py4WXnEdFqYcHpsZ59rlCsrNsSorWs6VeI570oXmy0bQgOBp6sJTuw3qRkwutzSb5BQEKsjS8uqSkR5BZs9tZNGUGhredS24Yjmp6Bw/eK//x+0ufQm1bFLJB8PNbbuht2/by6ppa61MLWR3A1kqSv6uuqf0Z/6PylQLgxptuOjqeSJwZi8eOjUSi/fMLchhx+CEkEgnMVJpQVojGxiaenPQUWeEQFZU9EELg8Xh59533CYezuPJHl5GT5eW9dxcwdZZGfUNPBvRZSVRl/8FJNP6gtTmc19RWAkKi6QXk9TsQI9tHrDmCPz9AdnEWpYUGup2kMNtDaWWIqc+0snjaTHSthfPHDsGbWEi03brwiftueKyTkmcAJwIbgIHVNbXRTp99kAnp0sC+38Qq3rcCAGOuGVvmOPYwgegnpOhhW3apbdtF6XS6WzKZKkilUiHHsUA4FBTkcMppJ4OQtLa2oEkNRykKC7vx4eIPefyRJwmGAnTr1o1Vq1ZTXFLMdddfTW5BLi+98DLNLbHHFm0sXhqLp8/1BLJuf/+58ZMrRkzsk6M1L2ht9QbqmysIFh6C7veTbo9i5BUC7bStf5ec8ioOPX0kKtZKtyydHr3CTHu2hYVTX0ZSz3nXDCVgLnZBUHvDY5m9Chs6XepPqmtq/9QJAF7gFKCxuqb2v/wPyxcGwFU/vGq2Us4RXp+hGYYHw9Dxeg00TeAohZVOY1sm0XgCO20hBASDAQ45bChej4dILIYUEpRDeUUP3n37faZOfo72jg56967kB1dfRnFxIU898TwNWxpnP/jPfx+zs3H0Oup2PUfWt6zfMjxskYudbENqQYycEhAmzSvn4KRbKT7weA499XCcSBtFORpllWGeeb6NRc+/BuZGzht7KP7UYmIR+5Inam94pNMsbwL6VNfUtvEdlC8EgAsvuqCuR3lRycCBlVhpm7Rl4dgOtnKQgJQahs+DJiQd0RirV65jy5YGTNOkuKSII0cejnIgHndBYCubgm6FJGJxGpuaKOvendy8MDOnv8b69ZvfnvTIpKG7GsugE359QpjWaUvX7O8zzQRS+pGaH5RBt4F9MeMmdQtexE5upvvQUQw55XDM1kaKcjxU9gkz5YU25j/1KsLewKU3HYFsfZtohzi1d+DjmcBxwMLqmto6vqOyxwC48OILV5QU51VVVBbT1hpBuDU+dhTl/sfwGhiGwcYNm1izZiOpZILS7qUcNvxQbEcRj8eRQuAAXsODruuEs0K889ZCNm5oWPzYpMf229VY+h1ze3aWqG/cXF/qaWoNIDRvBgA+UBqa4adw0ABiDS1s+fAVbKuNnsNP4eDjDyXd2kRRroceFUGmPNfCgmlzMDwtXHzdQTibZ9nxdN6JT953wyt8x2WPAHDRxRf+Nzvbf3jPnkW0tXUghfa5tT+Vo9A0STDgp25zPatXrSNlmpSWFjFkyCEoZROLJ5FCYCuH4sJ85s9fzsaNjQufmjz5M6ti9TnqZwVh1di4al03kukwILCtNjQ9B2+gHMcC3euneN+BRBpa2bL4pW0gOOT4Q0i1NlGY46Gid5ipz7fwwdOz8OgtXHzd/qj6/34vQLDbALj40ot/h5Oe2K9vd1raOtCk2IPDFUIIAgE/69fXsXFjHZZl062wgEOHHAgKItE4JSXdWLJ4JXV1TaunPD11t6ph9T9qfLXZHh3f3JqLrVdhxtaTNhvx+IrxBSpcEBhBivYdQLSxlS1LXsFON9Nz+KkccvzBpFqbKcrxUNE7xJTn21wQaE1cfN0BqIa5djydf9KT9417+XsNgMuvuLxfNNKxtGfPApKJ5BdjDsqtNmr4DFauWENLazu2bZGfn8dBB+1PUVEBixcvZ83a+tj0F17Yo6J6/UeOvzvZ0n5TLD0IW/Ym2vQuabPBBUGwEmULND1A0T79iTW3s3nJy9jpFnoOO4kDjx+K09FMt2yNyqospjzXxvtPz8KjNXLxdQdAw1wnauZfNPn+Gx7/3gJg9Dln14VDnhLDI0in02iahiYlaWvPn2LyeHQsy2bFyrU4tk0qadKjvDuFhfl8tHQjZWXdj3v0kUl7bHb7HzX+D8mWtptj1iBsWUW0+T0ssx7dKMIXqkDZMgOCAcSaW9m8ZBa22UTx/kcz9NQjIdFKQVijsirM1OfbeO/p2XhkA5dcPwQZWUKk3br2iftu/Pv3DgDnnnvOn6x04sa8XB+xWJJAwEsimSaZtAmFvOiaIJUycRy1W8/UKQWBgI/GxhY2b67HH/CRSqWJJxx6VvR89fnnXvjCzSj7H3XbH1ItbTfH0oNwPP2JNr+HmdiI7i3CF+yFciSa7qN4nwHEWtrZsmQ26WQ9xfsfzbAzjkLF2ugWElRWZTN1ehvvPjULj2zkgmsOw5v8kI7W5HcOBJ+psksuvahbR0ekPuB1hG1baLqHSDSFJr2bhCbnSSmOsC2r2KM7eHQwTWu3gCCEQJOSjXVbsNNpmlqjVFRUJfv27Z137733faln4vsfNf6uVEvLLdFUX5SxD9GWD1wQGEX4QpUoR6BpAYr37U+8NcqWJa9iJjZRPHgkw04/EhVrpyAs6NUni2nT23lvymuo9HrOHzOMLLmK1ubE9U/ed+PfvhcAOPPM09+x0olDAj5JLJYGzad0XT44bdpzV239zhlnnHqBlPL6dDo9TGAhsLBti88qbKwUGF6DSEeMus31SM1H3759n5g69Znzu+Ki+h81/q5kS/Mt0VRfhHdfIs3vYSY2oRuF+MO9cSyBpnspGTyIZEeCTfNnYSY2UDz4SA478xiciOsOqvqEePqFdt6fNg9lruWCscMJq2W0tKSumnzfjf/8TgPgvPNGnxGNRqZqwiSZUhiGf7nh9f5wypRp/90FWI4G9VMQw81UzOtYKSw7vUsgaFKigNVrNlJYVEZlRfnxj056osvYdv+R4/+Qamm+OWb2x9EGEGl+l3RqC4avFG+wAmUrNM1H8X79ibfEqFsym3RiM+VDjmfIqBGk25opzvVQVhFkygttLHhmLsLexGU3DEe0zacjop86+f5xz39nAXDaaaPmt7e17B/Oyu2QUv7+2Wefv2N3TnjeuecUOcr6eTptXdraXBd2nF2viBoenfUbGyjv2Ts+a9bsYFdf3ICR4+9MtjTfFk/1w9b7Em2ej5mqx/CX4svkCaTupWTfAcRbo9QtnkU61Uj5occydNRhpNtaKcrRqewdYtqMDt5+6lU06rjk2oNQTW+oqJl/3uT7b5z8nQTApZdccE5LS9uZfn/goslPPb3Hjy+PGnXSvFSi4zArncDZxdF+r0F9UweFxd0/fOnFl/f5Ki6w38jxd1itLRPiZhWW7E+kaT6mWY/hK8EXdEGg6V6K9x1IvLWDukVzSKca6TnkWIaMOgy7rYX8LI2qPllMm9nBW0/ORqOeS398MHb9XKJmwblPPfC/C4KvbDn49NNOmW8mO/a3bXOXbsDrM2hvT5Gdk//88y/MOPWrGkvfkRN/Ybc23b4jCIpdS2ALdN1L8T79ibdHqVv4KmaqgZ5DjmHIyYdhtbeSH9Lo0y/MMy+28+aT/0U4dZx31f54UsuIx7XzJt9/45P/iwD4yraEKZTweg2stINSO3cDHk3D7/ej6/pXuoN2+Zw7ft3v6PFOoGXlb+ImhPMPINIyHzO5BRwbX6gS20qxZclSigb1o3S/o6hb/Crr3p4FSjFk1GG0dLSxYmk7px8fRorDmfufl1m4wOHiy49i0X9feeLCa+5xJv39+qf2AmArAGxL+QNekiqN2sWCgeHRSdsCw6N/5RWxls2+87f9jp6oAi0rfxs3FeG8A4i0LMBMbUFFFb5QBbadYsuSZRQP6kP3wUexaeFrrHt3DulUiqGnHk5rMsqq5R0cdpAXjziK8iKDSMJDcZ/D2PTRrHuBvQDY5t/9AY9SSTwez65dgGGQsgW6oX/8dVzsstl3/K7f0RMJtKz8bTwF4fwDibYuIpXYCFGFP1SJ46TY8uEKFwT7HcGmxXOpm/9f3rBshp42nJZYjHjSYr+BAVDQ1qFo2FCHEHr9XhfQeXZ7vV47Fcdn6OwqJeDxaOhp3fF5vW9+XRecAYEKtKz6XSQBobz9oIUMCAT+UAWOvRUEVXTfZzibl7zNliVv8BaKQ04eilQp2lsTCM1Dw7o38cSXt4Szy07cC4BPZPtwdwhJtcvPbRt0XTY++NAjTV/nRS+bfccd/UeODwftleMjScjK25+OJptUsg6BwBfqhWOnqP9wFSX7VlF2wAjWvfcKseZm6uuTFOY46B4vW1a8RyDxUTKY17Pfw3+9umkvAD6Z7pVew0AIZ4dQQynweQ0aWuJ4DWPeN3HhS+fcOWHAyPFZWtuqa2JJRSh/MDRDKrUZohq+UE+XE3y8mryKMgp6HYoR8hBvj9FgabSuWUA2S5Lh3J5DH/nb2P9J5X+1JFA5freV/M7rIRiGF0elyc3LvfGbuviP59x5bb+jJ64Ptq66M5aE8FYQJOsQgDdUjmXGaVqxHl9WHjh+Eo0m1H1Icd6qZLiwcsikv49dxP+wdHkeYOyPrhiZSCb/TyEGlBV6sNI7LhmHQ0FWrG3E68/6530P/Puqb/om9Dt64m12a+OdsWQltrYPkeaFpJJ1eH2leAPd3S3nMozuDZDt+4jiwi3JrJJeQ55/4H9b+V0KgJ/ceK2/oyPypJlKntItz09ejo9kwnT3DLp5ATQpCQX9LFvbSNrS5j/070kHfltuRL+jJ97stDX+IZ7sSVruT6R1IY4Vx+svQ2oGQnjIDayiuDSS9BX2PWj2w1d/xHdAugQA14y58teJZOrGrKAWqizLxUynsTp16dR1Db/PS3skybqNLShpvPrAg//fbv2sJBBFcRz/zb0z4xgZoaIhtjBCl7bxASboDXqAHsDAVZS6CmrRpkhDSmrTolaugxYtojZtgiJoEUibyv+N43X+6fQOtlG5n0f4nsPhXKrjFiOuZjeh1Y91tohuPwjHboOKPgigCPiqWIiYjPjjqcfr9FQM/18LsLOV8VmWtd7t6nlFxlIs6ofXK8OwLEiEgIoUkkjBmI1aq4tGpw/bwbfikQ+KpfPDcQ2SULNpaI1Csz2LnhmC4A4RnP9COOLqmFteeapkPjBFRn4CbcdZ1bTORSoZgyxJ0BlDr2/DMBwww0LfGIAZNlyQliTSF0lWrkpn5dNxD/J+t19MqNlhiLZPms0fKApDICxq9kws+VzJVDFlRr4Ae7t5T71euzVMMwoARCAglOiCILRESj8B4c11B/dHhfLDJIZJqLkNefCbA5EbrhJae73Z1sFxHMdxHMdxHDfx/gAaPigT0Yd6NAAAAABJRU5ErkJggg==;" parent="UfDb-DqNH3yCvx82YPJ2-29" vertex="1">
          <mxGeometry x="20.005000000000003" y="12.5" width="65" height="65" as="geometry" />
        </mxCell>
        <mxCell id="E8EXf81J99poO2dU3TDC-1" value="" style="group" parent="1" vertex="1" connectable="0">
          <mxGeometry x="570" y="540" width="380" height="90" as="geometry" />
        </mxCell>
        <mxCell id="E8EXf81J99poO2dU3TDC-2" value="&amp;nbsp; &amp;nbsp; &amp;nbsp; &amp;nbsp; &amp;nbsp; Pro SDK 三维数据处理插件" style="rounded=1;whiteSpace=wrap;html=1;fontSize=22;align=center;fillColor=#dae8fc;strokeColor=#6c8ebf;" parent="E8EXf81J99poO2dU3TDC-1" vertex="1">
          <mxGeometry width="380" height="90" as="geometry" />
        </mxCell>
        <mxCell id="E8EXf81J99poO2dU3TDC-4" value="" style="shape=image;verticalLabelPosition=bottom;labelBackgroundColor=default;verticalAlign=top;aspect=fixed;imageAspect=0;image=data:image/png,iVBORw0KGgoAAAANSUhEUgAAAEAAAABACAYAAAHdbkFIAAAACXBIWXMAAA7DAAAOwwHHb6hkAAAfQUlEQVRoQ61bB3xUVfb+Jsn0SU8ghFBCVboNcVGkWWBtiMqu6F8UV2yoKy4WZO2ru7J211URbCuWta6KikoVRATp0gk1pGeSmcn0+//OnXnJTAoRd19+N6/Offeee+p3zjMppfDB9zu4U4hEo4hEIgiHI/i/MUNM4JYi/+TmxNP6YOjA49C7uAfSzFkoqeNF42ZQeZTRDnuiasNBr3p3RYk80F338Oqn6xFGAHv21cGcakKHLDv69cjXHegHbA4XDhwIoaBTJ1hTAbvZhOFDx+oH9PvnffmjqvEr5QspFYwodfwN/1FXPPmDGnzZbKUfePHTVao2oJQ/rFSPy+5VT6ypUpvUPer0R+fGHnj2w2Uyzcbtqn+uVW/+UKqOv3K8Mhl0iGoaRBGOhHHaCYMm9MwyfdQ4hk2HOGkVVVvKQ+rrzZVqznvr1K5aNSWJDsP+CE2LXVUhNWXBPrX9sEcTSk/zxy1lCHmBvQe8yLCn4aYzOiLLaW6aprzi/g83qjrOxM2W1/8C9fZH3zSRWh74bn+DnmbRxKfUjNc2qdHT71Sdz7wiNk15wBNUKkQijf7r9+rdXV71dcXNavTd18ceSKRBjyteV6+vOqjG3TdG5Yx68DZNB9mEJ/p07aSPo1GlecIXCMJd50dljQel5bXoXZiFISf1v7pXlunV2AziayWdvPfdz2rz4ToVUQE1fCbUYa9Se9xRtb0ypH4ie3y7tVJd8spO9XfScN0ed+yt3BpHEIBbjbkzC5EQRxCE3ke4//oFhUCYLRSBtyGI6roGFOc70TXPXszflxhzxJuLNyhNDFWmhkyBenJFtbrzi/LGNnNhuSrzRtW+2pCqJsX44+5JU3h10TrdQTXZTtainlT1kv2EBX8z8XY14qpZavqjH6irZr2pJtz0ghow6rqmdRIavLzwB92BsOXK+JrJshRfcIca/Kcv1XnztqubvqlQ139doSa98Zx6+MtJavht0xqXCf/45DvdgTC+vF3ezLmrGx57T42+73o1Z9lhNX/DW2pR2S3qjfW3qJvnTVI9f3dHUwdxog7hvrU2Mm/iXDXsnq/UiD9/o4oumKqcQ655m8920qtgMpnw/qrtWjckNuGHqIpqvijITsdZJ/TQuiJxa+xAfr35cL2+F44oBIMh1PuCqHF7UVZZh4Ol1fjD5LHomcm3JWxJHRz0AEWuGHG3VwOBQAgeXwBVbuHEOlwxti+O+JDUiZY3Y0vl2e0fnoIoQrBRtTjtZmS5rOiQ7ULnjhl4YeF2vPrvlVhf0sSJuoNwOJwVghd5Di9Kq/chwg4K073omuWDw8ZOnLFOrC4nunXORTqvGZueQigSGDlmtm2xsG96IVC1I8bKq+bWosaXyfsKfn8IdZxOBQXrhO65JKo1RgtDGktLS9WG7SVq7GNQPlWlfi4pVaV1QVXhU6qc7fbPytWuioBaS61cSxZtHILRgayCsPEJU6HlYWaiHPC4skGpGfFOfAEOydgSO5A3bdixV+3h0yIPHIBucnzhfW+rjC6/UYOGX6JCYTJGax3IW4SV5UeeuCCJQHUZea2a8fj7atpDH6hJt7+oxl7xiLIXj5ovfSQtYwrJ8tclFZA9rYhuxefMhLnbSFSYuyKlYw+EcorRYE/B2Zf3ntKiAyGrmBbpVXfCA1dhVxQc15c9FSCtTxFGTvwcuQOq0GvAEXQcdf1PjasgRDSGryWRohyJKjXu0Znq1k9K1Js7PGqp+xG1Pvondc07T6uBMxaoovF3qKQpCGVEx0a5FzJRk6GyMhX11R44eTVqKsH+kjCOy9qIzvZ3EfA7rk4aQZINi5/8ftZ76oxZi9RD/9mhPvrpiLrhlWfVadNHqKILZzRppPiK9ON+SGvNMnTmmr43vK9GPfCt6n7pFJV/zh/lxwPZrI1aWTox9MLFw/okiFhsWrHpib6Q6YlPQXbnPKWJ+EsL8WKQ8w6GoyjKd6CswZRsQ5J6jZ20GMC/V25TE0/rC9EtLlc6LHQapMnGxYFXTIY4M/plYeqdCBr8QfjYvLxZ7/Wj3uNDjsuCMaf3h/A8x9vmQJIWUV5iSIYcm/niTs4Inl48Bhc/aEKX9CgybCbYOCInNUKG3aI1RW6mXWuLgjyqnYIMrK5PR00oDd3SgR4Zor8wX7iq0alIoEQLCnz4/XZ14am9UFYXgNlqRZY1hBsWDMCWdbuw7HE/Fm4nCWSgbPtqIthTHdLUELUtrp4sxeT+Nk2R+T95cW7nCNz1Ppx9am+kUTiOL3KJg1ZpjCFpACTtyGiqf/El81xQEa41W+I+w9oB9tR0mFPsWLd6M1bP9aC2waktt7C9LA31BJ5aUYnTu1pR5IS25h6ahpN7d9BOYhfDosdH0IICDaqmSdHEH7pgTjZqdgPLX6hJYiO3O4xUa55+uWzCkCQCmVEc3igCwTD8dCl8HETPAip0qoa8DEvMpYhvLXjgg6UHYEMWdh1OpXdEXwVB7aNoX4XH/mAWvP5YM/Pl0oGhtyw8sFIV2ckjL/zgRoNKbeQRa1oK77V4XbIylEHJWjauj5zTy/7onkNYOvcQ6usiEH0nL2R/WtdJk2N9LtfZZCByTq2sTZrLYUEar1nkZvMt0Q+Qe699/ZPWQeKlVFC9V7GJoRE9qW1E3G8S70W8UqPJ+dOvfah6j7pE3fjQQ+rx119SN86eq/70t6fUQ3OfUBdfc5cq6DNWmdJ7T0oaQ/MBzP9qbeMA5OXyYvG37qZVO1gXbnTYGug2SRO/+aEXPlR5I+5QRef/lZ7hK2rGc0vVTU8sVVMfW6x+f9+XasKdn6jxt76tLvrjrTy/SZ108dXKddxvR8bEKcEbkvO5X6xpHIDM/H46c29tqGv0Fmd9Va7uZZsdb2PueE11uXiO6v2HBer4Py5SQx9arc56dqOa+OoONfPT/Wr6+3vV1De2qxnv3a0+2D9NPfvdlWraS5PV4CunqZyhV17UYgAvfb66cQCNZCd5H6RnWVof1jOWiIlWWZur3pPuUYNufFgNe2CFuvTVberWLw6ph3+oUXPWu9XjbLNXfaye2fqQuuWrf6qL3vxZDbn77+raly5WY+6ZporG3ZZszrQoUYSMTet/TSY6XGfkUQumxm1CzNxJ83rJ+bZ6WEwK2fZU9Otox7BCG3q4lmPC4HmYPHQbhnYO4uw+O3Be36cwcfh6Bo6Z8HjM1BnOJg/fUMHPfbSiVR4QPyPRaTfWXyjS7Xez1YBpz6uJT61Wsz7aqV5bc0Qt3Famnlo5Vc1ZPknd//kEdcub56nfP3m2Gj1zpOo/ZZLqMP5hPbcWiujpD5aqWyaMaCku7VzpcsEzMOfkobAoH0V0QzvnOelBptGARbFuwwIc3v8tDVc+nYBu8Hnyf67+dvaJ7NLfYgDH/OamH1h4KD5B95QTb7vTkt9zmNlihiniRcRXjnBFyarAlnde5v2DbAfY9rP5WvUHDOmIL7+2pzFeiPkDcqaXrNm5IVGjTh5Y0iUzTVRuu1uLAegopdlmvFSYjvFK3CGJOyNxh0T871DcGQnQDuTlumjKk2OR1kbT5gCMYMeggo6W4qiCWLxgiIYmII2OSANjCzr+Hm8D6jx+RtcNeHT6uajyA51dRx9EmwPYWUs4JY1+LptsdHxo2Rhl8OVi/7W104MIMfLgIGhyJZiq9zTAzXbv5FMgfQgscbRBtDRPcTqJMenCaC3PFmuFTqWDrjRaHwtvSrOb07Sxcdgs2uCk0zvKSLcjk022LCv1BK3oIU/LZTWWo80BCOFIdIz8cwoe+GK8Ptbevlg6GQRNqzSbDIKRoJPumQwixWLB8goRCCCf4+idBQ4eKCV20RoPtDkAMa1kM+1g1Ptr9bE8LBZVTKsMwswBiI2XQdhJCRlExwwrTqM3NGneDjz/n834y7/WYMYzX6GyyoPNh+r2Nh9ES6eUM5XZOsyy5x/X3tvg1sc/HKjHJnrL0pbtrsN7G9x4YXUNXlpTi3nr6vHGRp8exMACO3rmWrCMlMjK4JKwiUOyaOXa7s0HkMSE5OUWZBo104Xi4ztj3tXbW1BQ/MEGMqZ2RsmUIh3CmBsP+/Dtbi8u7pVGN51RflUNLjpzAN5fsgozLhvdEiYwepYBnPVnFzK7tnRIU8HZ2Aq0Q2pJdeC5qcu5NByAOK9xjzjCAVSR6+b9WIurBjm0L+hhq6x2Yxw97QWLVuCOSWOTBpC0BOJ+yZpX0wEVJ9TYi3dcvjOIbev3Y+Oa7Vjz3U/aVRNG1W4Y/5nJE2kkcx7l7rbhuVo6ZDnS48wpHnGiu2dMOmkJytz7H8vMzLgzkdZn3pKNzCLgk5nJHrE800CnlbZGb8LjsVAtthxB3vBzORqoJ4QCw/sV4qWPF+Ouyee0TYGCrG6z6sqDqD3ix+6SBs2MjXEBj3ftcqNknx/79gdwuJRYK18qomkE5EIJH+VemFJE1G6hiFrNlBA6pXywFS3fwiuOdOjQAQUFBcjv2EmTWQcnov953LVrN14vQF6HjsjMzom9mE2WQg+ELceRirG902OD4JLYOAgZSCpvtrsEEh0bxqiCetxhK8eIP3TUVFg+rwzvrrViW2VQu+atbSJCM8/M15bz06312M5Opg3NQmWtBwOLMvH4gi8w+6rfti0FSQNoYIQTPIz0zIRXhQp1WN6aeTH0nLx8Y6kfn2+r125cmDwhA+jXKQOPvfkZ/nz1+W3zQOKspKMUUx727Qpjw6YG/O3jeu0DCpmlB2PdE3lAjg9VuHHDTXdRTC9A3+NPR88ep+Dxvz4DE38guMJRFVEiBSpJAZmpXt/4OsuL9TXZN+tJuj7p7Eko6JyJ8WNPxsG9YUTCJhT1CqKuJoili3Zhx66dqN61+JctQSV5wJil8VJj9sYSGD2567049eLrufbZmHzhUDQErQxQLcQ769HQQEclGIDPW8+BVGLDujWo27OocRBtW0Njtnx0M8XyMQJoiRQwuF72/cfdgaClJ8y5vaFsVKO2jogw2xMyFyKQmotAWi6CaVk4dVw9Bg4rRt6JFzWuxdEHwEFs4ss/I0PNGpXfuBzGugslLpn+BGx5RbDkdkZqdiE+39oAa04urLk5MGdnIY3iGsRqhIktLFuWjcFnRlA8oAMyB19yf1yDJSPfBlRWFQ9I72JMqANRgnezvoyFZYmhWcFZf1I9rnxZHXfzx2rgXcvUiDnr1LgXt6rrGZLN+GSfuv7t3eryfy5RHxy4Rb22+Rr18MJJ6tx7rlWFo6fGqNA8NjQGYETEO5gTupsvFtCTli8pNKuu86kBzCj0u+nf6qTZy9UYxoSXvr1HXfdFqZq+pFLdtLhSXfmf5er5bdPVOc8vUuf85Xr1IIOUy+ZMVn0um64H0OYSyE0hcUdXGqaeko1Hvq3QrJ8oAT/vOYzOxWZY7A7k5KWje2E6+hS60KujA92yLGxmjOr/BQ5VDUJWThm8lrF4b2ERVXMAVmfM2TzqAAxJk0HMGk1sSccE8Xgxvm+gtxoN1yEv3YIuOXZ0z7GiK5/PSFuD8UPm4OTiCM4fshUXnbQKnToUwpE/Dnv3O6nQYthfmwPQL0rQG81fLPcK87NR55b4zgQ/7X6UgW0+A9RCZypO77sRxNigAk74PVakhFMwvOtcnNHrNbrueQgG2qNA/OWNLzZmHwuItFYsKshBbaUJ3bstRUP9EQTo/dQQ3gvQFJcHN+FAzV4crqxGNRVRdU0YFZUhlJbxmL/xuGOe89EpEF+DJqg2hkQnItKZaRnYtS2TQacVtbVe1NZ44a1vwIYfB2HDthqs37EfP2zdjbVbSrDx58PYudONKE12OIhXNZ8l2uhEVdxM0x71tOP5z6JTcVd0LcpDry5ZGpLrxKCAWSlUN4Tx+bKr4a4JoaY6DE99Mdzu41DxxSytDf8nA9i4swxnzfwQBV0K0blTNsNzFzpm2rTIuH1hLFl8A/w+M8KhLkRQ+8O9+Yti/74lEiFHWgvP83ijswzuGKhgMjk69nOecc+b2R3zkJuXiXRGR+IFVRz8Hu6KrXx5BgeRgZrFjw1jv5RpMDsG9/8SH2DOCn1N3c6+MK3HWddZHE57WmoqIp69iDT43YGtHzwVde/fxGcEH9jHVs4WTRpA4oyFH2STvGLz/EFzyiQ6Ixo9iEuM1hv62MgzxDSvDvPje/ERxBM39sS/4m5+Uz5C5yTYnIyW7U6bxJvt5iF+6er9IkXYXmeG3xLT0vzjBe06SOMbUvS5KY7syr6pCZvEQs1Yk/BBQgwzY1BBdo1AXCK7AJWuTYWJe2C+BNytpR/aG2vz++1ygJHAMX4ouInFwUQINyO/lygsMQUuK0ZVw8ZCDL2irMeIgfmSbaLC1qsqUAcrFqQJwB/iXhJAIQL8EmEGCfYHmIiWZLRfjhniFBF7m3bBYA19CExO4BJUNL+aI34VB0gwKLgNEVEUMyHUPaHJeY9MEwqcJjBppWNyc1qqBhI0oqGTBmkaULCxhsZOZMPB4FEgFmccZnHxhxpqcdk03JKR7kCmKwa7OB3UbtwEepFxCPxC5vrVHNEuAVp68U0hmMsS0ajJyPtNuOjvuWx5GHEvIyteS+c9YWcr2TiW0IgRwoB1DGjHIIQB8Ug0LYRIJ9TjclqQ4SAhRO5TOHGrA7USeHLL4anAP9IcXAzRK6TtMROiXRGQGplLfnNco+iICKSnS9Islk6UbeTsNJw2dDhXxIxl3y3BskfD+nq5j1qYAwvEsXcjLo3hqzHRiCk/EQsREYqDHGugJSYSIh5BiscOhqOrWHxl4u8mHGeH3SSiQjHRYsM9j1NUCL8dMVBXTjREUyRIbyqOakM5tEuAd0mASxMIsLuSVRV0P0XB5TsCuttR99gw6IT+1AlmrPthPZb+jQEVt/k/+vXKEMzXEzOsgxwLqlQfoA6ImYTYvbhFEESiyTJEceVARyNBtpMQK0mIFD4zNJ+oJas9RDcIXuv1eHDZuSdrsZN+V2/egmvHD6OwMCj5NQQIqQYyN+5rT7Oeeacdvfp3IQek4ef1e7H87wxp29l8YSYRgqlUfoz/E5RlDIyOKUydHdcoOAnFB4UjtlUEsWy/X5fAnZifgkJ7LDMqytJT78H5Zw7UBJDff/rdatx+6ehuHIrkBFrd2uQAI38svzrrfhfSSEeBaBptux40z+N7ZwdRShbUHgxqUaDk8wGST5qYRn2cAndtHb5/meVC3OoI72kRkRoL6Up72cSj4kTQdW0iGiTElvIAMUefvn9aZwu6p5ti7E/CSBMi1JMAZzE5btMEoA+zeCVmTBpTzK5L2iJA2964sKNgU2wCDTkZD8kkHdxL0+fxYzmXZ0KhoL5nyQ3BkhNAZoEVBV1zUNiN6aPundCtZ1EMbIv3a0T2Yv/FNxBg3izKkh6cWVuPOARNbCuDTtDEgem4eVgOBhc6NPSocXFpVJZiNaQl+hGtATHNCdEmB7C+L4sP17THynL/zFuzNKgrHFG7lzja87W/5GeELjM1B4i/YGzajxB9kcARhlhEpUKlmWhoZSniweb2eDG0byea2FStXF/9bClmXn72UTmgPSWYNef1T2rOGtytETwoZcBntzHU4UCGDRPxohW4ObeRAIwBsfyfVfr6D6tLkMIVbXSU4h6hxWJFdk4OsnPzNQESN+O0kRDx4HMnkSqXJQW5LJ6K6QcRj5hDJSU7Qgh3nQeDWbdrjxMgjgf/VwTAW0s2qd8T3zc2MYMdWFco2RK7TQIaYMQNTQQQDljxcowAwWCO5gq9wgnuYlthVgufQ8cRsRTA5rKABjyljGjigAxNCENZihcpBKkhQte/KEtzgFiU597/GvdcOe6/I8C/lmxUl1OzJhKgoxCA8mqxSkBFEZhGvFpEgBPVIkAoWTaBkz00dax1aFrkZrOX06SJt+J5zRyZH0MCSIhNRwJYSEJIWdMlcUIYRVw15IDeRIGFA4QAT77zFe69avx/RwAp1Z08clASAaSyVLw7s/VIMv82O1OhgsbKArl1LAF2Ih30cZwbNFL5c6xo9Zw+LhzfwRIvGCIH1HlZb+yCg6IinPf4Wwsxe8p5v84KGHNpLa0hqyEmq/SACVs3VGPDmiNYvvwgnlywE3Pe2olvVpSjsjQtZibZDG2fmMlIxHabHyc+J0QTU7WlzI/Hl1awdqwe5x2fjjsJ1Q7qZIu52LQakqCS5GWsr1j02VpGpPmKtacE8fo3P6krRw9pIQIxQCcBqIwfl3vCtO8R9MkXB6xp1Y3n2+OExpXnwYHDR/D0i6/hm2UrORlmaqMOFBBxycrMYExhjYfdJqLvPmbq61B6uAxlZRVMjrowedIFMHXsjAemXvjficBrX69T/zfmhGQRyElvZOfm+QrjXE80TpQWk064nrgiMnk32fjOh5/B8rXrCS05UVDEIpwh/Yhr2pCeQ6LsYYWAP0M7Ok7nIeQVptAFDsPMyHPXFtZRem3EPGXvwYH9B7B/X4l4iQ9EK1ff35q8tssB8xetVVPGnphEgE4GARI4wJhsWZwD+iZwQGJKy9ADzfWBTP7i6x7B9xt3wmxjsGVn8ajFQTQ5B2ec2JNaXhAik7YosarVeHZafAC6wcIhEX4dEqYzFmQ+Juh3I9hQjgAB47o6H2rryll6F3jAt/urJEK0Hw6LsLdKuib2lwmKcnp0cQUDoBpGfwKIxtNpcSIlpdTkWryJzG7duR9FZ9yAdfvqYevQC5a8YhYgdWW6pYjIYTb2utNgcubSBc2ONXs2FFtUmi0LYVsO0y85rEAKwI865oKsGHDaXmQW+mDJCuDkc8zof2ohuvbtdF/2kAl7x/z5pCbXpDUlF2Pf2DOvsJLumnNOTuKAQuGA+MQkeSX5I9nO75eOQQW2xkTWXyShkaArjE4SV7++thb/eu4fMLtykObMRIrVxZIPBxsVnNlOS2OBjfiAla5wN35R0lmAAL5c6pR1bYIOhckNUkrs3QNf3XYdKXbudJjfLqVTH1Sid78A9u6x4uC+VBw5wKRpaUNJ1ep/iW5IxqUTF9ogwFx+LzL13FOSCZAb0wHSKrxhvPVTrV510c6DhQDxGepnmomJoQ+MZ06f8iDKWWoUNXeBxZUJM+E2IUCq1QYbgRAbgRGrNBLAwpggjaBKqthg9muXWEFeEg0g7F/GYrwUjB+xRX+b47T6WDlMh76Wjd5rFX2zkhIXDh2wo+KwCd6a4KsVK165ul0d8DJLGa8dNzSJAJ0NAiRMtNwgBCO784UQNFFHm7z8dNWGXZjyyCvo2tuKkoOZcOb24lcblH2HE64MG1zpVh3oOEgAqcexkQgSOBmbSKcow/qG7cQM11M5FpA4J1MpstqhaifKD3yLwmwPhg0sJXFCKCu34+DBbJQfsaOmNIzSRc+Z2iXAi599r64bf2q7BDAma5hBUYLNCdCoAONcsWrjblz92Hx065OqQVBvZDjSmVLNoYjlZAsGKBGewGOEw62cPBVGLFFtQl3gZ5rCLejfbTu/m/Hrsg7BCDxciE27LFi583KCJJI9YyFbVSXcR9YzZbOWCFM6CeBEDZ3VA58+IaD10bfWdETcv0lK3xm9SC5RfAD9TNx7SzyW54zrsoLBoIk1RQKNiQYPMNcYJZIQRbo1hdVXZnTJNKOI+yL2W+RKRUebBz06vMLc4yKM7X+ICVTqCZUeSwPW2xDwWFCYEWKt6isodj6Pfjn/QNeMd/gtySYSjF+pBVJIFDstRwxcbZ8AbVmBZnRrPtnG282IEMdUtCd52qCeoGQzcUa8k+PJYcFtxF+JMCEurydA88UqQFYDSj5AoFYrlz8QXYDCXC9SFWG5sIvPO/TEfXVWNHDyDV4L/F4zzSDzpBle1lj5mKhzUy+EsW33cUSN6KBpEMf80S9Sgs9/vELdeMHwZCVIFk30ApOcobaUXhvWYOF3W3H9nLeRU8BizwIvIfN6+Hwno7h4GPKzHcjLsiGXoiAfhsgnmr5ACbzmZ1kE1BD7eoXYYpABl98fZU0Gv0H0RVnRHKHMSyNKxLL7egZjbn7bUXpkMOlgQyRgqo0EfMVVSx6pbVcHPPfRcnXThacnEaA9sTnW+8t/3IHZz38GOyeakdcdmVkEWDIdyM1i40cqeSxEzGEKPsth1gXJ5tQwCVEJb6CObrcbe8uWUN73kr29JATNIYng8/HrCRLCR/Hy+7PZclm0zJKNQEZtNBw+oXrxgyW/iAOe+WCZmj7hjGOd0zE/72bF7enXzUcFvxx0ZmUgIyudCREnFaEN2bQI2UIAKsRMEsHFhEoKxUF/rked4QtGsfLHp4gJbtbcECARggF6jczIhsPZFKFC+gy5CPkjH1V/M2tC4uDa5YCn318Sr5PWKc54hNd0bBRRG/hbU9lJDObW4JaGvZMLr1s8F3+mrKoBn63kl8msi3Sku+DMoElkRsjFBIlggA5ygJWoSKwAT77jlELNKPZsewfu6o285iBuQN0QIeAadtBJIuwWSF1bv2nBjeHqHQJUkMQQ2Fqw+3C7BIhTS1Smgy3+WdcxhfbHwg2ilCU/z7AHzpSeF52RWjh0qsWZ3sFit8FCKM7CkngzCSBQm4Bt4RDrsao2crK0INE0yjiTMWxhn3dbcN+qN0JHftrMvgSi4sfejU1gaSHELybAsUzif/WslLGw5hmZ8SbfgGUhq1dv2DsUm1TYwYjfpqJh6mBTIOresx8B9774ZGvje6p/SJPJSnKk6fuQ+Cj/H5HRFjqKrOy6AAAAAElFTkSuQmCC;" parent="E8EXf81J99poO2dU3TDC-1" vertex="1">
          <mxGeometry x="10.857142857142856" y="16.5" width="57" height="57" as="geometry" />
        </mxCell>
        <mxCell id="LutIZjnGn2v2l-_MyvBw-4" style="edgeStyle=orthogonalEdgeStyle;rounded=0;orthogonalLoop=1;jettySize=auto;html=1;exitX=1;exitY=0.5;exitDx=0;exitDy=0;entryX=0;entryY=0.5;entryDx=0;entryDy=0;" edge="1" parent="1" source="LutIZjnGn2v2l-_MyvBw-1" target="LutIZjnGn2v2l-_MyvBw-3">
          <mxGeometry relative="1" as="geometry" />
        </mxCell>
        <mxCell id="LutIZjnGn2v2l-_MyvBw-1" value="" style="shape=image;verticalLabelPosition=bottom;labelBackgroundColor=default;verticalAlign=top;aspect=fixed;imageAspect=0;image=data:image/png,iVBORw0KGgoAAAANSUhEUgAAAaAAAAFSCAYAAAC0bAtLAAAgAElEQVR4nO3df3ATd54n/LexZUswZqJg684UNolvzh4QlTwB3zyFMGDVhctO6TZ/YMYanso64WqvNrod75NMTKZy1IVibxhqBlPJnmfHSV1q5vCkhpgz7OzMumbnkjwihIhhY1OHax0qzFkBibEX2WBAZNtGxjx/SC23Wt2tbv1wy/b7VTWF1er+9lf2pN/6fPsrfUuE6emHICIiKrB70WjK4xUm9YOIiJY5BhAREZmirNAnePXV1xS3/+hHRwp96mWvdfdu1edOnT69gD0hIkpX8AAC0sNGLZSKnfSCvtAXcK0wESn1SWmbnraIiAqtJJ+TEIZfac3p+CeOnUrbpnTRl19A9YZB6+7deQmOfLVT6D6wAiKiYiKfhKBZAUUiEbz5xhv4wZHchsucncdSHo90vaLrOPlFVnx86vTplOeKIRCysRD9ZgVERMVKNYAikQj+6s03MTMzk5cTvfbG2wCAIy//me5jCnFxXqxhlS2GDREVK8UAEiufbMLnSYVhtNnxq/iP3/pjzX0uaQzfiRfRXIJDDB7pBTnTUJ7e88r3kz5WO4e4PR+vTQsrICIqVmkBlEv4AMpB4uw8hv/+P38NIF4BaYWNkkINtWkN5RkZ4tMKGvnPaucuFIYNERWrlADKNXy0GBl6KxRp1ZHpwq8UKtmQtmPG0B8rICIqVikBpBQ+JSUlOZ9E76QDuUJUPGK7Rs6tdwq0WtAs9GQJrWFG+fbldD+MiIrLspiGrXaPRt6Gnv2UjpOfSz5zT23/XD5XtNwmUxDR4iefhl30AbSYLGQo6P0ckNoQHMOLiBaaoc8BkT6FHs7KNIwmpWe4b6EmQBARaclrBURERKSGyzEQEVFRYAAREZEpGEBERGQKBhAREZmCAURERKZgABERkSkYQEREZAoGEBERmYIBREREpmAAERGRKRhARERkiqL+MtLRYBBDg0OYunU7uc1qs8Hb1gqrzWZiz4iIKFdFGUDTgoDjx9/FaDAIALDb7di162lscm5g8BARLRFFOQQ3OHgxGT4AsL15G5qaNhdF+Ohdzlprv9bduxWf17uNiGgpKEgF9PBhfIUHo8t5j4+NYXT0C7z/wYcp2z8dulg0ASSntuKpfM2dXFY/JSJaigoSQJcuXcKlS5fQ3t5uKITeevsdCIIAID7sZrXZMD42hk3OjSgvy65Yy8eS3tK2lBZz09uukeDhgnFEtNQVZAjuxo0bKC0txd/+8peYnp7WfZzVagUQD5+XX+rAyy914LXXXkVz0wZcDfwCE1cChvohXsTF/8lXLpVv19OWeFw+h8akbSn9rDZkR0S0mBVsEkJ1dTWeeuop/P1vfoM/+uY3k+Gi5YXnn8PH5z7B9uZtyeE2u92Ou+MRzMVmcCc0jIrKNVhd06irD/mqIORDaUrBpWe4TWsJbaXHXDqbiJaygs6CczgccG3bpjuEJo514OsAJi68h4nEtlLbKjy273tYU9+Em8FBREb8KAFgeViB0Z+8jgfCl8njnzh2SrFdeeVjlFooqFVCmYbkMoUKQ4eIloOCT8O22WwoLy/H3Nycrv3VQmQVgJgQxd3xz3FjxA+H0w3n93uTzw+/0qrapt4LvxZ5mCjdB8pXcDB8iGg5KGgARaNRfHz2LFrcbqxcuTLn9qoaXJi+dxP3o5OIjPgBQPdwXK7koZDPezJKgaN0L4jBRERLScEC6F6W4fPqq6+pPtfUtAW7n30God/1Y252JjkcF771QHH/Qg1lLcQQWT6qNiKiYlaQALLb7fj9lSt40edDWZmxUzz34Ir6kxeuIPr4GlQ3unAjUQHdGPGj1unG7Le/k7a7/B6N/N6M0cpCLQwytcMQISJKVyJMTz/Md6MPHjzAw4cPDYeP1n0cqYZXjuHevTHcDg0DAFaUVWDdlmdRXrnGcF+NkoeJVigZvS+ktC/Di4iWinvRaMrjglRApaWlhWg26erPfoiG73ZhJjoJYWoMc7MzuD70K9S37CvoeQF9kw2MfGYo0/0f+WOGEREtFQWpgBbKXGwG4Qv9iE1HsbqmEQ6n2+wuERGRCnkFtKgDCABi01HMClHY7GvN7goREWlYkCG4hWSxVsJirTS7G0REZFBRLsdARERLHwOIiIhMwQAiIiJTMICIiMgUDCAiIjIFA4iIiEzBACIiIlMwgIiIyBQMICIiMkVRfxPCaDCIocEhTN26ndxmtdngbWuF1WYzsWdERJSrogygaUHA8ePvYjQYBBBfX2jXrqexybmBwUNEtEQU5RDc4ODFZPgAwPbmbWhq2mx6+GS7DHc+l+8mIloqClIBPXwY/4LtkpISQ8eNj41hdPQLvP/BhynbPx26WBQBJKUWKkrr9RhdmI6IaDkoSABdunQJly5dQnt7u6EQeuvtdyAIAoD4sJvVZsP42Bg2OTeivCy7Yk1rSW75dqOUVi9Val+pL7mem4hosStIAN24cQOlpaX421/+En/0zW/CarXqOs5qtUIQBNjtdrz8UgesNhumpqZghYCrgV+gsqYR1Q0u3f1QWz5bXpHoWeFUrU0lDBUioswKNgmhuroaTz31FP7+N7/RHUIvPP8cPj73CbY3b0sOt9ntdtwdj2AuNoM7oWFUVK7B6ppGXX3IVxCoBZWeeztqIUhEtNwVdBacw+GAa9s23SE0cawDXwcwceE9TCS2ldpW4bF938Oa+ibcDA4iMuJHCQDLwwqM/uR1PBC+TB7/xLFTiu2KQZHLhV/P8Jl8H6Ww4f0gIqK4gk/DttlsKC8vx9zcnK791UJkFYCYEMXd8c9xY8QPh9MN5/d7k88Pv9Kq2qbeoTY99LYh7qdWATGEiGi5K2gARaNRfHz2LFrcbqxcuTLn9qoaXJi+dxP3o5OIjPgBQPdwXC60wkSNuJ/0OOnxDB8iWu4KFkD3sgyfV199TfW5pqYt2P3sMwj9rh9zszPJ4bjwrQeK++erylBrI9MQnHQ/VjxERKkKEkB2ux2/v3IFL/p8KCszdornHlxRf/LCFUQfX4PqRhduJCqgGyN+1DrdmP32d9J2Fy/80sdA+nTpQgcDh92IiNKVCNPTD/Pd6IMHD/Dw4UPD4aN1H0eq4ZVjuHdvDLdDwwCAFWUVWLflWZRXrjHcVyPkU7eVKA3RZdpGRLQc3ItGUx4XpAIqLS0tRLNJV3/2QzR8twsz0UkIU2OYm53B9aFfob5lX0HPK5fpg6hq34qQaR8iouWgIBXQQpmLzSB8oR+x6ShW1zTC4XSb3SUiIlIhr4AWdQABQGw6ilkhCpt9rdldISIiDQsyBLeQLNZKWKyVZneDiIgMKsrlGIiIaOljABERkSkYQEREZAoGEBERmYIBREREpmAAERGRKRhARERkCgYQERGZggFERESmKOpvQhgNBjE0OISpW7eT26w2G7xtrbDabCb2jIiIclWUATQtCDh+/F2MBoMA4usL7dr1NDY5NzB4iIiWiKIcghscvJgMHwDY3rwNTU2bF3X4aC3fTUS0HBXVt2GPj41hdPQLvP/BhxAEIbm9Zu1a+P7sT00LICPhIV+FVc/+RETLQVEvx3Dw4F8mg8dut8Nqs2F8bAy7dj2Nf9vSjBWWCsNtai3JLd9upE2jS2xzOW4iWu4WNIAikQjefOMN/ODIEV37HznyI0xNTcFut+PllzpgtdkwNTUFKwSMD/8WlTWNqG5w6T6//KIvX1Jb6WettjJRWnpb7/5EREvdgq0HFIlE8FdvvomZmRndx7zw/HP4+Nwn2N68LTncZrfbcXc8grnYDO6EhlFRuQaraxp1tZfvC7w8sOQhpnVuVkBERKkKEkBi5WMkfABg4lgHvg5g4sJ7mEhsK7WtwmP7voc19U24GRxEZMSPEgCWhxUY/cnreCB8mTz+iWOnFNsVwyHXAJCGjPizUqWjVv0obWcoEdFylfcAyjZ8RGohsgpATIji7vjnuDHih8PphvP7vcnnh19pVW3TyFBbpjb0tKO1LyshIqK4vAZQruGTSVWDC9P3buJ+dBKRET8A6B6Oy4WRKkfpPpDSRAgiouUurwGkFD4lJSWG2nj11ddUn2tq2oLdzz6D0O/6MTc7kxyOC996oLh/vqqNTBWM2nnUKi9WQURERTYNW2sYTVT77e+gbN1a3EhUQADwL5xuzF4fg/3fuNP2z+c0bKV7SWphwllwRESpivpzQHoCCAAaXjmGe/fGcDs0DABYUVaBdVueRXnlmkJ2L0nvkFou076JiJaaBZuGXUhXf/ZDNHy3CzPRSQhTY5ibncH1oV+hvmVfQc6nVTGphVGmKdoMISJa7oqqAjJqLjaD8IV+xKajWF3TCIczfQiOiIiKQ1EPwWUjNh3FrBCFzb7W7K4QEZGGJTEEJ2WxVsJirTS7G0REZFBRLsdARERLHwOIiIhMwQAiIiJTMICIiMgUDCAiIjIFA4iIiEzBACIiIlMwgIiIyBQMICIiMsWi/yYELaPBIIYGhzB163Zym9Vmg7etFVabzcSeERHRkgygaUHA8ePvYjQYBADY7Xbs2vU0Njk3MHiIiIrEkhyCGxy8mAwfANjevA1NTZuzCh+theVad+/WtVy3nsXpjByj9pzYHz3nIyIyW1FWQA8fxr+g2+hy3uNjYxgd/QLvf/BhyvZPhy5mHUByehejk++b7Sqs+ewPEVExKcoAunTpEi5duoT29nZDIfTW2+9AEAQA8WE3q82G8bExbHJuRHlZfoo9tUXmRNKF5vSugKr0vJFF6xg8RLQYFWUA3bhxA6WlpfjbX/4Sf/TNb8Jqteo6zmq1QhAE2O12vPxSB6w2G6ampmCFgKuBX6CyphHVDS7d/RBDRgwCrWEypRBQq4CyDQx5ewweIlrMinJBut/+9rcAgKeeegqBTz7RHULjY2P4+Nwn2N68DTVr5xeouzv+OSIjfgCAw+nG6ppG3X1Ru9ArbRcDQqvykW/LpjrSWu5bxHAiomKzqBakczgccG3bhr//zW90hdDEsQ58HcDEhfcwkdhWaluFx/Z9D2vqm3AzOIjIiB8lACwPKzD6k9fxQPgyefwTx05l7JNWYGSqktTa0tpHPhSntK/eoT4iomJS1AEEADabDeXl5Zibm9O1v1qIrAIQE6K4O/45boz44XC64fx+b/L54VdaVduUBkWmqkdObX/pc2oBotU2w4aIFruiDqBoNIqPz55Fi9uNlStX5txeVYML0/du4n50MjkkpzUclylcxOeymTKdDa0gJCJabIo2gO5lGT6vvvqa6nNNTVuw+9lnEPpdP+ZmZ5LDceFbDxT3VxtSU6pS1GhVQFrt6mmLiGgxK8oAstvt+P2VK3jR50NZmbEuPvfgivqTF64g+vgaVDe6cCNRAd0Y8aPW6cbst7+jq3216dJqCvmhUFZCRLSYFWUAbdmyBZs3bzYcPnqE3/sxGl45hkfqnsDt0DAAYOLzANZteVbX8VofLlWipwJikBDRclSUAVRaWlrQ9q/+7Ido+G4XZqKTEKbGMDc7g+tDv0J9y76U/bRmnGXaT/oZIqXnMk08UDuXUhtERItRUX4OaKHMxWYQvtCP2HQUq2sa4XC6ze4SEdGSJf8c0LIOIACITUcxK0Rhs6/NvDMREWVtUX0QdSFYrJWwWCvN7gYR0bKzJJdjICKi4scAIiIiUzCAiIjIFAwgIiIyBQOIiIhMwQAiIiJTMICIiMgUDCAiIjIFA4iIiEyxpL8JYTQYxNDgEKZu3U5us9ps8La1wmqzmdgzIiJakgE0LQg4fvxdjAaDAOLrC+3a9TQ2OTcweIiIisSSDKDBwYvJ8AGA7c3b0NS0Oev25MsnyOVjWQSlZRnU2lV7Tu9SDkRExaAoA+jhw/gXdJeUlBg6bnxsDKOjX+D9Dz5M2f7p0EU0NW3OW/Wjtn6P2gJ1hQwDhg4RLVZFGUCXLl3CpUuX0N7ebiiE3nr7HQiCACA+7Ga12TA+NoZNzo0oL8vffAutoFFabE6+v9IqqWpLfesJFQYPES1GRRlAN27cQGlpKf72l7/EH33zm7BarbqOs1qtEAQBdrsdL7/UAavNhqmpKVgh4GrgF6isaUR1g0t3P9SqG7UKSI00TPTsr7c/DB4iWsyKMoAAoLq6Gk899RT+/je/0R1CLzz/HD4+9wm2N29LDrfZ7XbcHY9gLjaDO6FhVFSuweqaRl19UFo2u3X37owhYiRktIJEXgXpWcZb3nciomJVtAEEAA6HA65t23SH0MSxDnwdwMSF9zCR2FZqW4XH9n0Pa+qbcDM4iMiIHyUALA8rMPqT1/FA+DJ5/BPHTmXsk5EhMT1BlakqUhrW0zofg4eIFouiDiAAsNlsKC8vx9zcnK791UJkFYCYEMXd8c9xY8QPh9MN5/d7k88Pv9Kq2W6msDA6LCc9JlNlozbjjWFDRItZUQdQNBrFx2fPosXtxsqVK3Nur6rBhel7N3E/OonIiB8ANIfjlO776Kk29FZARklDkOFDRItd0QbQvSzD59VXX1N9rqlpC3Y/+wxCv+vH3OxMcjgufOuB4v5KQaI0HKYVBuL+mYJDT6gwdIhoKSnKALLb7fj9lSt40edDWZmxLj734Ir6kxeuIPr4GlQ3unAjUQHdGPGj1unG7Le/Y7ifStOppf8q7ZNPrISIaDErygDasmULNm/ebDh89Ai/92M0vHIMj9Q9gduhYQDAxOcBrNvybM5tqwWS+LNaFcQgIaLlqCgDqLS0tKDtX/3ZD9Hw3S7MRCchTI1hbnYG14d+hfqWfWn7qoWI/Dk9w3DifkofVlU6n942iYgWoxJhevqh2Z0wy1xsBuEL/YhNR7G6phEOp9vsLhERLVn3otGUx8s6gAAgNh3FrBCFzb7W7K4QES1p8gAqyiG4hWSxVsJirTS7G0REyw5XRCUiIlMwgIiIyBQMICIiMgUDiIiITMEAIiIiUzCAiIjIFAwgIiIyBQOIiIhMwQAiIiJTLOlvQhgNBjE0OISpW7eT26w2G7xtrbDabCb2jIiIlmQATQsCjh9/F6PBIID4+kK7dj2NTc4NDB4ioiKxJIfgBgcvJsMHALY3b0NT0+aswkdtWW2t5bblz+V7aW4ioqVgSQXQ+NgYzn38Cd7/4MOU7Z8OXcS0IJjUq7jW3bsZREREEktqCO6tt9+BkAgau90Oq82G8bExbHJuRHmZ8ayVLjwnXYhO/rzeheMYQERE84p6PaBIJII333gDPzhyRNf+R478CFNTU7Db7Xj5pQ5YbTZMTU3BCgHjw79FZU0jqhtchvpgZAltpYBRW/mUiGi5WTTrAUUiEfzVm29iZmZG9zEvPP8cPj73CbY3b0ve77Hb7bg7HsFcbAZ3QsOoqFyD1TWNutqTVj56wkMpbORLekv3IyJazooygMTKx0j4AMDEsQ58HcDEhfcwkdhWaluFx/Z9D2vqm3AzOIjIiB8lACwPKzD6k9fxQPgyefwTx05ptq8UJiKtUJGGGIfhiIjiii6Asg0fkVqIrAIQE6K4O/45boz44XC64fx+b/L54VdaFY9Tug+kp4LhkBsRkbaiCqBcwyeTqgYXpu/dxP3oJCIjfgDQHI5Tu3+jVv1ItzN8iIi0FVUAKYVPSUmJoTZeffU11eeamrZg97PPIPS7fszNziSH48K3HmRsVwwhpQkJInkQaf3LgCKi5a6oZ8EZpTaMJlX77e+gbN1a3EhUQADwL5xuzF4fg/3fuFP21QoXreE4pYrJyPAdEdFSJJ8Ft6Q+iKpH+L0fw/KwAo/UPZHcNvF5AKu+/kTavkoVj7hN72QCaehwEgIR0bxlF0AAcPVnP8SjtU/CZl8LAJibncH1oV8ZakMtiOQz5ZQCjCFERLTEhuCMmovNIHyhH7HpKFbXNMLhdGc+iIiIsiIfglvWAQQAsekoZoVoshoiIqLCWDTfhLBQLNZKWKyVZneDiGjZWZb3gIiIyHwMICIiMgUDiIiITMEAIiIiUzCAiIjIFAwgIiIyBQOIiIhMwQAiIiJTMICIiMgUy/6bELSMBoMYGhzC1K3byW1Wmw3etlZYbTYTe0ZEtPgxgBRMCwKOH38Xo8EgAMBut2PXrqexybmBwUNElCccglMwOHgxGT4AsL15G5qaNjN8VBhZG0nvsUa358pou1xSgyh3rIAkxsfGMDr6Bd7/4MOU7Z8OXWQAaTC62mu+V4Y1EgZa6zEpbVda2VbpOK50S2QcA0jirbffgSAIAOLDblabDeNjY9jk3IjysuyKRa1lveXb9bQl31etLaXtahfYTBdepX7o3S7tj5HXKT1GbdE/6Uqz8ue1QjHbEFFqk+FDlL1lvx6Q1JEjP8LU1BTsdjtefqkDVpsNU1NTsELA+PBvUVnTiOoGl+72tC5Waj9n2570sd79MrVvtD9a2+WvV43W70Srf3qqIPnvQO/+RissIlLG9YA0vPD8c/j43CfY3rwtOdxmt9txdzyCudgM7oSGUVG5BqtrGnW1V4iLkdZF2Oj2haK1TLlW0BgNRHl4aYWekXDTCnlWQETZYwBJ1Kxdi7a2b6VtX13TiFkhilvBQURG/MltesmHjLKhNBwlfWzGRVDvkFSu/ZQHmLxtrf1ynfig97UxhIiMYwDp9Gh9E2aFKO6Of244hLK5D6JXIds2k9J9IK3XZ+S+TD6GJ+U/L7XfP9FCYAAZUNXgwvS9m7gfncyqEsqV/KIsZdZF0OhwVKaK5NTp06qhqnfChdo26THSfZQmimgdp9Q3hg+RcQwgA1ZYKlDz5DMIX+jHXGwmYwjlOxDkF9xsJy/km5HwM3LvRfq81uw/vfeU1PqiZ9KGWt/U2iSizDgLLgvSYTgAcDjdmiEkynYatvz+iZF395mOy2YatlL/MoWQ0Rlzan3XOo/SfaZM+2rJ9Fo47EZkjHwWHAMoSxNXArgTGgYQr4zWbf5jlFdWmdyrhaV2wZdvE7cbnfqtFU6ZqiaRnupK6+dM5zZzEgjRYsNp2HlS3eDC/egkhKkxzMVmcP3ir1G/c5/Z3VoQWhddpYoln9QCQ2kf+XNqlZHS8UrPm/F6iZYyVkA5mIvNIHyhH7HpKFbXNMLhdJvdJSKiosUhuDyLTUcxK0Rhs681uytEREWNQ3B5ZrFWwmKtNLsbRESLDpdjICIiUzCAiIjIFAwgIiIyBQOIiIhMwQAiIiJTMICIiMgUDCAiIjIFA4iIiEzBACIiIlPwmxA0jAaDGBocwtSt28ltVpsN3rZWWG02E3tGRLT4MYAUTAsCjh9/F6PBIADAbrdj166nscm5gcFDRJQnDCAFg4MXk+EDANubt6GpabNp/dGzeJoo06J1WvsbXa8nF0bb5eJvREsPA0hifGwMo6Nf4P0PPkzZ/unQRTQ1bTa1+slmlU+9K60aZTQQs13SeqFDkYgWFgNI4q2334EgCADiw25Wmw3jY2PY5NyI8rLs5mvkY0lupfb0rPqpNyikbSoFhnyxNbXVTtWCIdsQUWqT4UO0dHA9IIkjR36Eqakp2O12vPxSB6w2G6ampmCFgPHh36KyphHVDS7d7WldPPUsAS0/Tm1J6GzazNTXTG3oCTe1lUkz7Z/NkCMRFT+uB6Thheefw8fnPsH25m3J4Ta73Y674xHMxWZwJzSMiso1WF3TqKu9Qi5HrfccWhdzeVgZDS2t4zNVeVrnUgrYbPtIRMWLASRRs3Yt2tq+lbZ9dU0jZoUobgUHERnxJ7fppVS5GKUWOpmqhWzOKW1TK0iU9lPqTz7vATGEiJYOBpBOj9Y3YVaI4u7454ZDKNthMaU2xHbEbUaHudQo3QfS6quR+zJa++qdaCD/mSFEtPgxgAyoanBh+t5N3I9OZlUJ5YuRe0d62lJrT636MVLlKLWnZwgx05Adw4do8WMAGbDCUoGaJ59B+EI/5mIzGUOoEO/S1aofJdnMHhP3UwoAve1mmg2XqQrKdsiOiBYXBpBBFmslqhpcyfDRCiH5lGZ5BZHNvSF5G0ZCRW2bVh+1hrvUKiE9+yo9znaaNxEtTpyGnaWJKwHcCQ0DiFdG6zb/Mcorqwpyrmy/CUHrQ6Dy/aXHKJ1b71CfnunkWj9nOnc+JnQQkTk4DTtPqhtcuB+dhDA1hrnYDK5f/DXqd+4r2Pn0Vjriv2rVhNL+es6rd4q1nqE6peOVns80jKe2DxEtDqyAcjAXm0H4Qj9i01GsrmmEw+k2u0tEREVLXgExgHIUm45iVojCZl9rdleIiIoah+DyzGKthMVaaXY3iIgWHa6ISkREpmAAERGRKRhARERkCgYQERGZYtlOQrD95T+Y3QUiomVDeP0baduWbQABwLn/sMnsLhARLXnNP/1Hxe0cgiMiIlMwgIiIyBQMICIiMsWyvgeUSeQPV3H18jC+vHMnuc1SYcX/veuPYamwmtgzIqLFjwGkIDYzjXN/9z8R+cNVAMCq1Y/A+Y0dWPevGhk8RER5wgBS8MVnl5LhAwANT34Dj298Mqu2fvAXz2Xc5z//t3cVj5FvN9sP/uI5XX1S2k/vsUS0fDCAJG5P/hMi4Wv4x384m7L9i8vDeHzjk1lXP1oXXqWAEvcvtov2f/5v7xrqU7H1n4iKCwNI4v879XPEZqYBxIfdLOVW3J78J6z7V40oL1uBbNet0FMFKTF6wVc7pzTQ5O3rbSPT9mINTSIqXgwgifIKK2Iz01i1+hE8s/c/wlJhxZd3b+OrZdNYGTyN+1/9GqYdTYbbXegLsjwExMfyQMsUFpn20xM20rBSCkUiWr4YQBLN//5buPK//wEN/9c3ksNtq1Y/gpI7/wclD+6j4tZneFDxCGJf/Vpez5vpAm+0qjDr4i4PG6UQJCISMYAkHqn6l/jG08+mbY999WuYiX2JislLWDkewD8ntukhBogZ8jWZQSkElQJF+loZNkSUCQNIp+mqJ7Ei9iUsd/5PViFkBt6XIaJixgAyQHA0YcX0LZTO3DIcQkq0gkH6XC6TEfJF2gej936UtjEQiYgBZMDD0nJ8uWfNygAAAB3LSURBVK4FlVf/DiUP7mcMIT1Db4UYsipUWBkJQn4OiIgyYQAZ9NDyFQiOJqwcDwCAZghlO4tM6/6K3ou/1jTsbEMv20kRRERKGEBZiH31a5iZuY2KW58BAGyRQcxZH8WDikcV9zdy0dbaL5cKRG2bHvLA4mQDIsoHBlCWph1NKJ2+hbJ//ieUPLiPVaH/hbv/+tuq+8tnkCnREy4LWYFohYy8qmIQEZFRJcL0dLYf8F/UbH/5DzmviFry4H78flDsHmJf/Rr+ucaVp94RES0dzT/9RwivfwP3otGU7ayAcvCwtBzRun+H0tg9zK78l2Z3h4hoUWEA5eih5SuYtXzF7G4QES06XBGViIhMwQAiIiJTMICIiMgUy/oeUPNP/9HsLhARLVvLdho2EREtLPk0bA7BERGRKRhARERkCgYQERGZggFERESmWNaz4DIZDQYxNDiEqVu3k9usNhu8ba2w2mwm9oyIaPFjACmYFgQcP/4uRoNBAIDdbseuXU9jk3MDg4eIKE84BKdgcPBiMnwAYHvzNjQ1bc46fFp379a9vXX37oz/I2Py/TuTtmfkb6v2XCH/pvz/CxUzfg5IYnxsDKOjX+D9Dz6EIAjJ7TVr18L3Z39qOICM/Md/6vRp1TbUnsuWWpvnA4G8noeIlo6trtyXm+FyDBreevudZPDY7XZYbTaMj41hk3MjysuMF4viRV7tgl+IcJG2rdSXTNxudyG6Q0SLmN/vL0i7DCAJq9UKQRBgt9vx8ksdsNpsmJqaghUCrgZ+gcqaRlQ3ZPcuYCGHQuTBlm0YEREVEgNI4oXnn8PH5z7B9uZtyeE2u92Ou+MRzMVmcCc0jIrKNVhd02i4bbUKaCEwcIioGDGAJGrWrkVb27fStq+uacSsEMWt4CAiI/7kNiP0hI2RG9rZhorYlvz41t270dnZmVWbRETZYADp9Gh9E2aFKO6Of55VCOmpgBbiPtGp06dVA42TEIhIzezsLEpKSrBixQqUlJTkpU0GkAFVDS5M37uJ+9FJXSFkZLouh8mIqJh9+eWXKCsrg8ViQVlZGVasyP1TPPwckAErLBWoefIZrLBUAAAiI37cHf9cdX8xVE6dPp38n9rjQuJnQYgoV3fu3MG9e/cgCAJmZ2fx8GHun+BhBWSQxVqJqgZXsgLSqoTE4TOtDx6KzxdymE1pRlwhp4AT0dLzhz/8AY888ggeffRRlJWVobS0FKWlpTm1yQDKwuqaRsxEb+JOaBgAMHklAOtX1qC8siplP6UKR+nCX4ggUGuToUNE2bh29Srw2GNYtWoVrFYrKyAzVTe4cD86CWFqDHOxGVy/+GvU79yXsk8us9o4bEZExWTm/n3EYjHMzc0BAAPIbDVPPIPwhX7EpqP4StVjac/nUm2wUiGipY4BlIMVlgqsbXoWs0IUNvtas7tjikCXB4c1v6WjHu093fDWpR0Iz2HgwEAncv+GqTwK9aHD14ug+wAGOtV6FkJfhw+9QXdK/+O/C3fxvaa8GEH/ocvYcHAPnAVpux8jGfdzYo94/sgZ9PR8hIjqvg7s9PnQ4shfLyn/GEA5slgrYbFWmt0Nc9W3o6fbC3nGhPo64OtVOiCEvhPx1DrcUat4rJq0wEsGRQBdnsNIz0KVAFRTV4v1AIL+AAKdLuUgCZ3HuSAAtwuuRGChvQd7dZ4CACJnetAzuQMH9ziRegGWXGQRwZmeHnyUcpWVPq95hvix1XsS5yhmTuw56MQeyZbImR6cQit8WgniVH9tI/09mEj+fAhnq3zabZEpGEBkgjp4uwewta8Dvt5eHO3bim69CVHbjp4BL+rEwPEfRpdrAKrFCoLo9XnQq1LRqFdwfhz2yJ5ItBE6fw5B1KO9zYXQ+Q4EAbhr64CwvpeAyBmcurwBPp8T8aC4jA0HD2IP4hfL/v4NcEourM49B5F8ONKPQ4cO4bJ0m+I5PsNlOOAYuYyRPc4CVC1GxMNwckeGPhs10o9DI/0qTzqwc0f8J+ceHyZ6TuHMRlZExYYBRLkL9sLnUSx1ANTj3FEPwnvTQ6LOuxfu3sPw955EwKtv2Mrl9Yo/oa29Hv7eoGyP1IonGTD+E+hrc6VVQq7OAQx0ivvJqiXF4bgATvYGAdQDAK6H4+f3H/Ykqq/54Kpv71EM1pGzH6F6x0HEr4UOtPjm3/s7NzjRf3YCEQCK10rnHhysrkJPTz9GnOqVUOSzy8CGVuyo7sHlkT1wFnsRlA2dFRDgQMuOahw6O4KWoq8GlxcGEOWB1n2PxP2SQACd8vVEAoHkRftEXxtcusfJxOG9IFDfjjaN5HJ19qD9mg+9wSDC1wG1sT6Xyw34/Th3PgRvXXynwMneeHUj6Xeo74RkmC+AgB/JykjfPaAIJiYcqNqh/OzI5RE4NviUw0fk2IgNDq1giSCePw44J5zoP3sGO5wtiTZH0H/oLKp2VuOjj+KDfo6dkuEp2b0VZ1qlFa9mLm+QHDPSj0Nnq+DztQBnetCTHDN0Ys/BDbgsDi/2H8LI2Z3w+Vq0X59eOisgAEB1FRxawU6mYABRTlxt7aj396YPV6WoR/t++SVZvA9Uj/r6IIJ6qyCxKkk8dO/NdP+oDrXrAQSBa+EQNBIIbvjnq7FQH+LdSw04seJJPMA1pAZUZhOYjFRjg/QqKLnoO/cchC/XN+kjZ/ERNsDnAODYAGf/WXwWaYEjec4IPprcgYMH9yTOLQ5PRXDmLNB6MFGdjfTjUH8/NqRUWg607HDio7OfIdLigAPx0HTuOAhH5Ax6PqrGnoO+lMrMebAaVYUYgtNdAQFwVKM6chkTYAAVEwYQ5abOi+4Br8ITicoHyhMUEDiJeAGzH921J+E5rLMKkpwv0OXB4cMeXGvvQbdSFxL9CF+L/7S+VqttcUjPj8NdtWi/1hu/z7M/te/rausBMf7Wqb12DZEJTDiqkFIAOVrgO9gCIH4P6JCuKsGBqmrlZ1KrKCc2OPtx9rMIWpIJ5MDOHYkLt2MjNjguJ7e37HEgcqYHhyRVTBqnNNRGcHnEiQ17AKAa1fgI/YcmMLEQM9CMVECoRpXjLCZYAhUVBhBlSZyKnGm/xP2hlJlyAXQd9gP17djvrQPQiQNuPw73HkXfVv0z1sRhs2D4uo4+upGpUKnz7kf7OR96/b3oRTwc5X2p83ajB4nZfee74PHJKz/J5AWl2YEZ3ok79+zB5UPyikVGWuGkP4nLI0AEPTj0kXT7WYy0ZJg9l6jEsNOHgwcdiceTSr3Ejp1nceqzCDZ+dhYjzh2JGWzibLYIzvQcwqFIgadCG6mAlCpPMh0DiLIUn8nmxfyNfvcB6UQDtQoohL6Ow/DLqgtX5wG4/YfR6+tCreo9lAC6OsJo607MgktMX6uvXQdADKHErDfZke4Deob3EtOrxZZ6ffCENT4PtLUTA975NZT0fw5oYv6deOQMes5Ww5e4kEbOnMWIQy1ckBgWm8BO3x7lN/IjlzGSNlU7Ps0742SEiUlEHDuT93Yin11GBMpllmPjBuDUWZwFsLM10WjkDM5MtKDF6UCLzwf09GAy72NeqVPT1SsgACOH8JEjUU1GJjABYEM+u0I5YwBRzlydA+ip7YDvRB/aXGKoXEc4Pj9ZEj7iZ3WUPpvjQmdPO675enHYo/EBVfmMO/eBxEwzlSpI5TNKqSSfIUrOeEsEqP8wPPLZcTmJD4ldFi/Mjha0VvXg0KH+5PN7DqYOv430H0LyOuvYCd9BlfBBfPgNabPj4ufsvzyifQ/GuQM7z/agJ1E6OZxO9exwtGBH9SH0T+ycD0tHC6rPHsL8S9mDg04AcGDjBgd68jIJwYEW30G0IPFZqo8i8d+JrwUOaTjJq6OJSUScG0yejk5yJcL0dO5f6ENLwvlAAG63O7dGAl3wJD9YozQlOsPFXNc3EeRPcpq26vkkw3ji54ASH7CVvw7dFVDkDHpOAa35mg1mknx9wHOk/xD6M38NQpxzD3xVZ9HzUSR19l56ozjUP5LYBzgT/4Xzc0BZ8vv9uPL73+Pxxx9HXV0d7HY7Vq5cCYvFYqide9FoymMGkIbRYBBDg0OYunU7uc1qs8Hb1gqrzWZizwojLwFEuqR+E8IilLg/tKMgX82TX/wmhNwVKoA4BKdgWhBw/Pi7GA3GbwjY7Xbs2vU0Njk3LMngoYXnaPHhoNmdyJJYsTj3HCz68AEWTz+XI66IqmBw8GIyfABge/M2NDVtNiV8jC7LwGUcqNCcew7i4ME8f6aHliVWQBLjY2MYHf0C73/wYcr2T4cuZhVARsJAaeVUrXYyLXKntZ2IqBgwgCTeevsdCIIAID7sZrXZMD42hk3OjSgvM14sKi0yp7UEd7YhotSmkfARA66zszPDnkRE+cNJCBJHjvwIU1NTsNvtePmlDlhtNkxNTcEKAePDv0VlTSOqG4zNzNJTBcmDQ+/+RissNWJYcRICESnhJIQF8MLzz+Hjc59ge/O25HCb3W7H3fEI5mIzuBMaRkXlGqyuaTTUrjQw5NWKPETUqiatdpXaNlIBcZiOiMzAAJKoWbsWbW3fStu+uqYRs0IUt4KDiIz4k9v0koaM+LNS9ZLPe0BGQ4iIaKExgHR6tL4Js0IUd8c/NxRCRu7LaO2rd6KB/GeGEBEVK94DMmAuNoPrF3+N+9H4FzQ6nG7NEMr2Hk2mikdLtoHTuns3Ojs7l+Y9oEAXOsJtiW/d1viaH6KFFupDx8ladC/At37kgveAisAKSwVqnnwG4Qv9mIvNZKyEMlUwmWbDZaqCsh2yy68Q+jqOAvvnv5Ym1NeBk7XdGstk53C2vg74etdnFyKuTgz09KGjKwCXUucSXwO0/oDWEt957E8+hPoQ//VLvmlc/MJW+XMpX5MkUd+Onr1h+AIuDHSuQ1/HSdR2x19PcuE/VcpfPRTq64AvvFf765TU+oPUL7YNdHkQUFp2PcPfS325dcUTJvsa6uvAUeyXrGYr/RJcff2Xi6+Oe33+Owdl0ld/T7ymQBc8h68lv/Yp0NWBcJv431oAXZ4TqM3b9xQuPAaQQRZrJaoaXMnw0TMcp3a/R21ILdNj8Tij07yN9C9rga7EBcuT8h+a28BFXVWoD0d716O9/RoOdwXSLm7aFxw/pN9h6rmW+iWl0gtt8HBq31W/Jy5Df5RJvvg05eKttLyFnm/WTnYm5Xi/5MXOL4fRiYEBF7o8AbgGOuEKdMETcMX7HehSbVltafH4OU8qHlPn7UZPXwc6+tapHIv4G4L4eujz/Uiav+grvlodfy9xuXXJQbKwVnY9DDS36biii/2PNy4J7sD87zjlgDp0Dgwg5cMOmSogVyd62jvgO9qHrSm/i/j/j661H0Bb5p4WLQZQFlbXNGImehN3QsMAgMkrAVi/sgbllVWK+yvNeNOa2SafJadWEYnEdqXBJN+mRdznfCCQcd95YuWzf36L+K5X+l99oAueE7Way2brO10fOnzn0Jx4t1fb5UFHX+qFMe2CI+1D2gUu+WTiP+QeDAzUpR93GDigWi1p90fhIPR1BOBKXIQCXR4c7krtV0pQB7rg8XhUwjs1cHyeXrgPDGDApVEBZSnY60sJ71RuHFB5ps67H80dmdZ4CqHvBHCg26VzOMrI3yugWHH40l6MJOhDfThxrRnNJz1pVYk01OsTiyCmvWmQHORXWhdKpWqSnkse+HXebojrHs5/57sLnQMDae0sNgygLFU3uHA/Oglhaix5b6h+576UfbSmWKuFUaYp2krPZxrGU9snN3Xwdu9Fl+cortUDzee7cBT70VN7FJ4uYKDTFb/AXtOzHEIGkqEW8b9LV2cPwh0+dED6H2t6FVHf3oPurbWoT26RvDtNhsgAOq93oaOvLdFWop31BzAwoD1Up90fpd/ZfEK6XG7gRBiqC4W7OjHQU4sOXxcCCu+mvd0D2NrXAd+55vjvONAFT+JKlloBhXFgoA3hlApJvOL54fFD895fxgpINeCvIxwMwn8yAK9KqIT6jiK8txteAKjzYn9tB7oCLuVqOZu/l3jxl4Xb/LBe/P8PyVOcPwc074fX60V8qacQ+rqO4tw1YH3zfnSm/B5CmA8vtQoo/oYgKaVqgmboqlb0/vT1rtT/RsWNAZSDmifi94Ni01F8peqxtOf1znhT257p2xKMVDeF4ULnwLp4JbS1E911ALAf7R0+eDzxd/OKFYkB8/dYBpL3JMTxeW/3AGq7PPB0SENu/t1sfN+Ea/ELPfpO4Fr7/vgwiHQ58bpO7O/rgMcTRHwZiQHI32Bn1x91gYAf9c092vvVbUVzfS8CgU7FFV2vh4NAMAhfVy2UslLSUHwBQWlVJBuC8xspgJNtdiLU14H6WoWBoEAAfnc72q+dQF/IpVAFBXCyNwi/bLgW6IJL6cVk8fdK4T+cUmm4004R7w/aJZtC5xGubcb6a2EgfB4h1Mn+XpIVcAHVCqgN0LxnJK+24sEp/vczX/XtDfsyLB+yuDCAcrDCUoG1Tc9iVojCZl9rdnfMkVhFtPl6Yh2flIuB9F2h3iW8E+rb0b6+F71QqUISXJ0DGAh0wePpwoEBldHwulqsRxhACOfPrcfebtmVSlyDCG4cGOjGur4O+HwdgNJ6P4b6o3D/JnmueEB353INCfXhxLV61Nc3Y2/tCXQF1iu8E069TxM42QsohZ6rMxFgoZTNdVubAZ/WEBwQD315iyH0nfDDvXcAXlcYHsUqyJW8JyKduBIKBeTdSHvdev5e6d2cv2gHujyQ522o7wSu1denbAucPIfatr0InwNctWGcDwF1yXPMrwqsa0JAsvqJBwpShlblx4fQ1+GBL7Gc/IHk76ke7gPd6EQXPJ7Diq9tMWEA5chirYTFWml2N0wSQt/JMNbXAwiHkbglnL4ktseffEenfEtZjVff/q5OxIfDQ+iTvSOtbweAdajFCZzsOodrzfvRLfZevJFd346egYH4MI3HAzEjpa/DfWAAnZ0D0DXqnuyPAsm7+ECXB54TeqqletSuS98aONmL9c3tuHYOWOftRmegC57DSmGRuE8T6IoHqOIVUnK/pL4dPQr9TTtCbXZavHPx5dhdANCG9hNH06sgSRjHiZVQPdp79qY1afjvZfB6fB3N2L83jKPiiFmoDyewF911QBeAdVtrcSIZpCpvqBSWg4+/JMlQoPiaUyZPuNHeDoSvIzEeKw03SR/DQO1WAHWyobxFigFEWQv1HUXYtR+11+JDcAPeNtmU7FDKlN6FoTQEV4etzUBv7/rEO3XxRr14czeALo8nsVT4ALoVqp5CvLl0dR6A23MC50NeybtqmcBJ9KIZPUrP17ajbStw9FyyweRFKXW6ruR5V+rjnrB4z8Ulm6Gls2L1e+ZDSzoV/LAf7gMDicd18O5dn14FScItfep+APJ5efM347P8e2UYgnN5vZLZgCH0HT2H5v3dgFgr1XmxFx50BQbQ6ZIEhNI9sFAfOnxh7JVXwXVedA9sjf9u0T5/7+6wH729AODBNbUJDsnXwXtAtOyFcD7cjDYvcP6EuK0O3u796OvoQN9+Mz6bkHqTv867F+s9JxHwuhDoDQJYn+h6GNcS+8wvoz2AzlAfOhJDObUn4zeA4zPL8tQ92Q3nUN8J+OtVwiXeucRnQDoVKySX1wuE+sSd02d8SS9UiYC4rnhjW3YPJrFv8gIb6kPX+a2yG/DqFVCgK36/olsWdgcCemYKJg9AZ6JUvS7ZmtPfK8MQXOpr8OFc8wE0H/XAI5naXt/ejvWHO9AnHSoLA+5kuLlx4ABwOPHZnfTbTNL7QL3zU+QHBiQfCehCX6gzvQIKdMFz4hrqg+vTgw2JviRCKy8fe1gADCDKUh28nfEZSOfl27u7lQ8pKLXP0bgQSIy394Q74OvoQ8/eMILrXagDUJc2dTs+hJiPCRRpErO85sfu3TgwkDr85pcOy9S3o2dAOXzSzVcwgS4PTtQeQHM4jK2dqe3LX6+eDw2HrteiNuzTMblCMhtNIWQyzRScf+31yQ9eprdh8O8V7E2Zdp1ys1+s3uBOvZiHT+LEtXbs73ShzjsAr/yDqLVheBKfy6lDHbzeTsDbiba+Dvh6/Tic+PP2+rpQKw8KVycGDgCeRIXY6RJnyc1PNOj2yv7mYmglPstVl6gAD8s/JxY4Gf/d7w+j42QAirNWigwDiApA5X5CQSmNmccviPM3e/ej/ZwPvsOA+0Bn+j0I2TvRgvRS8pmOzP03QPLOOjm5QXqPxN2O9mu9KkNq8lloSBlSq3O5UOear4bmf2duHEj5yJcP55p7VO4xia+xB0iE0H4cnf+Whfp29Ax0S3730jcUifNk8/eqzxSaqdOwAQC1beju1GhVHMqUzWqrT/tsUiIo5Pd/3AcU7t/E30CE+jrg8QDtPfuBo4nXn/Y6xTcbYhCJr7MN7Sd88Pji/x9YDPhdcJTE9YCIFsr8m7TFcP+G3wVHRLRkyCd9LE/G15kmIiLKAwYQERGZggFERESm4D0gDaPBIIYGhzB163Zym9Vmg7etFVabzcSeEREtfgwgBdOCgOPH38VoMD7h0263Y9eup7HJuYHBQ0SUJwwgBYODF5PhAwDbm7ehqWlzTm3qWddHaV897eqhZ3XWzs7lPieHiBYSA0hifGwMo6Nf4P0PPkzZ/unQRTQ1bc5b9WNk1VK1gDGyLENeVzwlIsoTBpDEW2+/A0EQAMSH3aw2G8bHxrDJuRHlZdnP15AulS3fLjKydlCmZbuz6RsR0UJjAElYrVYIggC73Y6XX+qA1WbD1NQUrBBwNfALVNY0oroh++9X0jMMpvR8poBRakdt6W61pb6JiBYaA0jiheefw8fnPsH25m3J4Ta73Y674xHMxWZwJzSMiso1WF3TqLtNpYu7WkCo3SPSc+/IaHUlb1/c3+9XXrGRiCjfGEASNWvXoq3tW2nbV9c0YlaI4lZwEJERf3JbJkpDb9JtRiYlyH/WG2Ba1Y38vFsVvj13dnYWrbt3o/vHP8Yf/vAHXLt6FW+88Qb+05//edq+P/nrv055/J/+/M/xk7/+a8V/1Y5RIu6vZ99M5850Di3i8fL+S/unpx2ixaiivBwWiwUrVsRvR5SUlOTcJgNIp0frmzArRHF3/HPdIZTp3o24LdNwWS5BZaR/SkpKSvCLEyfgbWvD0a4u4LHHYLPZ8Pjjj6fte7QrvpjX6//lv+Av/+t/BYDkvvJ/5cfIj1Oita/SsTabDT/76U+T/x7t6sp4Di1ar0/+M9FSY7FY8Mgjj6CiogJlZWUMoIVW1eDC9L2buB+dNFQJAenVkNJMOLVhMz0VUKb7S0rHZGpbfDw3N4fS0lLs7+zE3NwcbDYbjvzgBynt9Lz1VvJnm82GusQSn+LP8n8BwPfiiyltKLWr1L7vxRfT9v0fx4+nHSNu8734YvL4TH3XQ+n1yX8mWmpWrFiBiooKWK3WlEooFwwgA1ZYKlDz5DMIX+jHXGzGUAjpqTa0hs3UAkltf/k2tfNrVVfi47m5OczOziIWi+H/2bsXvT//uebrKC8vh91uBwC819eH9j/5k5R/RdKf2//kT9LaVdomPU7+vNr+5eXl+H//4i/Q+/Ofp5xTPEbsqxp5u9LXp/Yz0VJUVlYGi8XCCsgsFmslqhpcyfAxWglJZfo8kNr0bbW2lI7Te7yWFStWwGKx4NteL06dPo2HDx/C29YGAOg7eTJt/9LSUux74YXkc6WlpVi5cmXyXzlvW1vac962NvSfOqW4r/w8aucV9y0tLU3b1nfypOo55PpPnUo5r3iM2G+xD3raIlqsSkpKUFJSghUrVuQlfAAGUFZW1zRiJnoTd0LDAIDJKwFYv7IG5ZVVuo6X39/R81kcPSFi9B6QXmJbp//mb5LbxJ+VJjxI92vdvTv5uKSkBBaLJe31StuSb5M7/Td/ozmdXK1dceEs6TaxP3oo9Uetj0SkDwMoS9UNLtyPTkKYGsNcbAbXL/4a9Tv36To20/0b8V+1bzuQ76M1My7TLDi1x5nale936vTpjJ9HUpoRKG9LrS9KbSodr/eDtXondhBR4XBJ7hzMxWYQvtCP2HQUq2sa4XByOWsiIjXyJbkZQDmKTUcxK0Rhs681uytEREVNHkAcgsuRxVoJi7XS7G4QES06XBGViIhMwQAiIiJTMICIiMgUDCAiIjIFA4iIiEzBACIiIlMwgIiIyBQMICIiMsX/Dx+4EAbDvqNnAAAAAElFTkSuQmCC;" vertex="1" parent="1">
          <mxGeometry x="1032" y="-237.5" width="416" height="338" as="geometry" />
        </mxCell>
        <mxCell id="LutIZjnGn2v2l-_MyvBw-2" style="edgeStyle=orthogonalEdgeStyle;rounded=0;orthogonalLoop=1;jettySize=auto;html=1;exitX=1;exitY=0.5;exitDx=0;exitDy=0;entryX=0;entryY=0.5;entryDx=0;entryDy=0;" edge="1" parent="1" source="UfDb-DqNH3yCvx82YPJ2-22" target="LutIZjnGn2v2l-_MyvBw-1">
          <mxGeometry relative="1" as="geometry" />
        </mxCell>
        <mxCell id="LutIZjnGn2v2l-_MyvBw-3" value="" style="shape=image;verticalLabelPosition=bottom;labelBackgroundColor=default;verticalAlign=top;aspect=fixed;imageAspect=0;image=data:image/png,iVBORw0KGgoAAAANSUhEUgAAAWQAAAGnCAYAAACAZy06AAAgAElEQVR4nO3de3SV9Z3v8c8O5CooAblFICTQmgLaFrE6FU6hI3QtEbUBrZ66qs6smeNMB6cztZezzjrjcqZda2yr05Gh7VzOGXHaM6sacSgyVaiFOdCzdIp2YAhFC0EQErklEMiFBML5I+zw5Mnvue5n7/3byfu1lsvkuf1+icvP/uX7/J7nl2pvb78kg6amJn38n/tMuwAAWVCU7w4AAPqN9tvZ+eScXPUDAEY8RsgAYAkCGQAs4Vuy8PPai3v1FxNrtWNxmWHvaf3hEydV98XZemxSBr0DgDz5yuOPD9n27e98J6ttxg7kuF57ca8+u8e1cV6VXlbz0O1OkyZo9xcna3b6++PHtHDtWd1nCv3G91WxrWTw8Um3D2DYSwewKZz9fOXxx3XX3Xdr0aJFg7Zv375dP9mwwTPYEwtk/xHzFZ+5d44675X2b9uvG09cq857x10+v1nzl6TPd42wG99XxTbXhU706O1512pHxBF4Yu0DgIeFixbpJxs2SNJAKKfDeKErpJ2yP0JufF8VL5xNfIT52t6z0p6zqtjTfGXjvKqBgAWAfLn77rslaSCU018vXLRoYJ9J5EAe/Cd/kyq2Sg/fN0eDmmg8q+fUI63dq69LenjeWD13PPjab2/tv96Ay+dLkiZNcOw4rQ17xurlJ6frM45+/cVE5+i8R8+s3a+6e8PXscO3DwD+3KEcFMZSjEBO/8nvLlG8ttcdaCX6S8ef/GECOXTJoPGsnptUoj8d2NCtd45LN85xBPLx89I86etr9+qFJcGllEjtA7Dals2btWXLFl26NPhB5FQqpaVLl2rpsmU56Ud5ebnxay8JlCy69ezaJn39+NBAM9m/bb9u3Npz+bvm/pLDvCq9HKW9bWel4yX61+OTL49+u7XveInqJjoOmzRWf3rvZH3vU8e0cG2TKk70lzMybx+A7ZYuW6ZUUZG2bN6svr7+V0AUFRVp6bJluv322wPPT9/Ec9/M+8rjj4eeabF9+3Zt2bx5oGa8ZfNmlZeXD7nR55RAIJfpsS/O0fUv7tVfeByx/8R5adLY/vrx4tnqXGy+qRaqZNB4Ql/XBP3lvFN6YW+3HptUdnnEPFa7TaWJSZO148lr9OzaJi3cVqYdmbYPoCDcfvvtKi0tHSgZfPK220KFsTR4eluUEE7bvHmztmzerKXLlmnZ5dF4eXm5frJhg7q6uga2uWX1pt6+f9uvij39o9GH7wu+2RamZPDa3rN6ePEcPaYefX3bGe1fXKYDe89q/txanxuG/R8ajyXQPoDCsWjRIp09e1YdHR2B9dskpUfGzuBdtmyZurq6tGXz5vwEct2nZqvz3nDHfubeOQM36IaYO12dc/u/nD1w3ET95bYmPbNN2r1nrP7nk8E14iTaB1BY7rjjjpy36TWivvvuu5OdZeH22ot79VmFqME2vq+KFzRoZsQVp/WHTzTrOfdmZ8nAeZNQklSmxxaPVcULpzR/Sa13mIYSp30AI0G2n85zihXI+7ftvzz1rUkb7pujzrn9NVjfc06cl+ZdOzg491y5qdb55Bx9b2BHmEev+2/uzZ9Uore3ntBri01BHyCj9gEgWfHmIR+foN1PDn3I4+0T3ZLKJI3T95501oy79a+NPZo/t8wxj3msXn5yduyR7WsvNunruvywyfFjWvjEXn02/WCIT4khqfYBIGkpvxVDrq+ri3Apjz/70zyf1LsybS7QpAna/cVr9K9rHWHs3J9+KtCL8Um+qO3zPgsA2ZFgIOeGe7oaAAwXOX/bW6ZmL56tznx3AgCygBfUA4AlCGQAsASBDACWIJABwBIEMgBYgkAGAEsQyABgCQIZACxBIAOAJQhkALAEgQwAliCQAcASBDIAWIJABgBLEMgAYAkCGQAsQSADgCUSXTGkpaVFv3n3XR05ckTNzc26ePGipkydquoZM1RTW6vq6uokmwOAvEsy9xJZU6+3t1evvvqqdu/apXk33KBp06apqqpKktTc3KwjR45ob2OjampqdM8996isvDx0B2GHlfX1oY57af36wOsEHWOzOP03nVPovwdkJ/cyDuSWlhY9v26dqqurfRt1dv6/fv7zqqmpCbw27BEmQMKGTKGHUdT+p493nlfov4ORLlu5l1ENube3V8+vW6fbly7V/Q884PsJUFxcrBUrVuj+Bx7QuueeU0dHRyZNAwWB4B1+/HJv48aNWrdu3cD3UXMvoxryq6++qurqat10002Dtm/atEk/f/11PfLII5p3ww2D9s2aNUu/9clPqqGhQQ899FAmzSPHwpYtgrhHi5lw98k5AjW1m8m1w+wL81eE6WtCu3B45Z4kvfnGG8ZzwuZe7EBuaWnR7l279OUvf3nQ9n379unnr7+u//KpTw0J47SlS5fqmaef1r59+1QXsk6N/AsbGrkaFfrVZk2hH7VfYc71u6Y7fDPpC+zglXthhMm92CWL37z7rubdcMOg4fqZM2f0f370I02bPl0rVqzwPLeoqEgLFizQO++8E7d5FDBnTTWXctmmO3AJ3+HBlHthhcm92CPkI0eODLrp19fXp396/nn19PTorrvu0unTp43njR8/XpJUdd112rNnT9zmkWP5CNAguZy5EHXETQAPT+7ciyoo92IHcnNzs5Z8+tMD32/YsEEHDx6UJH1v7VrP855+5hlJ0ozp09Xc3By3eeSBX8jEmWGRVC05/UFBCCLbnLm3ceNG7d61a9D+8+fPq6+vT9/8xjcGba+eOVMPPvhgYO7FDuTe3l4VFxfHPV2poiL19fXFPh9Iy9VUMucHSJypb0Hb+ECxnzP3Tp48qdbWVuNx7u3pEkdQ7sUO5KrrrlPz0aO69tprJUl33HGHDuzfr9OnT+vRRx9VxVVX+Z7f3NysyVOmxG0eORS2VBE0a8AUYknOuEjyWkm3wYMhw4Mz9x555JEh+7/5jW+otbV1oBLgFpR7sQO5esYMHTp8WDd+9KOSpNLSUn3+wQe15tln9dOf/lS/9/u/73v++4cPayaPUheETGcbZEs+2yRQRyZ37kUVlHuxZ1nU1NZqb2Ojent7B7ZNnTpVn62vH5j65mf37t2aOXNm3OaRJ3Fv7gXdAMvFDcNMQ9RU/8bIYsq9KIJyL/4Iubpa1dXVevXVVwdNcbv55pt1YP9+/fSnP1VNba3xUcEdO3Zo1KhR+vj8+XGbRwEJE4RxRp2mUHQ/GJLEwxdeNw2d7TNaHhm8ci+MMLmX0ZN699xzj55++mnNmTNHs2bNGth+/wMP6P4HHjCec/z4cf1syxY99sd/nEnTyCN3CcNPlJCNG8pRtkcRJmzdHwAE8/DnlXuSNG36dOMc5bC5l/HLhQ4cOKB/ev55/dYnP6mlS5eqqMi7CrJjxw79bMsW1dfXx67BAEC+ZSv3Enn9ZkdHhxoaGnTy5EndvGCBps+YMeg1dO8fPqzdu3dr1KhR+tz99w88HAIAhSobuZdIIKft27dP77zzjt4/fFjNzc3q6+vT5ClTNLO6WjNnzqRmDGDYSTL3Eg1kAEB8rKkHAJYgkAHAEgQyAFiCQAYASxDIAGAJAhkALEEgA4AlCGQAsASBDACWIJABwBIEMgBYgkAGAEsQyABgCQIZACxBIAOAJTJaU88k7tpiK+vrNXPmTD39zDMZXScJpnXdWPYdgJcdhzq049A57TvZPWh73bVlWlg9Rgurrwp1nUQD2StE/cJ1ZX29vvq1r3l+n0R/0vyWbvcKW+fxSaxgDGD4ONl5QWveOKHRo0ZpUc01+t1bqgbtbzzWoa0H27XlQLtW3zpR11b4R25igewVXO5jTEup+32fCeeKwOmv3SsmR12enpEyAKk/jJ/4eYt+e3alFtVcI0nq6u1TU2uXmtt7VDu+XHMnX6W5k6/S9oNn9MTPW/Tkp6f6hnJigWxaGj4ouNzB/d577xlHzKY2MhUmWL0+ZFjyHcCaN04MCuMDp7q17q0P1NXbd/mINs2aUK5Hb506cMyaN07oyU9P9bxmIoHsNyI2cY9W3aHrDLxch1+6PUbCALzsONQxUKZI+/Gu4+rq7dOyD1dqwbSx2tB4So3HOrTzyFktmDZWi2quUeOxTu041OFZU05klsVL69cPCi/n987Rrvs4yVxDTh/z5ptvZtSvlfX1gwLWud30dbqPzn+nr+H+B8DItePQOS2quXrQtrauC5KkpR+qVGX56IGwTm+XpEU1V2vHoXOe101s2pt7VJv+/pZbbjGOhJ3f33LLLZKuhHemQZzm/ADwqgH73ehzX8f0gQJg5Nl3sltzJw8e5X57ea2+vbx24Pum1i5JUmX5lULE3MlXDZmJ4ZRYyeKrX/uavvXUU0NKDKag9ipZOMM7G+KWIRgRA4hi55Gz2vxum6quLtGCaWMH7XMGtFsigew1g8Fvv/sY5/fZCmWv64aZaeFEQAPwsvPIWf141wlVXV2iR2+tGrLfWcJwy8q0t7SgmRdeN/BM+5LoX5TruKe6AUAYP951QpJ015xrVV4crSqclWlvaV43zNzbnDVnZwg6yyCZlBqiBrHzHK95yMzCAEauumvL1HisY0gd2WnWhLIh2xqPdaju2qHb07I6Qpb8w9A0In7zzTf1raeeknSlpuyuPYcVJzDDzKdmxAyMbAurx2jrwXZjIDtv7LltP9iuJTPHeO5Ptbe3XzLtaGpq0vV1dTG6CgDD3xM/b9FHq8YOmossSV/Z1CRpaDBvP3hGu5rP+j4YwtveACCG1bdO1Ov727TzyNnAY7cfPKPX97dp9a0TfY9jhAwAMQ1+udDVQ0oYjcc6tP1guy5cvBjq5UIEMgBkyJrXb5b/+b9neolIuv7sEzltDwCCLKy+KnTo+qGGDACWyHiEzIgVAJLBCBkALEEgA4AlCGQAsASBDACWIJABwBIEMgBYgkAGAEsQyABgCQIZACxBIAOAJQhkALBETgPZtPSR33JIzrX2Mm0nif4AQDbldYTsXDDU5KX16333e4l6DiEMwAaJLXLqxxl4plWbg1ZxDtrvFaim7e7VowHAFjkJZHegmkbGQaEbdH3ndd3CXNf9oeG+NgBkW0aBfPyV5zXpzi8EHuceFTtHxk5+I+BMAtt0Pfe1vb4HgFyJXEPuPLhPXe+9o0sXL+rYK89Lly7p/AeHdW7vTt/z0iGYvlFnumGXaS3XVDs2Bazze8IXgC0iBXJfz3md2/tLHXnuKZ382Yu6dKFXrTs26fDfPakzb/9f9XV3Gs8zjYrdo1IAGOkilSyKSko0YfE9GjXmGh3b8I/qO9+toz/6rqbc8zuqvO0OFZWWB17DOVIOI8rNP/cxUWvHpm2MoAHkSs5nWbgDMxui1Jvdx1BDBpAvEUsWPTq17V/UuvVfNPEzn1NRaZmu+/yXdPrfX9exDf9bfee7jOc5SxZpYcLYq/4bdG62Ax8AsiFiyaJUY+bcrLFzP6Gy6bP1wcv/oPELl+uqD92o3tbjKiqrCH0tZ2BGnarmNQJ2Xy+oDQCwSeSSRUVN3cDXk+/8gpRKqXTKDJVOmZFRR/ymopmYSh+mc5xzlL2OAQAbpNrb2y+ZdjQ1Nen6ujrTLgBAFvC2NwCwRE5mWSTtlY0b890FAMPInStW5LsLkgo0kCVp1apV+e4CgGGgoaEh310YQMkCACxBIAOAJQhkALBEwdaQASBXLvSc0In931Jv58GBbcUVNZo4+6saXTIxsXYIZADwcXhn/wSCyumP6Oo53x7Y3n5sk5p3/4HneTMWRL9ZSCADQIBqQ7hePXm5rp683Hj8oZ3xZoFRQwYASzBCBoCY+mvLT6mn870h+9KljiilCwIZAEI49d5anTu5NdI5ZWPnRjqekgUABOi72BE5jCWplEAGgGSdO7kt1nkEMgAkrONU9NGxRMkCABJnumkXJGoYSwQyAGRF1HKFRCADQFbECWSmvQGAjziPQMfFCBkALEEgA4AlCGQAsETB1pBtWgcLAJJQkIFsywqxAJAkShYAYAkCGQAsQSADgCUIZACwBIEMAJbIaSCvrK8PtS3suUkcG4X7utlqJ861s9kXALmR12lvK+vr9dL69QP/Nu0LOtdvv5Pz2Cjh5ddG2LaDru91vGm7++cw9S/odwPATjkJZGewmELYK5TjthUUWnFCLEr/vD5cvK4RN1RN1ySMgcKVk0B2B4czoLyOiSNuOEVp169s4TcKT38f9njTNufvz+/aXm0AsFuqvb39kmlHU1OTrq+r8z35+CvPa9KdXwhsJGiE6HVOEHdAOdswfQBEvb7zms72nNfw+nm8PoD8+hT22qbj4vyOAdglciB3HtynVCqlsumzteeLn9EN39+i88feV2/rcY2Zs8DYiF/4hR3RRg3zoODzOibM1+6fyev6QbxGvGHOidJXAIUhUsmir+e8zu39pc78cqvG/dYyXbrQq9Ydm3Rq68uqqJ2rito5KiqrGHKe10jR+Sd2UvVjd3vOfzv3eZ0btp2gUWmU0onfsWFv3Lm/JpSBwhMpkItKSjRh8T0aNeYaHdvwj+o7362jP/quptzzO6q87Q4VlZYHXsMUkqZjov65LsULtrSwo1Wv8HWPUE3n+bXrPCbMB0hQ+YQwBgpPzmdZmEbImTKFWtS6api++F3H2U7QB0HQbIugD5O40+QA2C1iyaJHp7b9i878cqsmfuZzannx+7ru81/Sqa0vq+fkB5q66tHAkkVath5kiDqf2X1emHq36edwB7HXtfxKEEHfO6cJmvZRpgAKW8SSRanGzLlZY+d+QmXTZ+uDl/9B4xcu11UfulG9rceNYezFb/aClMxTfVFGxVE+LMLePDMFeJgRtvvaQSHuDOqwPzsA+0QuWVTUXJl5MfnOL0iplEqnzFDplBkZdSTO3FmvenTY85MoY4Q5L8zsDL8atFeNOqjs4XUMADtlNA8ZAJCcnNzUe2Xjxlw0AwCx2LIsXM5eLrRq1apcNQUAodm0YDLvQwYASxDIAGAJAhkALJHXF9QDQCG40HNCJ/Z/S72dBwe2FVfUaOLsr2p0ycTE2iGQAcDH4Z39ExIqpz+iq+d8e2B7+7FNat79B57nzVgQ/WYhgQwAAaoN4Xr15OW6evJy4/GHdsabVUYNGQAswQgZAGLqry0/pZ7O94bsS5c6opQuCGQACOHUe2t17uTWSOeUjZ0b6XhKFgAQoO9iR+QwlqRSAhkAknXu5LZY5xHIAJCwjlPRR8cSJQsASJzppl2QqGEsEcgAkBVRyxUSgQwAWREnkJn2BgA+4jwCHRcjZACwBIEMAJYgkAHAEjmrIdu0bhUA2CgngWzLiq4AYDNKFgBgCQIZACxBIAOAJQhkALBETm7qPbvmb2Kd99jqP0q4JwBgr5xNe/vq41+OdPy3vvO0576V9fV6af36WP3I5NxCub7zmJX19UP2m853Xzfsz5HtnxcYSQr2XRamoHGKExJB13Rf3+v4sCGYK+6gTZptPy9QqAoukJMYHXtdw70t6vGZ9i9IUH/iXC/s937tEb5AMgoqkJ2B5CcoKP1CzSuUvMLJ1Bf3tqTCM6j/znaDyhbufsUtWQBITkEFsjMgnGETJiDdx4cZ+ZpGpEFhm40gC9t/r99JmJKFu89eP0OuPoCAkaigAtkkzGjXKyCco22v0DKNkE3HBW3PpKYdpf9RasRhjw0b1lHbBzBYQQWyKSi99qVHkUH8wiZotBv1T/6oNw3j9N/UfthRcaZ9BpCZggpkU/kgyZJBlFGwaUQddBMs23/Ke930C/N7A5B/BRXIbknOOEhfLy1K2PvVs3MZfLmaN8yoGciOggzkMNO1MgmdoBuDuexLUuJ8eDG/GMitggvkKE+pZdpGmHm4fuUAW8I4zMwSE7/pg7b/zEAhKrhANgn7AEOU67iv5TcP2W9KnA0B5VdPjsJrLrTX1wCiSbW3t18y7WhqatL1dXWJNMLLhQAgWE4CGQAQjPchA4AlCGQAsASBDACWIJABwBIEMgBYIm+BHObx20wf0V1ZXz/oHwCwWU4fDPF7/DjME3huQe/55eEEAIWkYJ7UCwpXVrsAUOisrCE7SwxRSw280xdAobJyhGxaQino2PTxzn+bjgEAW+UskL1enu63PS1sOcJ0PmEMoFDkpGRhekuY33b3uVHbMi3hRNkCgO3y9nIhv5Gu3zt3w4yo/TBiBmCrnJYsgrY5R8tB3KHMgp0ACl3OAjmTxUjDHhs0z5nRMQCbWTntzS3sTbygZZYAwGY5GSF7hWHUp+v8rhPmqT0eGAFgM1YMAQBL5GSE/MrGjbloBgBiuXPFinx3QVIOb+qtWrUqV00BQGgNDQ357sKAgripBwAjgZXvsgAAW+3c+bbe2vmWDjQ1Ddo+q7ZWNy24SQsWzI99bQIZAEJoa2vTc+t+qJbmZlVWVkqSysvLJUldXV1qbWvTCy+8qO07fqGHH3pw4JgoKFkAQIC2tjb94Ad/r3lz52hWba3a2tpUWVmpqqlTVTV1qiorKwe2zZs7Rz/4wd+rra0tcjsEMgAEeG7dD1VWXq6mA/1lirtW3KlZs2rU2tam1rY2zZpVo4WLbtPceXPUdKBJZeXlem7dDyO3QyADgI+dO98e9H1ZebkWLrpNZeXlevihB/XwQw+qrLxcd624Uy1HW1RWXq7uri51d3UNOTcIgQwAPt7a+ZZOt7Xp/vtWDmz7q++u0Vs739aexl9rT+Ov9dbOt/VX310zsP9PvrRa3d3demvnW5HaIpABDFvbtm3TkiVLlEqlBv5ZsmSJtm3bFvoaB5qaNHfuR1RZWanO7m499NCD+pMvrda4ykrVzqpR7awajaus1J98abX+26O/p9a2NpWVl+umBfOHzMQIwiwLAMPW4sWLNWXKFC1ZskQffPCBpkyZou9///uqi/haiAMHDmrzz17XvLlzJEktzc0aX1mpWbW1kqTxlZVqaW7W1KoqXVc1RVu2vK6Woy2R+8sIGcCwVldXp61bt+pjH/uYtm7dGjmMpf4SRFvrae1p3KudO9/W0eYPVFU1dWB/VdVUHW3+YGBfW1urHnrowcjtMEIGMOzV1dXpV7/6Vezz29raVFU1VXPnzlF3V5caG/equaVFexr3SpJOt7Wpamr//uuqpqiycnysaW8EMgD4mFpVpR/87T+otrZWtbNqNKt2vrq6u1U7q1ZLl/62JGnLltdVXlamhYtu05Ytr6uru0vPrfvhQEkjLAIZAHwsWnibGhv3qrurSzu2/z+N93gCr6u7W21tbWpublF3V5eqqqo093LNOSwCGQB8LFgwX9t3/EI339T/75/8ZJOaL9/U23L5mKYDTWq9HMbNzc1auvR2bd/xi8jvteCmHgAEePihB7V9xy/UfXna232fW6XK8eMGpr1Vjh+n+z63Sp+7b6W6u7u1ZcvP9HCMm3oEMgAEqKys1KOP/p7GVVZq3bofqq31tKT+N7yl68Rtraf14xde0rjLx8Z5uRAlCwAIofLywx/p1282t7Tob3/w95Kk5pYWtbWe5vWbAJBLCxbMzyh0/VCyAABL5GyEbNO6VQBgo5wEsi0rugKAzShZAIAlCGQAsASBDACWIJABwBI5uan37Jq/iXXeY6v/KOGeAIC9cjbt7auPfznS8d/6ztOJtb2yvl4vrV8fuC3MeUkeDwBOlCw8EK4Acq2gHp1eWV8vSXpp/fpBXwcdn/46zIjY73snwhpA0goqkJ1BnP4+zPHp4/wCN31MmKD1C2oAiKugAjmqdBg7Q9kZzl5BnWmbboymAYQxrANZuhKQUUM3brASvgDiKrhAdo94g46VBo+U3XXlMOeHORYAMjViZlk4bwI6yxeMaAHYYlgHsnNETPACsF3BlSycNeEwsyyc58RtCwByoeACOdORbtgaMiNqALlWcIGcKVPQhh0Jh3lwxOtaBDyAIKn29vZLph1NTU26vq4ukUZ4uRAABMtJIAMAgoUqWfxHc5dKRqX6/xldpOJRKRUXpTR6VEqjilIaXSSNSqVUlJKKUimlUlJq4Gxj3gMAXIb1tDcAKCQEMgBYgkAGAEsQyABgibwEctx5v1HOdR7vfqlQnOsAQLZFejDkkqTuC5d0qL1Xh89cUNv5PqUkTawYpQ9PKFHtuGJdVTxKqZT/daK8sU0Kv5xS3Fdmul9UH+Ul+ACQlNCBfPGSdPLcRe052aPD7b3qc8xmO3SmV29/0K0PjS/Rp6orVH1NsYqLrqSy12jUL0DjrmkXNoCdx7nfeZGNF9cDQJBQgXxJ0onOi3qjuVunz/cNbL9xUqkkaffx8+q7JL1zqketXX2qrxuj2nElAyPloJCNut5dUiNY04oiYfsDAEkLFcg9Fy9pz8meQWEsSSvrxkrqD+S0E50X9G+HOzV1zGhVFMcrUfstThoUlmFfOu9e1snvewDIhVCBfKLzoprPXRiy/aV9Z43Hv3uqRwdP92ruxNLBx4ccjYZdVdok7EoiptD3+jcA5EKoIWzzuYuDasZpt1xXpluuKxuyve+StO9UT8adyxavGrLXvwEgF0KNkNt7+ozbp40t9jznROfQEbWkyCPQoKlvUV+nabqBxywLADbIy/uQ4yxUmhb3vPS5pn2mWRXuYAaAbAtVsri6JPrNuYkV3lnvHCEnJU6917kcFADkW6gRctWYUWo602usI5sUpaS6CSVDtrtHqJncvAviF7Je/WCWBYB8ChXIEytGqWrMaB05e6UufEtVmYpHXfn6zebugX0fnlCimnFX6st+oev1UEYUXjM1TMeZ9jHLAoANQq0Y8qvmLrV19w16MOT6CSWqKO5/8qOz95LeuTyrYmLFaNeDIbygHgDCCDVCTr+vYuG08oFHp99xTWsrSmng0ekZ1xQPep/FKxs3JtlnAMi7/yz/eORz/vvt03z3h55lMSolTR0zSlPGVOhY5wXflwsVGe4Brlq1KmrfAcBa/7npgD48flTo499tvRh4TKRpbylJpaNTml1Zoo9MKDWuqRf0pjcAgIEppEQAAA0JSURBVBkvqAcAS+TlwRBJ+rt/P52vpiHp9z8xLt9dAOBizQh5zZo1xm2m7V7Hh23H/U+UPoU5Juo147aT5PUB5F/eRsjS4KBYvXq157ZMr+2UyTUztWbNmtjtr169OtL5mbQFID/yGsiSOSBN26KM/FavXj0kwEwB5d5vYtruFXTOY9Nfu6/v9YHj3h6nP4QwUNjyHshhucMrTPA4QzkooL0+BMKGb7oNv/NMAew+1hTkUfvm1UdTPwDYI++BHFS2cG537gsqSXiFkd8oNgp3YLr7EyYAkxzRmj4gstEOgKF+/as3tP5//bV+/fYbA9s+Mv9W1f/uH+sjH7819HXyHsh+teOg0aObX5B78QrrqNf0K4d4CVNqMNWOTcc7PxQIXyC3PvLxW/XIVybqm3/0gM6cOqFrJkzUI1/5hqqqZ0W6Tt4DOSznSDTKrAG/Y71CLWzgm/pmOj6oTh31hh0A+1RVz9L/+Jt/1to/e0xf/PNnI4exZEEghw3XoHqv+1ph6sOmfV7h6DVad14jzCjWdH4QZ5+i1o79+gsgWVXVs/TNdZtin5/3QA4aPZrEDTPn+X6hFGaGhletOpNpbUH7o9zMdGL0DRSGvAdyWpTAiFpScJcToszQiNK3bJYeooyQARQmawJZys5IzhSqYW8OukfBcUanputG4W6bm3fA8JW3QE56albQDTUnU9D6jaC9gjnqY8p+NeQoHwJxPigA2C/UiiH/0dylklGp/n9GF6l4VErFRSnj6zeLUimlUv2v6ux3Sa9s3Djkfci8XCi/eLkQkJknYrwPObEX1CeNQACAwax52xsAjHQEMgBYImcli4aGhlw1BQDZV/7xUOvkRREqkD9WVR7hksZ7hAAwrNzQ9asYZ1lyU49VpwGMZGGqBNSQAcASBDIAWIJABgBLEMgj0PLly/PdBSv6AOTahQsXdPHiRV26ZJ78QCBHtHz58iFhUkjhsnz5cm3aFP99rWGuH+b3sWnTpoL6vQFJ6OjoUHd3t3p7e9XX1zdkv1Vve3Ny/s+aDhD3/8BhgiXOOX6SDhL3z2n6uW0S1D+CFvB25swZlZaWqqysTOXl5SouLlYqdeXNP1aOkNOjuPQ/6f/B0wHg3h72Oqb9ScgkOL3OzUYYe42Ow/4evP67xEV4Y6Q5evSoWltbPUfJVgZytkaGNo448ylq6YXfH5CZQ++9p9OnT+v8+fO6cOHCkFqytSULSUNGxlGZRtfuazv3e33tPidsHzPtv9d1gvoZlvP8KLXloN+p3zZCHSPZ+Z6eQSNjdyBbOUJOS+JPY69ruMsfzm3ur6XBf66bruPmPD7KTS6/dr2CMNchZ/q5vH4/zuMJY8Cf1YGcpEKtV6b7bfpAyXTGhPP8bP1+vPoPYCgrAzmp/3mHQwh4jTzT26P8jEGzOILCPe7v0+svhWxPwQMKjZU1ZK/gMNV9gwRN0zLN4PD6U9y03asGG7a+6xVyfu16HRuX1+/FFNhev8+g3w+AYKHW1MuUaU095I8NI1Mb+gDkUkNDg061tqqmpkYzZsxQZWWlKioqVFxcPHCMlSULZJcNQWhDHwDbEMgAYAkCGQAsQSADgCUIZACwBIEMAJYgkAHAEgQyAFiCQAYASxDIIbgf2R5pbPi5begDkG0EcgQj8d0MuXzEOf1WONPveCT+7jHyWPlyIa8XsruZXnbjd2zYdoP2hQ2pTNfHy9fvIV+Cfk5guLMykP1eKO8MQ783ipmOD9OuSZxRorufceTr95DmtwZfPoI9iXdAAzajZOHi/LM5zJJEXtfwW32kUEVdgw9ANNYHsteyRtkcKWV7uSG/sA96P7Lp+FwFftQ1+Nw3Q53/Nn0NjHTWB7KJ17pt2Q6nuH/2uwMoaE26sAGVr99DptxlFJv7CuSStYEcFEzZvOue5KjNtIBqlOvn8/fgFnUNvqARNUEMDGZtIKcl/T9tmBBxr5LsHnVGCaKgNsLK9e8h3WYma/BFPS6I7SN/IFNWzrLwYhpt+dVcTV9HbcsZxlFnbJjW1PMKubBr8Dn7lovfg0mmMy+8Rs2mvhLAGElYU8/BFJReoTGSgsKGkakNfQAyEWZNvYIaIWebaRZD0MrLI4ENQWhDH4Bss76GnE9eIUA4AMgGAhkALEEgA4AlCGQAsASBDACWIJABwBIEMgBYgkAGAEsQyAXEhgdSbOgDMFwRyA5+L6ZP749ynSQl9eiw6V3EUfo6Ep9UBHLF2kenM12PLuy1nW0ktaabraFlWvYp/TWA/LNyhOx8cXk2ws35hrV8vAIz6s/jt7ZdXJks+mrrBw5Q6KwM5FwqxLeIsbYdMDxZW7Iw8VqB2b3f609xr+OjtB1mpOpu3/T6zkxe4xl1bbs47SbRTwDRFNQI2V1qCFqTzu945/4obbu514Vzv4ze74X0uQy5qO3mq5/ASFZQgRwkzuyGTMMmHbi5LH1EXdsOQGEoqJJFkHyM5HIRxO7lo/K9WGgh1t2BQmDtEk5e0978psO59/l9H3Rt9/4k2g1zLS9RasVh69xRfh/u7QQyEE2YJZysDWQvtoWBac29bPXPhp/dhj4AhWjYrakXdWZBLnjdtMtWW/lmQx+A4aqgAtnWMLC1XwAKy7CaZQEAhYxABgBLEMgAYAkCGQAsQSADgCUIZACwBIEMAJYgkHPAhpf/2NAHAP4K6sEQL3HeexH2mpk+9JHkWniZ9Mf9giIA9rF2hOxcgDNodOf1zt5M3uVrW3DZ1h8AybMykN1r6hWqbKyFlwnenQzYzcpAdivkUHZiLTwAfgqyhpxkfdd0Ha+gTKqOm75WlHchR+kP6+ABhakgRshOprXzkryOe428pNvNpJ9h+pOvfgLIXEGOkJMQNbCSCLh0WLr/HYdffwhioDAVxAg5GwHjNfJM6ngp+OX1mZQU/PrjdUOUaW+A3axdwinMGnamNeqc50RdQ8/rekHb/WS6Fl6m/WQtPMAOw3JNvUJkQxDa0AdgJAsTyAVRsih0NgShDX0A4I9ABgBLEMgAYAkCGQAsQSADgCUIZACwBIEMAJYgkAHAEgQyAFiCQB5Bkngfs/P1oZm2nw829AHwMuIDOcwSUcNZ2GWy3KK+/S4bj26H6bfpfR8j+b837Gbl6zeTfE1lmHbcX+eD6YVAfi8zCnpxUpj2gq4XJN+PYxOuGG6sDOR8yHbgRznO/ZJ504dGlA8S9wvs0+d7feBFGXVm8ia7XHwIer2eNN8fwIAJgTwCeIW3VzD5BVUSQeb1AQSMdAUZyF7vQ3b+CWsa8Zm2eZ0b5jphSgpJrG+X5DVMI+5cB2KmawuGXUOQtQVRaKwMZL//YU2B4rcyh9+f/F4jRlNI+LUb9vqZ/D5Mv4u413IHlWlbpjXqpPnV+4P+AgAKhdWzLPzqf1Hv8EddP2848Qsw5+/GfYwzsJP8nZg+uABYOkL24x4ppfmNSIdbwEbl9fPHmWURZ+TvPidKzTobqFnDVgUXyO4RVdD/XF7lDL8asteNLq8/6/3+nA5Tx4zSR5tkGmxRZl541fXT53hdDygkrKlXgOLOn/b66yLNKyBNx8QJwXyMTJnRAVuEWVOv4EbI6JfEqNCrZBFmnnGc2m+ugtCv/4QxbMYIGQBygFWnAaCAEMgAYAkCGQAskbOber/5zW9y1RQAFKSczrKYNm1aLpsDACscOXIk1HGULADAEgQyAFiiIALZNId51apVnnOb4855Tl/T+U+UPoU5Juo147aT5PUB5Ia1T+o5g6KhocFzW6bXdsrkmplatWpV7PYbGhoinZ9JWwCyx9pAlswBadoWZeTX0NAwJMBMAeXeb2La7hV0zmPTX7uv7/WB494epz+EMGA/qwM5LHd4hQkeZygHBbTXh0DY8E234XeeKYDdx5qCPGrfvPpo6geA3LI6kIPKFs7tzn1BJQmvMPIbxUbhDkx3f8IEYJIjWtMHRDbaAZAZqwPZr3YcNHp08wtyL15hHfWafuUQL2FKDabasel454cC4QvYy+pADss5Eo0ya8DvWK9QCxv4pr6Zjg+qU0e9YQegcFkdyGHDNaje675WmPqwaZ9XOHqN1p3XCDOKNZ0fxNmnqLVjv/4CyD2rAzlo9GgSN8yc5/uFUpgZGl616kymtQXtj3Iz04nRN2APqwM5LUpgRC0puMsJUWZoROlbNksPUUbIAOxVEIEsZWckZwrVsDcH3aPgOKNT03WjcLfNzTugsFkZyElPzQq6oeZkClq/EbRXMEd9TNmvhhzlQyDOBwUAO+RsTb2PfvSjvH4TwIh05MgR7dq1izX1AKBQEMgAYImc1pDDvjUfAEainAXyrl27ctUUABSknATynStWDNl24cIFdXR06MyZMzp69KgOvfeezvf05KI7AJAXpSUlKi4uVlFRf7U4lUoN2p+3aW+pVEqjR49WaWmpxo0bJ82cqd7e3nx1BwCyrri4WOPGjVNpaalGjx49JJD/P5JN0b5rFUDaAAAAAElFTkSuQmCC;" vertex="1" parent="1">
          <mxGeometry x="1510" y="-280" width="356" height="423" as="geometry" />
        </mxCell>
        <mxCell id="LutIZjnGn2v2l-_MyvBw-8" style="edgeStyle=orthogonalEdgeStyle;rounded=0;orthogonalLoop=1;jettySize=auto;html=1;exitX=1;exitY=0.5;exitDx=0;exitDy=0;entryX=0;entryY=0.5;entryDx=0;entryDy=0;" edge="1" parent="1" source="LutIZjnGn2v2l-_MyvBw-5" target="LutIZjnGn2v2l-_MyvBw-7">
          <mxGeometry relative="1" as="geometry" />
        </mxCell>
        <mxCell id="LutIZjnGn2v2l-_MyvBw-5" value="" style="shape=image;verticalLabelPosition=bottom;labelBackgroundColor=default;verticalAlign=top;aspect=fixed;imageAspect=0;image=data:image/png,iVBORw0KGgoAAAANSUhEUgAAASwAAADUCAYAAAAmyx61AAAgAElEQVR4nO2deXxTVfr/313SNqldaSmkQKFlsVRQoVAXwG0YdYQ6ouLIiDgjI+iI4ny/1tGZl4rjbPoa5esKyiy4jVaEEfQ3o6iDICLrIFj21pahKZC2KWByk275/VESkvQmTdqkScrzfr36au45zz3nuUnuJ895zrn3xpw8edKOIAhCFBAbbgcEQRD8RQRLEISoQQRLEISoIX7Hjh3h9kEQBMEvYqxWqyTdBUGICmRIKAhC1BAfbgeEyGXFjrpwuxBSbho3MNwuCAEiEZYgCFGDCJYgADGxsVRXVxMTK6dEJBPyIeHatWtZu3ZtqLtRZerUqUydOjUsfXeX7QYL7+87QU1Ts1t5XnoC15+bxni9LkyehYY9Gz7k250bmXzrAlKzBvLR0ifoNyif4utuC7drQjep2XYTecUrQtJ2rwjWokWL0Gq1oe7KDUVReOyxx6JKsL6oMfPq9nrVupqmZp77ysjPxmcxKS+5lz0LLl9/sgJdagYjJl5FzrBCUrMGkprVkU8qmjLNaXdk7w4aaqs4/3s3hcvVgHmw7OGgt/n0U78PepvBor3VjPVUBbqMiV5tLKYtJKUUERvf8+9tryTdtVotf/7zn3ujKyd33nlnr/YXDFbtbfLLJtoFSznVxID80aTHVVI4fDtJMSbS494GoGlcAVZ7BnUtaTSkpHPSWMfJ+jqnoEUDCx+/x2178eMvMfamIreyXSsq4OpfuO/40TOq+0Yy1lMVGCufImvYvSSmFGGu/zcAJwzlJGddge1UBfXfvkB2QZlPUfOXXp0l3De0tFf6Obd6da/0E2zqLa1BsYlETtbXcdJYx6DCcVw+40YKk8pJj6vsZOcoGxC/jWEjCsgdfBtWewaWkyYAdKkZveq34BtdxkSyht1L/bcvEBuXhC5tLKnZU2i1VlNX8QDtbVayht0bFLGCPras4a4J/Xll6/FwuxEUxul1TB7SEUltOGxmh8ESZo96xp4NHxKfkMS55w3gwqSlxMcoXe6THlfJBN1i/mOdx8F9ezlauYfJty7oBW+FQEhMKSI2LomsvNloknKc5br086mveZ3ElCIfewdGnxKsviRW91+U7bb9f18Zo1q0Rk++jow0u99i5SA+RuHCpKUoF86LqmHh2YS5/t/o0sa6iRWAJikHXdpYzPX/Jk0/Myh99apgPX1VdtdGQaCX02VBxxFZeZZFo2C1NltpOFJFTv5oxmrPiJX56xMAJJ+fprqfa318jMLY1DW05c/jZH0dutQM4hOSeucAuoFa3mnXiorOhh8949e+kUrNtjOTIanZU1RtNEkDMBnKaTKUA/R49rBPRVhC5PHtzo0c2buDUSMSnfkpW42FhtVHiU2KRTMgiYScRLd9mo/ZMH18nHZrO/HpGhLzdKTHVZIeV8lXG/5Nv9xhjJh4VTgOxy/u+vUf3LZfefKXqsl0NTvV5HyE4hCfE4ZyWq3VqjYt1qOk62cGLcKSVXIRyIbDZr/KooFM/TBGT76OgZrtQIcYGctrAWi3tlNfXku7td1p71lmLK+l+ZgNgIGa7Qw6d5wMDSOM5KwrsJzYRYv1mFt5i/UYlhO7SM66Imh9SYQVgewwWPi/r4xRn3Sv2rIWY9VeAP62BWAQkyddSumr09ztFj/Iie2fA5A2/jLGPP+mW/3q1R+wYc1G4OjpPzDX15I/MXrW2PVlbKcqaG+zUl/zOrq0scTGJdHeZsVyYhftbVZspyqI73d5UPoKi2DdueynIWn3z3P/EpJ2w8EOgyUqRcrB0f07nWKVkVvAvGs/J3XwI2i0hZ1s8+56lH2/us352pPS0mk0mkxUVOwhMTmVwitnkJicGtoDEPzCYtpC/bcvuK3DajKUk66fycBBP3Guw4qJ1UXfOixXho3M9Vk/+/yfYjQfZ5ths1t56agbabI1UmHc7Vb+r42fBN1HoXucPH6Emv+sd26bait57f9NYP68YWhOlzVu+ACAzMnTiNOlkL/waQDidCmd6gFumXkzS5a+gsFQx841f3O2PeaaW9Gl985kjr+88uQvO5WpJdPV7CI5Z6VGUkqR26LQNP1MmgzlpOlnsmTpq5ROn0b28DKSUor42/LXqajY02Wbvlb2y5BQCCo280kObPgQgDhNImOuuZWRg3OYMDTdaaPUHKDmlSeI06WgHTISbV7HnyvaISNRDh+gub6OhKyBaLVJ3DFnNs8ufg5FsZKdXxixQ0K1ZLq/CfZoSroDxMYne42crrr1LpQYSErQU/7Ga0y9+XKm3nxmaOht4sFnfz13OTTkJA/kVPPJcLshBEBbi40DGz6kraUjST76qhkkxbQyPO3MTW3bLKeoWvyg83XNq0/QZjnl1k5lVRWGtngyJ0/jxPbPnfUZGRnMn3cXAMaqvWx++zk2v/0cu//19944PMFP8opX0H76I2+3Q4MNvyIrf4jICGtUv0KS4pMwnKrtVKdPyaX6ROdLOvoCPxuf5fXiZ1ebSMURUTkwVu1Faazi9f/YyMnJoXT6NDRtFgbcnQqcyUEd/+QlBpY+xLZt21m95gMUxcrkSZdSkJ9PysQMDj5zPcr+75z2V5Y+jLngot48NCEAHix7uFPkFCwiMsKakncF1U1VnLK5R1jD0vMBOG7pGyvaPzp0EnPzmSn9SXnJPgXJ804N5uZ2PjoUuVFoffVerrl6KjNvvpFc/UBWr/mA+JQckjKudrPLvvpHGAx1vFPesa7njjmzKS3tyF0lZVzNiF+8T9KgQQAc//59IlZnMREXYZWOmkGGNpNP9nQO84dmFNBkNdHS5n6vqNyUQb3lXlDYV2/l1W0N1Fta2XjYzEOTckhO6PjtmJSXzN56hS9q3NddTcpL7iRWf/ziGDVNzXx86BQ/K+7HuVmRtfo7a2ghO3bs5OKLSxg+vIAd/9lJZVUV+UNn0GrZR6utBoD4xDwqqzYCoNfrKSoa7WxjwxcbKbnoYuq+/xCxO9dyqihyF4w6UMvD+Jtgj/Sclb/0ZOLBFxElWKWjZjA250L+Xb22U3SVkpjKqH6FbDV81Wk/fRQJluc9r8zN7dRbWklOSHCWOaIsh2ipRV7/PdnsjM7qLa38fv2xiLtXVnZ+IfvWrQRg3LgLGHfhBbzzzgoeWHgfqYMf4eR/f+cUrcyMjrswVFZWUVGxh/z8fJa/9jonT1mwZY2iKW0IXBYltwxSuW2MWjJdbfW7o+yc+BRSNKnExkTkIKhLAp14yNBlcGn+JWTofN+NIyIEa1S/QqbkXUGGNpN/V69lf/3eTjbF+hLMLWaqT1S5lWviEsg9JzoEy1Osrh6eyqyx6h+Qq0CpDRPPzUriT9fk8tYuk3NY6Gg7kkRrxOUzOFq1lzfffg/Ldyex2Ww8/+JSZv/kpwwY/Agtlo7P2mg8jkajoaWlhb8tfx2tNglFsTJy8nU0WVrCfBS9yznxKZjrFV5c/gomU8dtdR55uIyMjL55a51zEs9hytDJrHz3fWdy/paZN1NcPK6TbdgEa/b5HYtHc5IHkhSfRHVTFZ/s+XunyAo6clej+hXy5ZH1nepyzxmEJi6hU3mkUW9pdROrGwrT+WGh+oW/DvxJsM8am4FOE+u8+d+r2+s5NzuRLF1E/BYBHZFWak5ux3IHmxHj8aMsWfoql13/IwoGjqZm/XoqKysZlDuAY8frsVgUmlvtDDqvhIzcgnC73+ukaFJ5cfkrWK0Kt8y8CUWx9lmxAhibO5bNm7ZSUbGH70/9HklJSRQUDFO1Ddu32mjuSJxXmQ5hOFWrKlQAWbpsrhg2leoTVdSeOtKpfnT2GIwe1zBFIq53E83SxfsUq+0GC2/tMjlv1peli2fW2Ayv93P/YWEaG2q+c9qv2tsUcbOJicmpjL5qBns+XYmlyYilycjn779N1q2znDZJunMYPfUq4rRn7yr2xLhEjtYdw2QyUVo6jeLi8eF2KeQMzhjEO9tWoNcPZOpU3znKsAmW5wp2NbJ02ZSOmoGlxcLOYzs61Y/IHEWyJpn9p4KzxiOU/KfuzD2gJued49P2ua+Mbtv1llae+8rI8hl5XveZnHeOUxRd+4ok4jSJnUTr0/fLmT/vLmLiNBjI7BtipXLbGLVkuloS+suPtqDXd1zc7fgfjfg78XDww0oSJiZgMpmYUPy9LtvtVcEK5L7uw9LzuWLYVCwtFtYd/rTTzGCyJpmirDEcsRzG1mYNuP3exnX5Qk/acMwmhrqvUOEQrZoN72M8fhSDoY4lS1+hfdQVfNfaSpHvK7YinmA8MGLt2k8BKMjP73FbYcOPiYerBl2FXj+QyqqOvHRGRjpd0SuCpSiK20Mhvly20attSmIqxfoSRvUrpPpEFTuP7egkVgCXDJpCs72FOsuZxaWufShKZEYZAIdPdD4eV+67KFt1SOhLrPYarUH1MZSkNNez4OfznNcGbjK0cMDWSHtbGxnJiejTI2fSoDfZsGEjq9d84Nx+sOxh9Ho9DyxcwOo1H7Bhw0YmT76U0unT3OyLi8dxy8ybw+V2t9HrB7o9Zeid8hW8U76CBxYuoNFkYvnyN5zHDx1XQIRcsKZOncpjjz3mXjiys92w9HyGZhQwql8h5hYzXx5Zr5qzApigv4hzElPY07SLVvuZhzKUlZV16jtSSE6IdUY+2w0W9tVbva6bGq/XBfT8wX31VvbVnxEsf6KwcKEc3sWJhiNstVu4c+5cfv6nN9lh60+BfjDHDP/FZLadtYI1efKlTJ58Kc8ufh5tUhLz5//MWTf1e1fxzTd7OkRr0qXUGgxRLVYAimLl6ad+z9q1n/Lx2k94YtFjaLUd54Rer+e8oiK+qahg27Yd6PUDWL78jd4RLE/huHPZTykddaNzW5/SMQ5osprYaviq09IFVyboL2JoWj6HTh3A3Oq+uPKpp54KoufB5cKBWrfFoM99ZeShSTnkpfdshtPxvELPviIJS5ORxORUmuv209zQ8SN0qKqaBu1gvrD0A9o4XHmA3KEFlO+sZti3Rr5/3qCzVrgMBkOnKX2tVktp6XUsX/4Gf1v+BiaTCb1e74y2opFHH1vEb37/KI2nl244xMrBzJk3UvmHKlav+cA5Sxq2pHuTrdH5uvpEJcctx1WHfq64ilU0zAy6ckNhOv+pU5xRlrm5nUc/q+OGwnSmFqQEHBWZm9tZW3mq07MMkxNiuaGw61xAb2BpMnJgw4fYzB0zwJkZ6fTvn0VMnIbkESW0xSUxc2IB26uN1Jos1FZXMqRgJJZmG698vo+7Ljv3rBMtRyojMyOzU915RUUU5OdTWVV1+kLwub3+gGK/8XPiobamDpPJREFB53ydVqtl8qRL+XjtJyiKwgMLF4RPsDzvZ+WLZE0ylwyawjmJKVEpVtCRh7pzXL9O0dCqvU18XHmSSUPOYZxe2+XlNfvqrewwKHxx+DvV5Pqd4/pFzBosh1glJqdiM5+k0dREnCaRvIuvdc4GThjWnwnD+rP12+OUb6nkcOUBhhSMpP+QgrNStAx1dQCq6662bdtBZVUVWq0Wk8mEoa4uIhPzgU48LDe8gX5g5xlRg8HAhi82otVqURSFioq9kbHS3RcjMkdRlDWGZnsLe5p2dRoGRhPj9Tp+Nj6Lt3Y3uomN4yJmx4r1vPQEtPHuEZfS2k5Nk/cINDkhllljMgPKfYUSU20lrc02Rk6+jozcAg5s+BBTbSWNpibyVZYujBmUyer/1GBVLJ1E677vnUdmcqJKL30PU2NHxJyR6R4lG07nrPR6PVOnXsny5W+wevWHzoR0NKMoSqcIS1EU3il/D4A5c25j+fI32PDFxsi8W4MmLoGhafn8YPj1XJAznmO2o1EvVg4m5SXz0KQcn5FUTVOzM5Hu+PMlVudmJfHQpJyIuiTHcasZx0r1vHGTAZz3yvIkSRPP3VeOJkkT7xQtTUIiGQMGs726b9ydwx8cl+K4RhwGg4ElS5eRlJTE/HlzOa+oiOLicRgMBucSiGjFsaQhKenM+aAoCkuWLsNgMDB/3lwK8vMpnT4NRVEiK8LKTRmEPmWQ83Ibo/UY+0/tca6z6ivkpSfw8JQcvqgxs6HmO7cZvkA4NyuJ7w9PiZioypXU/meu73S9C2l2fud7ujvQpydz95WjefmzPU7RStRq0Q+KrFX7ocRg6BgSOnJTjpMX4I45tznLS6dPo6JiLx+v/YTi4nFRf+mOPveMQJeXv4fBYOCWmTej1+sBKC4ex4YvNhJjtVrt3hoJFfIQCnfqLa1sN1jYX2+jpqnZuf7KkyxdPHnpCYzKSmS8XhfyXNWKHXU9bsPSZGTPpytpa7GRnV9I3oVTiNP4Ht4Zmsws/2I/jWYbMycWMGFY/x77ocZN486cJDGxsXxbVcWw/Hzs7ZG78PZsJyyCJUQHwRCsSEYEK/qIyByWIAiCGiJYgiBEDfEzZsxwbqxcubLLHWbMmNHJTq2sO/aBlnfHpiv8eQ+Esxt/vmu+7Ls6X3zh73nWHR9D2W93zm3XOod/8eE4QVeuXKnqqLfyrghkH192/ghaqOnO8QvhwfPHPpAff2+2gfzwq5V39/vTm/16nmf+vm8rV67s2bIGNaddO/VW782+K4fV9vW27YovH3qKZ3siNmd468mfu23P+vWLYfIkdKgJla/vmK9zojvioPajHyih7tdbcKJm5/rfc98ZM2YEbx2Wo2HXTj2Fy5uQdRd/h7CB7hOoD2rH2pP2+gqzfv0ibz35c6dQub72hb92vY3nidQde9fviz9C4eu71VUA0JN0Tyj6VRviqaH23jhe+53D8qV63vZVq/P1pvjjR6iRIZngDc/vrb95H7WTz9f3TK3eV5Tia2QTaLokVP16EyBfqL3P8f7u7O3D8vbBqQmRrw/O0z6Qca6v/j3LQpWn8vYr4/leqfnrS/y7ihAD2SfShq+OIaNrNOUo81UXzujL8/vp7b+avdo55Eu0fG27tu9oy/VcClYuKxj9qp133s5DzwjUs6zbQ0J/Tn415/0VjK5Uvit7f+yCidrw15eo+yuovoacvn7R/D0RwoW3oaLnMLIr+3ChNrTzFXmp/XCplTnwJ9IJNHLzh1D060vEvL1v3oQ+qOuwvHWo9kG5/o8EQhV5qeH6y9RT1Nrx1n4w++0pDmHyTMwHyz4UBCoG3n5EHJ+Bv2LlsPEVOQfjnAplv94iUDVcR1ye719QL0YLdIzqyy7YuSR/3ihf+bhg050cg692/G0/WP32FM+IKdj2oSDQ98ufKNffdIZauVqAEMrvUnf7VYvGuhpKu7bv+p3tlmD5Gn6ohZSeNoG27+8+vujqRO3uCez5hqt9OJ59+PpwPH3xlQPxbMtbrsqz/d7CVz7KETG52vrKV3Vl3xfx5zut9l1Rq4uEfj0jMm9DQrXvtOO134IVqPCo2fszHg6kj+7YB2OcH0jf3nJV3bX1572KlPxVV4LirT7Q8mijO3lcXza+zrXufNeD3W+g2qH2Y+3477dgeTsxvL35/ibq/OmnO/ibeI+EfI4QfahFBb7OB1d8ff8C+T56CoGaWPgrWqHst6sf0K7eN9f95fYyglfk9jJCpCF3awgTnjNFwWhPEPo6EXWL5GgiWLN70SI0ajNzfSWnJEQPEmH1EUKdUJ/16xfdZuz8FatwrpsS+h4iWD0gWqIjQegryJCwG/i6lMCBt8V2/s7WqE0J+1px7KtPNZ+qqqp44YUXaG0988CL2NhY5syZw4UXXujTR1d83UImkOsCXbcDsVfrF+D44Ur+/dZztLkcX0xsLJfe8FOGFPp/fKEmWJ/D2YJEWEHCdYrW24JRf6a9u1pX5WjH36sK1OwB8vPzuffee0lISAAgPj6+WyeJ5zDRVUi8DSEdiz7VxMm1zh97tX4B+g8p4IpZ9xGvScButxMbFx9xYgXB+xzOFkSwukmg10YFY0Yw0Ha6ss/Pz+eee+4hMTGR2bNn9+pJ4u26wGAm8vsPKeDyW+9Fk5DIJT+8I+LEykE4P4doQ4aE3SSQWT5vlzH4atvbMK+rS4x8+almn5+fz6JFi9DpevdhrL01w9h/SAE3LPwdmkRtr/TXXcL1OUQbsnA0QLzlmFxRE5xAV0A79vG1KtrbtVxd2fuL68JRb9GQ5xDQV65JLSflrR1PfOW1vO3TFbJwNPoQwYpQwn03BYj8le49vQBaBCv6kBxWhOHIOYVbrCIdzxlI4exAIizBK5EeYfUUibCiD4mwBEGIGkSwBEGIGkSwBEGIGkSwBEGIGkSwBEGIGmSWUPDKqjX/CrcLwlnKDdOvUS2XS3MEn/zopuvD7YJwlvH2ive91smQUBCEqEEESxCEqEEESxCEqEFyWIIgRBztpy+PiomJISYmxlkuEZYgCBFHc3Mzra2ttLe3Y7efWcgggiX0Gq+//jqzZs2ipqYGgLlz5/LMM8+E2SshElEUBZvNRktLi5toyZBQCClLliwhOzubG2+8kfHjx5OXl0deXh4At99+u9Nu/fr17Nmzh/nz54fLVSGCaGpqQqfTodVqiY2NdQ4NRbCEkFJfX09xcTE2cwX61M/JSTJi2P0CAEWDiohLyMZm7kdWVhY1NTXU1NQ4BU04e2lsbAQgISFBIiwhtDiEZ8qUKTxcNo+mIy/RUFXRyc5mrgAzWEzryEku4slFvyAuIRuj0QhAdnZ2b7suRAhtbW1OobLb7c7Eu+SwhKDz+uuvs23bNlqs1RgPlXUIUxfYzBUYD5XRYq1m/fr1ktsSVJEISwg6s2fPJiPNTkPVItrbzH7v195mpqFqEVOvekyGhYIqEmEJQcNisbBt2zby8vJoaVzuFCvz1ycwf33C636u9e1tZloal1NcXExNTQ0Wi6VXfBeiA4mwhKDxz3/+k/Xr1zOmUOscBtpqLDSsPkpsUiyaAUkk5CS67dN8zIbp4+O0W9uJT9eQmKfDZq7AZq7g9ddXUVhYyI033hiOwxEiEImwhKBRWFjI7NmzUUyfAx1iZCyvBaDd2k59eS3t1jMPePAsM5bX0nzMBoBi+pwpU6bI0FBwQyIsISi8+dbf2bx5q0vJICZPupTSV6e52VUtfpAT2zsELW38ZYx5/k23+tWrP2DDmo3AodN/sP/AQX4869YQei9ECyJYQo9Zt269U6zGjhnDD0r+SergR9BoCzvZ5t31KPt+dZvztSelpdNoNJmoqNhDZmYm9y24h8zMzNAegBA1iGAJPeLgoUOsXPUP5/au3bupb5jA/HnD0Jwua9zwAQCZk6cRp0shf+HTAMTpUjrVA9wy82aWLH0Fg6GOxxc96Wz7obL/ITc3N9SH5JXp06cDsGbNGr/KQ93v2Uh8bFxcuH0QopTGxkaWLfsrAFqtlofK/oe0tDRaW1udNkrNAWpeeYI4XQraISPR5nX8uaIdMhLl8AGa6+tIyBqIVpvEHXNm8+zi51AUKyUlE3o0JJw+fTpr1qzp9D9QHPv6Wx4sQt1+NBH/5caN4fZBiEIUReHVZX9FURQA7ltwDxaLhebmZjIyMgBos5yiavGDztc1rz7BiEdedkZWAJVVVUA8BZOnYfzobTInX0ecLoWMjAzmz7uLZxc/x+bNW51DztzcXB4q+5/ePVih1/nmm29IS0sjJSWFxMREEhISOq4lHDduXLh9EyKUDz/6zGudI6JysHnzVjZv2YLNZiMnJ4fS6dPQtFkYcHcqkOq0O/7JSwwsfYht27azes0HKIqVyZMupSA/n5SJGRx85nqU/d857R9/8FkyJ1wZkuMTIpdRo0bRr18/0tPT0Wq1JCYmEhsbKzksIThs2bKVa66eSmJiIocOVbJ6zQfcMvMmkqxXYzV95LTLvvpHGAx1vFO+wjn0KyoaDUBSxtWM+MUlHPjNHKxHjlBwzxO9IlaeOSLX7UDyVv7aeg7vvNn72/7ZhKzDEoLCxIkT2LFjJwDDhxdw7NgxKquq0PWbQXzimbVU8Yl5p4eBoNfrnWIFsOGLjcTpUhix4E8MvO42si8PzhN7XIXHM3/l2FYTJ9c6b+16bnvmm3y135W9Wn9nez5LBEsICiUlEzh2/DibNm3GZrMx7sILeOedFVhtsaQOfsRNtDJP57gqK6uoqNiDolhZsvRVtm/bQUJCAsnDziVvzoNB9zHQyMSbfaBJ++nTp3dLZM7mSMobMiQUgsb9993L5s1beXfFKpqamrDZbCxd+irz599F6uBHaLHsBcBoPI5Go6GlpYW/LX8drTYJRbEyd+5P3O7fHakEOtPYXeHp7mxmX0YiLCGolJRM4O75PyMrKwuAWoOBJUtfpa09AW3aRNavX09lZSWDcgeg02lP7xXDtddczdgxY3rdX4f4uIqD6/DRFc/cklq9p8i4tu/ZrudQMBB/ztZhYczJkyflUfWCKh9+9Fm3n/ysKArPPf8StbUd1xLm5uYy98472LFjBwcPHiQxMZHrr7/eKWyC4ODtFe/TPzNFdZZQIiwhJGi1Wu5bcI9zZXptbS2vLvsLEyZM5LzzzhOxErqFCJYQMpyipdcDYDDUsWTpK9QnDmBbnTXM3gnRiAiWEFIOHDjAvHk/Q68fCMAmQwu/+qia+1fspqLWFGbvhGhDBEsIGZ999hkbN25k69Yt3D3/Lk5ljmRH/HBy9IOJjYvjv43+3z5ZEEAESwgytbW1KIrCZ599xr59+wA4fPgwMTExfGRKo62tjcOVB8jK0XPvOzv56Z83SKQl+I2swxKCQkdS/a/O58llZqTTv3+WczYwNTWVZ2eV8O6Wb/mmtona6kqGFIxkv83GzJfXUX735RTlZoT5KIRIRyIsISg4xMpxs71GUxOnTpndZgNvmZjPinuvYtENF2JVLByuPIAmIZF0/TBmvrxOIi2hS0SwhB6za/duFEVh7tyf8Phjv3YuAG00NakuXbh2zCBStQmqoiV5LcEXIlhCj3HcasYhVDNmdCw2ddwry5NUbQLv3XtlJ9FKzsqlfEtVr/ktRB8iWEKPGTF8+JmhYGMjr56+CxSaUf4AAA6rSURBVGlJyQSv+xTlZnQSrVMnmySPJfhEBEsIGrW1tfzxqT9RW1tLSckEZtzwQ5/2DtEanJmMVbHw+DXDuWbMoF7yVohGZJZQCBq5ubn88Q+/DWifotwMNj9aGiKPhL6GRFiCIEQNIliCIEQNIliCIEQNIliCIEQNIliCIEQNIliCIEQNIliCIEQN8VVVcimEIAiRRW1tLRaLhRMnTpCUlIRGo5F7uguCEF2IYAmCEDXEn3/++eH2QYhQ9h6sDrcLwlnKiBEjyMrKIiMjA51O53zMl1xLKPQKNnMFiulz2pqN2MwVACQmFxGXkI024zISk4vC7KEQDYhgCSGlrdlI05GXnCLlis1cAWawmNaRmFxE+qB7iEvIDoOXQrQgOSwhZLRYqzEeKlMVK09s5gqMh8poscowVPCOCJYQEtqajTRULaK9zf9bHre3mWmoWkRbszGEngnRjAiWEBKajrzkFCvz1ycwf33Cq61rfXubmaYjL/WKj0L0ITksIejYzBXOYaCtxkLD6qPEJsWiGZBEQk6im23zMRumj4/Tbm0nPl1DYp7Oub8k4gVPJMISgo5i+hyA1qYWjOW1ALRb26kvr6Xd2u608ywzltfS2tTi1oYguCIRlhAU3nrrLTZv3uxSMpBJkyZR+qr77Y+rFj/Iie0dYpQ2/jLGPP+mW/3q1av5YsUXwH7gfgBKSkqYNWtWCL0XogURLKHHrFu3zilWY8aM4QclH5M6+BE02sJOtnl3Pcq+X93mfO1JaWkpJpOJiooKMjMzWbBggfOJPMFg+vTprFmzxuu2L9tA2w6kja7spk+f7ra9Zs0a1bK+jgiW0CMOHTrEqlWrnNu7d++moWE88+YNRXO6rHHDBwBkTp5GnC6F/IVPAxCnS+lUDzBz5kyWLl2KwWBg0aJFzrbLysrIzc3tlp+BCJW3/dXojkh4a0ut3LV9x2tXO7WyvowIltBtGhsbWbZsGdDxMNWysjLS0tJobW112ig1B6h55QnidCloh4xEm9fx51p/5I1nabOcOlOv1TJnzhwWL16MoihBGRJ6Ckt3hEYtevKFQxQ9xVFNOL3ZdtXf2SJUDmLsdrs93E4IkcnbK97nRzddr1qnKArPP/88tbUdSfWysjIGDhxIS0uL06bNcop9v7qN5vo6AM4pHM+IR152a+fg7+7mu73bAUjIGsi5v33DGXkZDAYWL17sZp+bm0tZWVlAx+ErOvJ3qNWdNrqK6FzLvL32dUyB2EcTb694n6GDclSvJcQuCF74+7v/CMi+Ycun9k03j3X+7fz1JfbaXTfbDd/MsZ84vtZutVpV/04cX2s3fDPHXrvrZvvOX1/i1kbDlk+DdjzTpk2zT5s2zW1b7XVX9Wq2ruX+1HvaqG17a8ebfV/h7+/+w75p0yb7wYMH7fX19XaLxWJva2uz2+12u0RYgld8RVjeMK57n8qXHiUhJ5H+tw8hIW0YqYMfoemEjbVr11JRUYGiKEDHMLKoqIipU6eSdk4bpwyLaT7xLcdfO0zzMRsF9zxB9uWB9e8N1yEX0Ck68ScCUsOz3pd9IENKz+jMX/pCpOUrwpIclhBUsi+/HkvNATIuvgjF/jYp+oXUHW1i6dKlTqFyoCgK27Zto6Kignnz5jFAv5CT9t8xfMH9mDZ9FXSxctBVrsjbvv4MwRx1/gqHml1Xs3/+5Lv6KiJYQtDJm/MgAOe0jsPY8B1Llz6Poijo9XpKS0vJz88HoKqqitWrV2MwGFi6dCkPPPAA2QVPERufTOrIyUHzR01o/F1C4C3ScY2ovAmIP3mmQKInzyhOLWLs64hgCSEjNj6ZTz993ylWCxcudKvPz89n4cKFLF68GIPBwKeffhqSBaLehMYb/g7rvLXlGmV1FQX5I2K+fPY2JO2riGAJIWXXrl1Ax9oqb5SWlrJkyRJ27doVEsHyFA7PCMqfRZu+Zgq76s8X/rTpaE/Nb0+7vo4IlhAyFEVx5q30er1XO8cQ0TPHFUy8DZ8CzQcFuu7JV9uBCowsHBXBEs4C/JkZ9BaFdbXo01d/vnJe/tJVf2eLUDmQZQ2CV7qzrMGTX/7ylyiKwvz5852RlCeOBaJarZY//OEPPepPiH58LWuQ28sIIWXs2LFAx10YvFFeXu5mKwjeEMESQso111yDVqt1RlEGg8FZV1VV5VZ2zTXXhMtNIUqQHJYQUhy3iHn++edVrw10ZeXKlQwfPpzLL7+8Fz0UogmJsISQ47hguaSkBK1W6yzXarWUlJTw2GOPMWbMGHbv3s2qVat46623wuitEMlIhCX0CpmZmcyaNcvrOqvhw4eze/duAOfNAOUuo4InEmEJEcHll19OSUmJc3vz5s0SaQmdEMESIoZZs2Z1Ei1BcEUES4goXEVLhoSCJ5LDEiIOX7ku4exGIixBEKIGESxBEKIGESxBEKIGESxBEKIGESxBEKIGESxBEKIGESxBEKIGESxBEKIGESxBEKIGESxBEKIGESyh13jvvfeYO3cuFosFgPvuu4/XXnstzF4J0YRcSyiElCVLlpCXl8e1115LYWEh2dnZ6HQ6AG6//Xan3Z49e1i/fj3z588Pl6tCFCCCJYQUo9HIlClTsJkr0Keuo3+SEcPuFwAYmjma+IRsbGYtycnnUFNTQ01NDXl5eWH2WohURLCEoOMQnilTpvDIQ/MxHXmRhqo9neyazXtoNoPF9DnJyaN5ctEviEvIxmg0ApCdnd3brgsRjuSwhKDz2muvsXXrVlqs1RgPPUizubNYedJs3oPx0IO0WKtZv349v/nNb3rBUyHakAhLCDq33347/dJjaKh6lPY2i9/7tbdZaKh6nKu/94QMCwVVJMISgobFYnHmoKwNf3GKlfnrE5i/PuF1P9f69jYL1oa/UFxc7BwaCoIDESwhaPzzn/9kyZIl2MwVzmGgtcZCw+qjmD46TvNRW6d9mo/aMH10nIbVR7HWdAhcs3kPNnMFS5Ys4b333uvVYxAiGxEsIWgUFxdz4403opjWAdDa1EL9O7UAtNvaqS+vpd3a7rRvt54us3WU1b9TS2tTCwCKaR2XXXaZDA0FNySHJQSFN998ky1btriUDOSSi8/nh8t+7GZX+af5nNy5A4DUC8Yx5oWNbvX/WPUmX674Gjhw+g/279/Pj3/s3o5wdiKCJfSYdevWOcVqzJgx/KDkY1IH/wqN9txOtkPvfpq9D89wvvbkhzf8GJPJxN59h52Puc/MzAztAQhRgwiW0CMOHTrEqlWrnNu7d+/GeHwUd9+Th+Z0WcPnKwHod9kM4nQpFPziRQDidCmd6gF+dOudvPzSnzh6rJFFixY52y4rKyM3NzfUh+Rk+vTprFmzxi87wC/bcOLwEyLfV2+IYAndprGxkWXLlgGg1WopKysjLS2N1tZWp41Sc4DDy/5AbJIG3dDz0OaNRJs30q3+yBt/ot3acqZeq+UnP/05zz77LFarlYkTJ/Z4SBjKk3XNmjVu7Qfii2sbocbRRyC+RhqSdBe6zbJly1AUBYAFCxaQnp7uJlZtyndUv/wQAO3WFqpf/l/aLKfO1FtOUf3y/9Ju7Ui0Vz7zc2d9RkaG87rCLVu2cP/993P//ffz1FNPBeynI1Jy/Pl7woZSRBxtR0OkE0kCJxGW0G3Kysrcthu3fsaBpx8AOoZ7hU+9xbm/exOr6SMsDR3Dvn2P/oDmYx3LGxJyEhlw11AgzdnGwWeuR9n/nXP7sQefJXPClSE+kt7FU6SiQbQiBREsIWhkTriSgnueoPKlR0kddyGatByeWLuIWRf+mPxhk/nu2CtkzWzh6CvVAGTN7JyP6lc6kONvGGmua6LgnidCKlauuSfPPJSvvJSv4WVP8lm+/FFr2zPyUbP15mdX/XuWBeKPN/+Dgl0QvPD3d//Rrf2+/esf7aeqttkVi8k+v3yefX75PPuL61+wGxoN9pP1X9qrP5xjP/TutfbaXTd3+qurmGM/eeBL+7d//WPQjmPatGlet729Vtv2Z1+1ffz1y1HWnX59vfa3X2/1gfoTyHugxt/f/Yd906ZN9oMHD9rr6+vtFovF3tbWZrfb7XaJsISgM/SOjqFii7XWWbb76G4ONhzi8vzLuPqKZ7E0rMJq+pfbfrFxOvrlP44maSgpIy4Oqk+h+MVXi66C0b5aG4Em9gONcgJtv6u2QoUk3YWQoUlyH/JZWxT+tf9f/ObTp6mLKSEt77dodIUAJCSPJnv402iShobEl0AT7v6gNuwKVYLadeLAXwI55u60Hw5i7Ha7PdxOCJHJ2yve50c3Xd+jNu5+1/sdRIv1RVw/qpgUbSqJyUU96qcr/Mk7udYHkqdS2+7qxFdrv6ulF76ExzOi8ldM/cl7efPLV06tJ8L39or3GTooh6ysLDIyMtDpdCQmJhIbGyuCJXgn1IIFoNVomVY0jStHXNWjfvwlWhZ5ns34EizJYQlhRWlReHfnu2yq3sTNF8xkZPbIrnfqASJU0Y3ksISI4EjTEZ5d9wzLty5HafH/pn/C2YUIlhBRfFW9iSc/fjLcbggRigwJhYjioqEXM/OCm8PthhChiGAJEcGg9EG9ksMSohsRLCGs9PYsoRDdiGAJYeN8/fnMmTgHrUYXbleEKEEES+h1MnWZzJl4hwz/hIARwRJ6Da1Gy5UjrmJa0bRwuyJEKSJYQq9wvv58br5gJv2S+4XbFSGKEcESQooM/4RgIoIlhJTfXve7cLsg9CFkpbsgCFGDCJYgCFGDCJYgCFGDCJYgCFGDCJYgCFGDzBIKPnl7xfvhdkEQnMgtkoWAaG9vp7m5GUVRMJlMNDY20tbWFm63hD5GXFwcmZmZpKeno9Pp0Gg0xMXFSYQlBE5sbCzx8fHodB0XLbe3t4fZI6GvERsbi06nIz4+vuPhEzExgERYQoDY7Xba29tpaWmhpaWF1tZWESwh6Dh+FDUaDRqNxilaIlhCwDhEq62tTcRKCBmxsbHExcVJhCX0HLvdjnx1hFATExPjFCsQwRIEIYqQdViCIEQN/x/HRaT4lBQHjgAAAABJRU5ErkJggg==;" vertex="1" parent="1">
          <mxGeometry x="1080" y="329" width="300" height="212" as="geometry" />
        </mxCell>
        <mxCell id="LutIZjnGn2v2l-_MyvBw-6" style="edgeStyle=orthogonalEdgeStyle;rounded=0;orthogonalLoop=1;jettySize=auto;html=1;exitX=1;exitY=0.5;exitDx=0;exitDy=0;entryX=0;entryY=0.5;entryDx=0;entryDy=0;" edge="1" parent="1" source="UfDb-DqNH3yCvx82YPJ2-12" target="LutIZjnGn2v2l-_MyvBw-5">
          <mxGeometry relative="1" as="geometry" />
        </mxCell>
        <mxCell id="LutIZjnGn2v2l-_MyvBw-7" value="" style="shape=image;verticalLabelPosition=bottom;labelBackgroundColor=default;verticalAlign=top;aspect=fixed;imageAspect=0;image=data:image/png,iVBORw0KGgoAAAANSUhEUgAAAa0AAADBCAYAAAB8F++iAAAVg0lEQVR4nO3dbWwcx33H8f85UlxLtnKKVddPCduAsh3ZiauKQJtjALdVW4QSkKhwwTcuKjSoydQOoNMLq0YVoIprFQUdQCQEJRFrx1EfAQalVAcigbRsEsSiG5eKUpgwKvNSm2pcWa2anGVbitxQ2xfkksPhzD7v7c7x+wEI3u3Ozs4e7+Z3M7vHq9TrdU8AAHDAGhGRQ4cOFd0OAAAC7d27V64ruhEAAERFaAEAnEFoAQCcQWgBAJxBaAEAnEFoAQCcsSbphhde/4FUrv1E5Lo1UhFPxLsmc7JGbr3zrizbBwDAokQjrR+89C/yM2uvyc3vm5NN178qN1//qrx/w1W5af1aOfu9b2fdRgAARCRBaP3wtbNy+wfukLl/fU7mZp6Sa+e+INfOfUHmXhmQq6f+Tn6+s0Mu/Gcjj7YuGJf+Sr+M57gHRNQYku5Ktwzl+ecG4KxKpSKnT5+2rj99+rRUKpVYdcYOratXfyJXXvi6nP2jv5JXn/6xyNrbpfLeO+S1Y2/J2cdH5J3vfE2uXr0s//fu1Qi1jUt/pSKVhZ/+UiRRQ4a6l9o0/+NOSI73621f+Enw4I73m7drDHVLpXtIyCoAQaampuRj3R83Btfp06flY90fl6mpqVh1Rg6ts9P/Jn9c/4zM/HtDLt+7Q37lpTPyXw/ulS8+e4sMDbxH/mHTL8vtJ5+TH33wN+VLh4/IN8aek8vvvB1Q47j0V3aIjHnieZ543oxsebIV4TAfSmF9eN9iuzzxxkR2RA7VaPUnF1x/z1G/3WPSJ30y5h/D0Z7Ye+rZ1ScyfEL7mzTk5Mik9H1uj3R27pFT3inZ05nkOAC0u23btskLp55fEVx+YL1w6nnZtm1brDojhdarjRn5y2e+LN0PbJct92+VOz7QIaPPflVuFJFPP/wHsvv3HpK+331I/nrgKbnplttlV+9D8vw3/0m+88//KHNzc+ZKG6/IdG1QHlvsSztlz6mjEr9rbYGeo+LNDMr0DndGXJno2SV9Miwn1INunJSRyT7ZVco/FICy0YMrTWCJRAyt1/6jIQ/9fp9sXXeTVMa/Iee/MiSNb4/Kxue/Kj/61rfkcqMh/z30qGyXafn7oSH52e+/JB+prJVr167Jd5+3XJjReZfcN1mXp6wpsHzqsNt64iSonL5uSPorm6U+KTK8oxJviqtzp/TWlA68MSTdK6Y2x831G8v61XRbpiFNx2WpP5bl9QZPffbI/GBrqUTj5IhM9u2af3PRGJLu0DbPTzMu/V3myyw+BuP9Uukein0UANyhBleawBKJGFq/9ls9suWjW2Xj/b8oP/yLY/Leda/K2jvfkVt+Y1bm/vdv5eLXvyh3/s575M5PXpV3r5yXc19+Rj7x6Yel51MPSu2BX7fU2iNHx/rmO98VHee49FeelC0zS1OHvSObDVNiQeXmpx+nB2cWp/lO7dkjR70ZGawtTP+d2iPJZrYaMvSUyLHF6cM+Gd7RL+PSY6jfVlZEGkOyu37f0hSe5480bcdlqj+OlY/J/NSnPbh6HhuU2uIU4cLUoHGYZf9bbN5Sk8mXZxaKnZDpWk2mX1kItBPDUuvdGesoAKxesS7EuOHWW+Ujz/2N3PSJh+XKdR+SKz9dJ+u718gH994sP137rnzz7F1y67Yu+fDXnpX3f/T+8Ap7jorneTIzOC071IsFxk/IsExKfbP/rn1+dOF3dIuCyo2fkOHaoBzL9IRLTbZsFhHplD1H94j4o6QdwwHbBJTtvEvuk2HZoV+BF/X44zI9Jj2PyWBNmwJc1nxlhBk0NRjQ5s6dvYvBN35iWnqPfU7uGzkpDWnIK9M16d3JSTGgnalTgqZzXHHEvnrwxjs/JP/zY5H11V+QgeN3yPfPf1hee7dLRr93r5y98HNyd2en3HjbHbHq7Nxzav7CgeEdS6Op2qDMeMrFEJ4np0wBFLVcWuNPSV16ZWenLE737ZZj8/ucGZSabbvAsj1y1PPE846J7K5IRQ2vVh3X/M4WwtikU3b21mT4xPjyqUFjNZY2d+6U3tq0vNIYlxPTvbKzc7NskRE5OX5SRvzHFEBb0s9h2S7OiCp2aL3xxhvyZ0PPyKW3rkh39wMy1dgoY9+tyDtzt0vvg78t9/7Sr8r6920Kr6gxJN0r5vsWOs+eXdKnne8a7zdMYQWVW7FuXIaSfqBovF8qO6Zl8NjCdNzMyzKpjFgaJ0dk0rZtUNnGkAyNi8xfhDIjg7VJeXkm5LjSWKh3t/o4qGFsMT9SelJ2j4gMPmaJrMA2d8rOXpGR3U/K8H13Sad//8kRkd6dCadoAZSd7aKLVMFVr9e9qM6fP+/1f/azXs8nP+VNTk56b7/9tnfl8tveW5ea3pUrV7y5ubnIdXme580M1jwRWfzpG1u20qsZ1415fdLnjYWW09ctbbO439qgN7OyVd5gTZa1a2W55WVqfX1ezVp/cNmxPmU/auMDjiu4/ZbHadly9fhMZSyPib6/mcFlxxLlb9E3pt6veYP2AwDgOBHxpqamrOunpqY8EYlcX71e9yr1et07dOhQaLhduHBBnvjTz8u5c+fk8weekLvvvlvWrVsX+9PMAAAksXfv3uj/MPfpp5+W86+/Lgf+5Am555575IYbbiCwAAAtFTm0HnnkEbl27TOyfv16uf766wksAEDLRQ6tjRs35tkOAABC8SWQAABnEFoAAGcQWgAAZxBaAABnEFoAAGcQWgAAZxBaAABnrBERefPNN4tuBwAAoRhpAQCcQWgBAJxBaAEAnEFoAQCcQWgBAJxBaAEAnEFoAQCcQWgBAJxBaAEAnEFoAQCcQWgBAJzhXGhVq1WpVqtFNwMAUIA1eVauh0uz2UxdZ7PZJLQAYJXKdaTlh1Sz2SRsAACpOTc9CABYvXKdHvT5Iyx9ejDp8rD61fu2ugAA7okdWhcvXgxcv2nTphXLTFOD1Wp1WcjEvR1Uj78/dV3c4wAA5M+UGUESjbTi7kRkKbjUEDGNnJKc+7KVDxpdJTkGAEB2kgweWjI9aGMKFduIKm49AID2k+uFGH7o6NN5IrJsCk9dry63lQ+rx7RfAID7ch1p6SOgsPtZLWfkBQDtiUveAQDOILQAAM4gtAAAziC0AADOILQAAM4gtAAAziC0AADOILQAAM4gtAAAziC0AADOILQAAM4o9L+8u2hgYKDoJgBA6e3bty+XegmtBA4ePFh0EwCgtPbv359b3UwPAgCcQWgBAJxBaAEAnEFoAQCcQWg5plKpSKVSafm2AFAGLb96sFqtrljWbDZb3YxcVCoV8Twv1314npc4eOJuayprqsM/Zn+5WibvxwPA6tLykZYfUM1ms5CwMoVmUco+6vEDx/O8ZeGjL7cFFIEFIGuFTg9Wq9XSjLKyCrOyB1FSrRhFAiinF198MdG6PBQWWraQqFary9ap90239fK2etR9mtalDU9Tp66eQ9LPJ9mW25bFXe4vi1uX7dhsy/Xj9kdeBBzQHi5duiSHDx+W0dHRFetGR0fl8OHDcunSpZa1p7DQMoWEP/JqNpuLoeKXU9fpdajlbfXo5VsxwjNNqen39ak3v8PXzx2py1W28mrdtgCJGixB26c5xwag/DZs2CBHjhyR48ePLwuu0dFROX78uBw5ckQ2bNjQsvYU+m+c4gRH3LJFnLtSR0+tHGmEXTBhC7o4opb362a0BbQPP7geffTRxWVFBJZIm/7vQfVcWSvDS7+KrtX7tS1nCg9AWnpwFRFYIgVe8m66CMM2LWgrb2ObLtTboC9LOmVoO2cUNM2nb6tOF5pGSEHTheryoODUy4UFl23kqC4P2ifBCLQXP7j820VoeWiFBYMpyILK6b+jbhe3XUHCLvWOe04pi+VRloUFSpp2EFZAeyoqrHz8RwwAgDMILQCAMwgtAIAzCC0AgDMILQCAM9ryc1p5279/f9FNAIBVidCKad++fUU3AQBWLaYHAQDOILQAAM4gtAAAziC0AADOILQAAM7g6sGYBgYGim4CgDbElcnREFoJHDx4sOgmAGgjYZ/9rP75+Uz203z8tsD1ExMTmexn+/btmdRjQmgBABZ1dXWl2n5qaiqjlpgRWgDgiNk/XJdou44vXc64JcUhtNqQ+o3Bttt6+TBh33Cc9Zc+mr4tOcq3LUetL+q6sDJZHXvQ34Av1ASWEFolUuTX05sCQr2fRppQVLf1b/u/1TC21Rn2mEYNQ1OZrN8ERK2ryOdJEPXvov+Nom5fxuOySXu8SIbQSqDVLy6147KFSdz2BB1DmhGNrb6o+7ZtGxQu+vKo9avlogZX0H3b8jjtcZXp8Xf5eMKstuMtk9xCq1qtLrvfbDbz2lXLxenU43bQYe/mbZ23/sKJ21Ha3tEnOY40TPvU25hFW6KEn6lNNlk8NlFHWlm/qcha0naV/bhsXGtvHB0dHaFlZmdnW9CSJbl9uNgPqWazKc1mc0WI2UQtl1Te9RdNHTn4KpWKNYDU3/6P7X6r2m/ap94en3ps+m0Tv0zYKFMfxYY9Tlnw96v+AEUKC6RWB5YI04OLqtVqqtGgaU7bdg7Gtiztvm3UaYyo52GidphpL5Cw1RllmcjK6UP9dlB5mzKcV/TF+TsE1WU7D2g7H2OrL+3zPO55oCKPK6xNeRxvFP7oZ3Z2dtlIyHQ/C3q9WdcfV2Gh5Y941KDwlwWtMy3zRS1vWpc2sEwdZtB0k62DjRoA+ovAFDpRT/bry01Tj0UwjQhN7YkSUlGXFynO42x6nqjLbM8x/7Y6ooz6/Iz7PPfXmfarry/jcdlkebyuyCsQkygktNRRjXrbn0bUA8RW3t8mbf1pmUIjy/JB9eiSvptLMtKK2nHFbYeprqDpPlPHp5cJum9iG5EF3U977GlGWmHCRqr6MtvzKKvnbVYj8zIdl03WMxFqYOjhkWeY+MFVZGCJFBRacc5xBZVXl5uCrlX0d2pZl49Shx4ecQS9I221KO9ew8qb3qlH2Y+6vamcKUizCGnTbVOZNPuKs22SkWscWU4pl+m4wvZb5OsqK0UHlkhJRlppyscZgWXFNn1hW693OmHl1Se4bXoh7hx50JSaqbOMci4hytROWlFGNknan6QdeXQ4aYMo7lSyfj/o76i30bY8yTkedX3S51Erjito9JvV8SKe3C95t50/UsNHDxx9G1t5W+Dp62yjMH2fUYMuzjv3LN7Zpa1DfacXpZ6wF1bYO9YsX5h6BxJ1OjBs/3lOByUR1EFGeSzVDlj9ra+33Q/apz6St+07yvKwEbCtfNmPK0odhFU2cgutsACwrY+zPGgfWdRfpKRPcFNnHDR1GDYlpdcT90R13Ppt5WwjzKT1R50e9O/HeYMQtz1p3gTkNfor+uKBdj0upMcl720m7jvRuC/cqOWD3sGm3T7tu9cooRulfJx351m2pxXatUNv1+NaTfjmYgCAMxhpAYAj2ukrRpIitBII+5ZRAHBV3l/imBahFdO+ffuKbgKAVab5+G0t2c/27dtbsp80OKcFAHAGoQUAcAahBQBwBqEFAHAGoQUAcAahBQBwBqEFAHBGrp/TmpiYyLN6LHDhsxXIx8DAQNFNgGNc/6xp7h8u7urqynsXq1rZP72O/B08eLDoJsARYf/NJ6uBRp5vpPmPGACARWkHGnm/keacFgDAGYQWAMAZhBawSh04cEAOHDhQdDOAWAgtOK9arUq1Wi26GYXTQygslAgsuKiQ0Oro6Fj2g/bkh0neodJsNlNt36p25s0UQgQT2k0hoTU7O7v4e3Z2tjTBVZZ2tINqtSrNZnPxp6yybqfLoQe4gEve0RJlDi5VWdrph2kW9NFW0IjMNKVou69vY/oJ2y/Ky38Trw8sTPdbqdBzWv70oH7Q+rShet80pWgrb5t+tNURt/4k+8Y821Scvly9b9om7ZRes9mMVK+pHaYyUdsZNiWZZXiawiWsnK18UCgl3S8QR6EjLVNCqyHm3/aT3RZwenm/bv++rYytfJr22I4LS9RRRNhtNVT0jlwvn5Rp//5+TeX02+qyKO3U92HbrlXSBoq6PeHUPtR+TO/TiuzjSnf1oBoIpnVxyttkVT6r9iBcKzp0U1AFlYsTlGW+yCOroCGs0AqlCy11NJNHeZGlC0CibpO0PMG1pKwddlC7gkZ56igwilZdlGKavtN/q+VM923lbfUHtcVWD5BUpV6ve3GeSBcvXpRNmzZFKjsxMWH8P1ZhJ/GCOvuo5W3Tg0H7j7o8qP16W0xTkXr5OMt1U1NTpf0v72qHbpoyi7I8qA59vV8mzlRb0BSgWkZdHrSNrb36cn1a0LSPKMcwMDDAP8xFZPv37w/8L++2PjuOOH1SnDwRmX/TU8g5rbDOOO58qa28er4qTvmw5UHtS1t3lH24IqjTta0zjWji7iPOaCasrG2UFbc+Wx3676jtAlYrLnkHDGwjQQDFIrQAA8IKKKfSXYgBAIANIy3AcWHfRgvEUfZvQ889tMr+AAAuC7oSDIirrFciq3INLRceAACAOzinBQBwBqEFAHAGoQUAcAahBQBwBqEFAHAGoQUAcAahBQBwBqEFAHBGog8XX7x4Met2AAAQKnZoxfnCLgAAssT0IADAGYQWAMAZhBYAwBmEFgDAGYQWAMAZhBYAwBmEFgDAGYk+XDwxMZF1O9oO39oMl/EaDxf2GucxDJekn0wUWiIiXV1dSTdte1NTU0U3AUiN17hd1Nc4j6Fd0n6S6UEAgDMILQCAMwgtAIAzCC0AgDMSX4hRhI6OjsXbs7OzBbYEANpbWfvbQkPLf1D8B0S/r9PLAWg/ps5SXxbWV7Qbvc9rxXGXtb8tNLTUJ5+6rGyC/mhlbC/gqo6OjmWvKf++31eo61bLa8/0mKxmnNOKIGzkB6B19E58tVnNxy5SknNatncOUacAWjFa00eFq/2JAxRhtQeWie00i09/vGz9mCtTrqUYafnDf5U+LRC2vVpPXsNndT8AWi/P17eLTP1kUH+olg+rp6xKMdKyKeODR2ABxTKd31qt0oRM0AiszEodWjwpAWA5NbD120nrEXGnvy3FJe/6MtMw1TTM9ZcHLQPgDtu5Y3+ZrcNuZ0Hn0239on9bf6xsHxdI0t8WpfBL3tPcD6sPgHtMr+O4fUG7CTreuP1i1Kuhy/oYl+JCjLTUd2EAgPZV6nNaUZX1HQEAIFttMdICAKwOhBYAwBmJpwf5SnmgvfEaT4/HMHuJQmv79u1ZtwNAifAaT4/HMB9MDwIAnEFoAQBK58yZM3LmzJkVywktAIAz2uJzWgCA9rJ161bjckZaAIBSUKcEmR4EADiP6UEAQCmoU4JMDwIASsc2Jcj0IADAeUwPAgAKY5sSZHoQAOC8Sr1e94puBAAAUfw/7dqWDPbQ8+kAAAAASUVORK5CYII=;" vertex="1" parent="1">
          <mxGeometry x="1540" y="280" width="429" height="193" as="geometry" />
        </mxCell>
      </root>
    </mxGraphModel>
  </diagram>
  <diagram id="YVLkG4NsJ2Wab_4DUUMk" name="倾斜摄影">
    <mxGraphModel dx="1105" dy="792" grid="1" gridSize="10" guides="1" tooltips="1" connect="1" arrows="1" fold="1" page="1" pageScale="1" pageWidth="827" pageHeight="1169" math="0" shadow="0">
      <root>
        <mxCell id="0" />
        <mxCell id="1" parent="0" />
      </root>
    </mxGraphModel>
  </diagram>
</mxfile>
